<svg xmlns="http://www.w3.org/2000/svg" xmlns:xlink="http://www.w3.org/1999/xlink" width="200" viewBox="0 0 375 400" height="20" cx="50" cy="50" rx="50" ry="50" preserveAspectRatio="xMidYMid meet" version="1.0"><defs><g/><clipPath id="id1"><path d="M 55.609375 55.609375 L 319.609375 55.609375 L 319.609375 319.609375 L 55.609375 319.609375 Z M 55.609375 55.609375 " clip-rule="nonzero"/></clipPath><clipPath id="id2"><path d="M 55.609375 55.609375 L 319.609375 55.609375 L 319.609375 319.609375 L 55.609375 319.609375 Z M 55.609375 55.609375 " clip-rule="nonzero"/></clipPath><clipPath id="id3"><path d="M 187.609375 55.609375 C 114.707031 55.609375 55.609375 114.707031 55.609375 187.609375 C 55.609375 260.511719 114.707031 319.609375 187.609375 319.609375 C 260.511719 319.609375 319.609375 260.511719 319.609375 187.609375 C 319.609375 114.707031 260.511719 55.609375 187.609375 55.609375 " clip-rule="nonzero"/></clipPath></defs><g clip-path="url(#id1)"><path fill="#ffffff" d="M 187.609375 55.609375 C 114.707031 55.609375 55.609375 114.707031 55.609375 187.609375 C 55.609375 260.511719 114.707031 319.609375 187.609375 319.609375 C 260.511719 319.609375 319.609375 260.511719 319.609375 187.609375 C 319.609375 114.707031 260.511719 55.609375 187.609375 55.609375 " fill-opacity="1" fill-rule="nonzero"/></g><g clip-path="url(#id2)"><g clip-path="url(#id3)"><path stroke-linecap="butt" transform="matrix(0.750633, 0, 0, 0.750633, 55.610475, 55.610387)" fill="none" stroke-linejoin="miter" d="M 175.850105 -0.00134786 C 78.728956 -0.00134786 -0.00146576 78.729074 -0.00146576 175.850222 C -0.00146576 272.971371 78.728956 351.701793 175.850105 351.701793 C 272.971253 351.701793 351.701675 272.971371 351.701675 175.850222 C 351.701675 78.729074 272.971253 -0.00134786 175.850105 -0.00134786 " stroke="#000000" stroke-width="2" stroke-opacity="1" stroke-miterlimit="4"/></g></g><g fill="#8f421a" fill-opacity="1"><g transform="translate(169.010839, 289.318546)"><g><path d="M -2.304688 2.394531 C -3.015625 2.25 -3.628906 2.644531 -3.769531 3.34375 C -3.914062 4.046875 -3.503906 4.644531 -2.789062 4.792969 C -2.066406 4.9375 -1.453125 4.546875 -1.3125 3.84375 C -1.167969 3.144531 -1.578125 2.542969 -2.304688 2.394531 Z M -2.304688 2.394531 "/></g></g></g><g fill="#8f421a" fill-opacity="1"><g transform="translate(155.888871, 286.077361)"><g><path d="M -0.730469 -0.273438 L -3.84375 -1.445312 C -6.738281 -2.535156 -8.921875 -1.605469 -9.957031 1.140625 C -10.996094 3.902344 -9.964844 6.039062 -7.070312 7.128906 L -3.957031 8.300781 Z M -2.078125 0.246094 L -4.628906 7.023438 L -6.730469 6.230469 C -8.96875 5.386719 -9.769531 3.710938 -8.945312 1.523438 C -8.128906 -0.65625 -6.421875 -1.386719 -4.183594 -0.546875 Z M -2.078125 0.246094 "/></g></g></g><g fill="#8f421a" fill-opacity="1"><g transform="translate(138.207275, 278.394977)"><g><path d="M -0.667969 -0.398438 L -6.160156 -3.675781 L -6.65625 -2.847656 L -2.066406 -0.113281 L -3.757812 2.722656 L -7.789062 0.320312 L -8.265625 1.121094 L -4.238281 3.527344 L -5.773438 6.105469 L -10.25 3.433594 L -10.742188 4.261719 L -5.363281 7.46875 Z M -0.667969 -0.398438 "/></g></g></g><g fill="#8f421a" fill-opacity="1"><g transform="translate(123.683109, 268.779086)"><g><path d="M -2.765625 -2.386719 L -3.710938 -3.199219 L -12.363281 1.4375 L -11.496094 2.183594 L -4.03125 -1.914062 L -4.011719 -1.898438 L -6.949219 6.105469 L -6.085938 6.851562 Z M -2.765625 -2.386719 "/></g></g></g><g fill="#8f421a" fill-opacity="1"><g transform="translate(110.309288, 256.039549)"><g><path d="M -0.492188 -0.605469 L -4.539062 -5.558594 L -5.28125 -4.949219 L -1.902344 -0.8125 L -4.460938 1.277344 L -7.429688 -2.355469 L -8.152344 -1.765625 L -5.1875 1.867188 L -7.511719 3.769531 L -10.808594 -0.269531 L -11.554688 0.339844 L -7.589844 5.191406 Z M -0.492188 -0.605469 "/></g></g></g><g fill="#8f421a" fill-opacity="1"><g transform="translate(99.961252, 242.010833)"><g><path d="M -0.386719 -0.675781 L -3.253906 -5.6875 L -4.085938 -5.207031 L -1.757812 -1.136719 L -8.875 2.9375 L -8.339844 3.871094 Z M -0.386719 -0.675781 "/></g></g></g><g fill="#8f421a" fill-opacity="1"><g transform="translate(92.344729, 227.266564)"><g><path d="M -1.480469 -5.183594 C -2.476562 -8.003906 -4.960938 -9.191406 -7.746094 -8.210938 C -10.539062 -7.226562 -11.730469 -4.742188 -10.738281 -1.921875 C -9.746094 0.886719 -7.261719 2.078125 -4.464844 1.089844 C -1.683594 0.109375 -0.492188 -2.375 -1.480469 -5.183594 Z M -2.390625 -4.863281 C -1.617188 -2.667969 -2.59375 -0.710938 -4.824219 0.0742188 C -7.066406 0.863281 -9.058594 -0.046875 -9.832031 -2.242188 C -10.601562 -4.433594 -9.625 -6.390625 -7.382812 -7.183594 C -5.152344 -7.96875 -3.164062 -7.058594 -2.390625 -4.863281 Z M -2.390625 -4.863281 "/></g></g></g><g fill="#8f421a" fill-opacity="1"><g transform="translate(86.481831, 207.467344)"><g><path d="M -0.117188 -0.769531 L -0.277344 -1.8125 L -3.847656 -1.265625 L -4.253906 -3.941406 C -4.550781 -5.867188 -5.886719 -7.058594 -7.492188 -6.8125 C -9.101562 -6.566406 -10.039062 -5.042969 -9.742188 -3.101562 L -9.175781 0.609375 Z M -4.8125 -1.121094 L -8.382812 -0.574219 L -8.792969 -3.25 C -8.992188 -4.558594 -8.386719 -5.585938 -7.332031 -5.746094 C -6.289062 -5.902344 -5.417969 -5.089844 -5.21875 -3.792969 Z M -4.8125 -1.121094 "/></g></g></g><g fill="#8f421a" fill-opacity="1"><g transform="translate(84.630853, 189.51146)"><g><path d="M 0.015625 -0.78125 L 0.148438 -7.171875 L -0.8125 -7.191406 L -0.921875 -1.851562 L -4.222656 -1.921875 L -4.125 -6.613281 L -5.0625 -6.632812 L -5.160156 -1.941406 L -8.160156 -2.003906 L -8.054688 -7.214844 L -9.015625 -7.234375 L -9.144531 -0.96875 Z M 0.015625 -0.78125 "/></g></g></g><g fill="#8f421a" fill-opacity="1"><g transform="translate(85.804105, 172.138097)"><g><path d="M 1.703125 -7.214844 C 1.828125 -7.839844 1.589844 -8.441406 1.15625 -8.914062 L 0.421875 -8.503906 C 0.738281 -8.230469 0.910156 -7.890625 0.851562 -7.597656 C 0.796875 -7.316406 0.542969 -7.179688 0.222656 -7.164062 L -1.484375 -7.042969 C -2.050781 -6.996094 -2.546875 -6.777344 -2.882812 -6.339844 L -2.898438 -6.34375 C -2.800781 -7.886719 -3.570312 -9.007812 -4.820312 -9.257812 C -6.324219 -9.558594 -7.660156 -8.445312 -8.03125 -6.585938 L -8.832031 -2.558594 L 0.152344 -0.765625 L 0.363281 -1.824219 L -3.433594 -2.582031 L -2.984375 -4.847656 C -2.859375 -5.460938 -2.296875 -5.890625 -1.597656 -5.949219 L 0.398438 -6.121094 C 1.046875 -6.179688 1.5625 -6.5 1.703125 -7.214844 Z M -4.378906 -2.769531 L -7.679688 -3.425781 L -7.085938 -6.398438 C -6.839844 -7.644531 -5.972656 -8.386719 -5.003906 -8.195312 C -4.035156 -8 -3.535156 -6.988281 -3.785156 -5.738281 Z M -4.378906 -2.769531 "/></g></g></g><g fill="#8f421a" fill-opacity="1"><g transform="translate(90.474202, 153.798662)"><g><path d="M -2.015625 -2.644531 C -1.761719 -3.328125 -2.058594 -3.988281 -2.730469 -4.238281 C -3.398438 -4.484375 -4.054688 -4.175781 -4.308594 -3.492188 C -4.5625 -2.796875 -4.269531 -2.132812 -3.597656 -1.886719 C -2.929688 -1.636719 -2.273438 -1.949219 -2.015625 -2.644531 Z M -2.015625 -2.644531 "/></g></g></g><g fill="#8f421a" fill-opacity="1"><g transform="translate(95.687101, 141.326488)"><g><path d="M 0.382812 -0.679688 L 2.019531 -3.578125 C 3.539062 -6.273438 2.953125 -8.570312 0.394531 -10.015625 C -2.175781 -11.464844 -4.445312 -10.773438 -5.964844 -8.078125 L -7.597656 -5.179688 Z M 0.0742188 -2.089844 L -6.230469 -5.648438 L -5.125 -7.605469 C -3.949219 -9.691406 -2.171875 -10.222656 -0.136719 -9.074219 C 1.890625 -7.929688 2.355469 -6.132812 1.179688 -4.050781 Z M 0.0742188 -2.089844 "/></g></g></g><g fill="#8f421a" fill-opacity="1"><g transform="translate(105.983624, 125.03102)"><g><path d="M 0.496094 -0.601562 L 4.574219 -5.527344 L 3.835938 -6.140625 L 0.429688 -2.023438 L -2.117188 -4.128906 L 0.875 -7.746094 L 0.15625 -8.339844 L -2.835938 -4.726562 L -5.148438 -6.640625 L -1.824219 -10.65625 L -2.566406 -11.269531 L -6.5625 -6.445312 Z M 0.496094 -0.601562 "/></g></g></g><g fill="#8f421a" fill-opacity="1"><g transform="translate(117.726327, 112.155426)"><g><path d="M 3.417969 -2.5 C 4.988281 -3.847656 5.210938 -5.644531 4.121094 -6.917969 C 3.308594 -7.867188 2.097656 -7.921875 0.5 -7.070312 L -0.84375 -6.359375 C -1.894531 -5.804688 -2.554688 -5.820312 -3.0625 -6.414062 C -3.679688 -7.132812 -3.542969 -8.191406 -2.59375 -9.003906 C -1.707031 -9.765625 -0.546875 -9.75 0.277344 -8.984375 L 0.890625 -9.851562 C -0.304688 -10.84375 -1.957031 -10.816406 -3.230469 -9.726562 C -4.652344 -8.507812 -4.835938 -6.824219 -3.765625 -5.574219 C -2.96875 -4.644531 -1.90625 -4.582031 -0.425781 -5.351562 L 0.917969 -6.058594 C 2.140625 -6.691406 2.886719 -6.699219 3.410156 -6.085938 C 4.0625 -5.328125 3.890625 -4.171875 2.792969 -3.230469 C 1.578125 -2.191406 0.00390625 -2.175781 -0.996094 -3.203125 L -1.679688 -2.359375 C -0.296875 -1.066406 1.808594 -1.125 3.417969 -2.5 Z M 3.417969 -2.5 "/></g></g></g><g fill="#8f421a" fill-opacity="1"><g transform="translate(131.886298, 101.252867)"><g><path d="M 0.660156 -0.414062 L 1.574219 -0.988281 L -3.296875 -8.75 L -4.210938 -8.175781 Z M 0.660156 -0.414062 "/></g></g></g><g fill="#8f421a" fill-opacity="1"><g transform="translate(142.815853, 94.963751)"><g><path d="M 4.941406 -1.734375 C 6.449219 -2.371094 7.382812 -3.628906 7.609375 -5.132812 L 7.621094 -5.140625 L 8.40625 -3.550781 L 9.242188 -3.90625 L 7.273438 -8.5625 L 1.5625 -6.148438 L 1.9375 -5.265625 L 6.632812 -7.246094 C 7.402344 -5.425781 6.503906 -3.441406 4.648438 -2.65625 C 2.625 -1.800781 0.515625 -2.714844 -0.367188 -4.8125 C -1.269531 -6.941406 -0.515625 -9.039062 1.421875 -9.855469 C 2.679688 -10.386719 4.125 -10.039062 5.007812 -9.058594 L 5.800781 -9.746094 C 4.671875 -11.019531 2.738281 -11.457031 1.058594 -10.75 C -1.453125 -9.6875 -2.46875 -7.011719 -1.363281 -4.390625 C -0.257812 -1.78125 2.390625 -0.65625 4.941406 -1.734375 Z M 4.941406 -1.734375 "/></g></g></g><g fill="#8f421a" fill-opacity="1"><g transform="translate(162.005032, 87.962262)"><g><path d="M 0.761719 -0.164062 L 1.816406 -0.386719 L 0.199219 -7.976562 L 0.226562 -7.980469 L 6.445312 -1.375 L 7.855469 -1.675781 L 5.945312 -10.636719 L 4.878906 -10.410156 L 6.5 -2.808594 L 6.472656 -2.800781 L 0.261719 -9.425781 L -1.148438 -9.125 Z M 0.761719 -0.164062 "/></g></g></g><g fill="#8f421a" fill-opacity="1"><g transform="translate(180.489025, 84.969966)"><g><path d="M 0.78125 -0.0273438 L 7.171875 -0.25 L 7.136719 -1.210938 L 1.796875 -1.023438 L 1.683594 -4.324219 L 6.371094 -4.488281 L 6.339844 -5.421875 L 1.652344 -5.257812 L 1.546875 -8.261719 L 6.757812 -8.441406 L 6.722656 -9.402344 L 0.460938 -9.183594 Z M 0.78125 -0.0273438 "/></g></g></g><g fill="#8f421a" fill-opacity="1"><g transform="translate(197.9044, 85.174231)"><g><path d="M 7.296875 1.300781 C 7.929688 1.390625 8.519531 1.121094 8.964844 0.660156 L 8.515625 -0.046875 C 8.257812 0.28125 7.929688 0.472656 7.632812 0.429688 C 7.347656 0.390625 7.199219 0.144531 7.167969 -0.175781 L 6.949219 -1.871094 C 6.871094 -2.433594 6.625 -2.917969 6.171875 -3.230469 L 6.171875 -3.242188 C 7.71875 -3.234375 8.796875 -4.066406 8.976562 -5.324219 C 9.191406 -6.84375 8.007812 -8.117188 6.128906 -8.382812 L 2.0625 -8.960938 L 0.773438 0.109375 L 1.839844 0.261719 L 2.386719 -3.574219 L 4.675781 -3.246094 C 5.292969 -3.160156 5.753906 -2.621094 5.851562 -1.925781 L 6.136719 0.0585938 C 6.226562 0.703125 6.578125 1.199219 7.296875 1.300781 Z M 2.519531 -4.523438 L 2.996094 -7.859375 L 5.992188 -7.429688 C 7.253906 -7.25 8.042969 -6.429688 7.90625 -5.453125 C 7.765625 -4.472656 6.78125 -3.917969 5.519531 -4.097656 Z M 2.519531 -4.523438 "/></g></g></g><g fill="#8f421a" fill-opacity="1"><g transform="translate(216.471631, 88.82365)"><g><path d="M 2.527344 -2.160156 C 3.222656 -1.945312 3.871094 -2.277344 4.082031 -2.960938 C 4.289062 -3.640625 3.941406 -4.28125 3.246094 -4.496094 C 2.539062 -4.710938 1.894531 -4.382812 1.683594 -3.699219 C 1.472656 -3.015625 1.820312 -2.378906 2.527344 -2.160156 Z M 2.527344 -2.160156 "/></g></g></g><g fill="#8f421a" fill-opacity="1"><g transform="translate(229.214548, 93.336132)"><g><path d="M 0.699219 0.34375 L 3.683594 1.816406 C 6.457031 3.183594 8.722656 2.472656 10.019531 -0.160156 C 11.324219 -2.808594 10.511719 -5.035156 7.734375 -6.402344 L 4.75 -7.875 Z M 2.09375 -0.0390625 L 5.292969 -6.535156 L 7.308594 -5.539062 C 9.457031 -4.480469 10.085938 -2.734375 9.050781 -0.636719 C 8.023438 1.449219 6.253906 2.011719 4.109375 0.953125 Z M 2.09375 -0.0390625 "/></g></g></g><g fill="#8f421a" fill-opacity="1"><g transform="translate(246.05679, 102.678533)"><g><path d="M 5.773438 4.648438 C 6.28125 5.03125 6.929688 5.078125 7.542969 4.886719 L 7.488281 4.050781 C 7.105469 4.21875 6.722656 4.226562 6.484375 4.046875 C 6.257812 3.875 6.242188 3.589844 6.367188 3.292969 L 6.992188 1.699219 C 7.195312 1.167969 7.210938 0.628906 6.964844 0.132812 L 6.972656 0.125 C 8.324219 0.875 9.667969 0.664062 10.429688 -0.355469 C 11.351562 -1.582031 10.925781 -3.265625 9.40625 -4.402344 L 6.117188 -6.867188 L 0.625 0.46875 L 1.488281 1.113281 L 3.808594 -1.984375 L 5.660156 -0.597656 C 6.160156 -0.222656 6.308594 0.46875 6.058594 1.128906 L 5.351562 3.003906 C 5.121094 3.609375 5.191406 4.214844 5.773438 4.648438 Z M 4.386719 -2.753906 L 6.40625 -5.449219 L 8.828125 -3.632812 C 9.847656 -2.871094 10.144531 -1.769531 9.550781 -0.980469 C 8.960938 -0.1875 7.828125 -0.175781 6.808594 -0.941406 Z M 4.386719 -2.753906 "/></g></g></g><g fill="#8f421a" fill-opacity="1"><g transform="translate(260.590752, 114.708848)"><g><path d="M 0.0898438 0.09375 L 0.875 0.945312 L 3.058594 0.0742188 L 6.058594 3.316406 L 5.011719 5.421875 L 5.789062 6.261719 L 10.117188 -2.558594 L 9.234375 -3.511719 Z M 3.976562 -0.351562 L 8.882812 -2.320312 L 8.902344 -2.300781 L 6.546875 2.425781 Z M 3.976562 -0.351562 "/></g></g></g><g fill="#8f421a" fill-opacity="1"><g transform="translate(272.507554, 128.960485)"><g><path d="M 0.425781 0.65625 L 1.011719 1.558594 L 4.457031 -0.671875 L 6.597656 2.632812 L 7.375 2.128906 L 5.230469 -1.175781 L 7.894531 -2.898438 L 10.453125 1.046875 L 11.257812 0.527344 L 8.113281 -4.328125 Z M 0.425781 0.65625 "/></g></g></g><g fill="#8f421a" fill-opacity="1"><g transform="translate(280.943781, 143.450966)"><g><path d="M 1.273438 2.933594 L 1.699219 3.921875 L 9.226562 0.660156 L 10.445312 3.476562 L 11.328125 3.09375 L 8.457031 -3.527344 L 7.578125 -3.144531 L 8.796875 -0.328125 Z M 1.273438 2.933594 "/></g></g></g><g fill="#8f421a" fill-opacity="1"><g transform="translate(287.089874, 159.736718)"><g><path d="M 0.183594 0.757812 L 1.707031 6.96875 L 2.640625 6.738281 L 1.371094 1.550781 L 4.578125 0.765625 L 5.691406 5.324219 L 6.601562 5.101562 L 5.484375 0.542969 L 8.402344 -0.171875 L 9.640625 4.890625 L 10.574219 4.664062 L 9.085938 -1.421875 Z M 0.183594 0.757812 "/></g></g></g><g fill="#8f421a" fill-opacity="1"><g transform="translate(290.445635, 176.823641)"><g><path d="M 0.214844 7.410156 C 0.253906 8.046875 0.640625 8.566406 1.183594 8.910156 L 1.785156 8.324219 C 1.40625 8.140625 1.15625 7.859375 1.136719 7.558594 C 1.117188 7.273438 1.328125 7.078125 1.632812 6.980469 L 3.25 6.421875 C 3.785156 6.230469 4.207031 5.890625 4.421875 5.382812 L 4.433594 5.382812 C 4.742188 6.898438 5.773438 7.78125 7.046875 7.703125 C 8.574219 7.601562 9.578125 6.183594 9.457031 4.289062 L 9.195312 0.191406 L 0.0507812 0.777344 L 0.117188 1.855469 L 3.984375 1.605469 L 4.132812 3.914062 C 4.171875 4.539062 3.738281 5.101562 3.078125 5.335938 L 1.195312 6.019531 C 0.582031 6.242188 0.167969 6.683594 0.214844 7.410156 Z M 4.945312 1.546875 L 8.304688 1.328125 L 8.496094 4.351562 C 8.578125 5.625 7.9375 6.5625 6.949219 6.625 C 5.964844 6.691406 5.21875 5.839844 5.136719 4.566406 Z M 4.945312 1.546875 "/></g></g></g><g fill="#8f421a" fill-opacity="1"><g transform="translate(290.657967, 195.747971)"><g><path d="M 2.628906 2.035156 C 2.5625 2.757812 3.019531 3.324219 3.730469 3.390625 C 4.441406 3.457031 4.996094 2.988281 5.0625 2.261719 C 5.132812 1.523438 4.675781 0.960938 3.964844 0.894531 C 3.25 0.828125 2.699219 1.296875 2.628906 2.035156 Z M 2.628906 2.035156 "/></g></g></g><g fill="#8f421a" fill-opacity="1"><g transform="translate(288.840625, 209.142487)"><g><path d="M -0.195312 0.753906 L -1.027344 3.976562 C -1.800781 6.972656 -0.644531 9.042969 2.203125 9.777344 C 5.058594 10.515625 7.074219 9.261719 7.847656 6.265625 L 8.675781 3.046875 Z M 0.464844 2.039062 L 7.476562 3.847656 L 6.914062 6.027344 C 6.316406 8.34375 4.734375 9.316406 2.472656 8.730469 C 0.21875 8.152344 -0.691406 6.53125 -0.09375 4.21875 Z M 0.464844 2.039062 "/></g></g></g><g fill="#8f421a" fill-opacity="1"><g transform="translate(283.131939, 227.534224)"><g><path d="M -3.375 6.601562 C -3.644531 7.175781 -3.558594 7.820312 -3.246094 8.382812 L -2.4375 8.15625 C -2.679688 7.816406 -2.765625 7.445312 -2.636719 7.175781 C -2.515625 6.914062 -2.238281 6.84375 -1.925781 6.90625 L -0.238281 7.191406 C 0.324219 7.28125 0.855469 7.1875 1.289062 6.84375 L 1.300781 6.851562 C 0.839844 8.328125 1.320312 9.601562 2.472656 10.140625 C 3.863281 10.789062 5.425781 10.027344 6.230469 8.308594 L 7.96875 4.589844 L -0.332031 0.707031 L -0.789062 1.683594 L 2.722656 3.324219 L 1.742188 5.421875 C 1.476562 5.984375 0.828125 6.269531 0.132812 6.160156 L -1.847656 5.851562 C -2.488281 5.75 -3.066406 5.941406 -3.375 6.601562 Z M 3.59375 3.730469 L 6.640625 5.160156 L 5.359375 7.902344 C 4.820312 9.054688 3.804688 9.570312 2.90625 9.152344 C 2.011719 8.734375 1.769531 7.628906 2.308594 6.476562 Z M 3.59375 3.730469 "/></g></g></g><g fill="#8f421a" fill-opacity="1"><g transform="translate(274.288313, 244.219459)"><g><path d="M -0.449219 0.636719 L -4.132812 5.867188 L -3.34375 6.417969 L -0.269531 2.050781 L 2.429688 3.953125 L -0.269531 7.789062 L 0.492188 8.328125 L 3.195312 4.492188 L 5.648438 6.222656 L 2.648438 10.480469 L 3.433594 11.035156 L 7.042969 5.914062 Z M -0.449219 0.636719 "/></g></g></g><g fill="#8f421a" fill-opacity="1"><g transform="translate(263.605039, 257.975014)"><g><path d="M -0.09375 0.0898438 L -0.914062 0.90625 L 0.0390625 3.0625 L -3.097656 6.175781 L -5.234375 5.207031 L -6.046875 6.011719 L 2.921875 10.015625 L 3.84375 9.101562 Z M 0.496094 3.960938 L 2.640625 8.792969 L 2.621094 8.8125 L -2.1875 6.628906 Z M 0.496094 3.960938 "/></g></g></g><g fill="#8f421a" fill-opacity="1"><g transform="translate(249.898233, 270.448109)"><g><path d="M -0.648438 0.433594 L -1.542969 1.035156 L 2.675781 7.34375 L 2.65625 7.355469 L -4.257812 2.847656 L -5.207031 3.484375 L -3.667969 11.601562 L -3.691406 11.617188 L -7.917969 5.296875 L -8.816406 5.898438 L -3.71875 13.515625 L -2.421875 12.644531 L -4.085938 4.15625 L -4.074219 4.148438 L 3.152344 8.917969 L 4.449219 8.050781 Z M -0.648438 0.433594 "/></g></g></g><g fill="#8f421a" fill-opacity="1"><g transform="translate(231.63327, 281.334371)"><g><path d="M -0.71875 0.304688 L -6.601562 2.808594 L -6.226562 3.695312 L -1.308594 1.601562 L -0.0195312 4.640625 L -4.335938 6.476562 L -3.96875 7.339844 L 0.347656 5.5 L 1.523438 8.265625 L -3.273438 10.304688 L -2.894531 11.191406 L 2.871094 8.738281 Z M -0.71875 0.304688 "/></g></g></g><g fill="#8f421a" fill-opacity="1"><g transform="translate(215.315224, 287.399567)"><g><path d="M -7.277344 1.40625 C -7.898438 1.550781 -8.351562 2.015625 -8.601562 2.605469 L -7.929688 3.105469 C -7.808594 2.703125 -7.566406 2.40625 -7.277344 2.339844 C -7 2.277344 -6.769531 2.453125 -6.625 2.738281 L -5.8125 4.246094 C -5.539062 4.742188 -5.132812 5.101562 -4.597656 5.230469 L -4.59375 5.246094 C -6.042969 5.792969 -6.75 6.953125 -6.464844 8.195312 C -6.121094 9.691406 -4.558594 10.453125 -2.707031 10.027344 L 1.292969 9.105469 L -0.761719 0.175781 L -1.8125 0.417969 L -0.941406 4.191406 L -3.199219 4.710938 C -3.804688 4.851562 -4.429688 4.511719 -4.769531 3.898438 L -5.746094 2.148438 C -6.066406 1.582031 -6.570312 1.246094 -7.277344 1.40625 Z M -0.726562 5.128906 L 0.0273438 8.410156 L -2.921875 9.089844 C -4.164062 9.375 -5.195312 8.890625 -5.417969 7.929688 C -5.640625 6.964844 -4.917969 6.09375 -3.679688 5.808594 Z M -0.726562 5.128906 "/></g></g></g><g fill="#000000" fill-opacity="1"><g transform="translate(131.271991, 218.329322)"><g><path d="M 8.136719 2.519531 C 11.304688 2.519531 15.046875 0.214844 18.289062 -3.097656 C 22.824219 -2.878906 27 -3.742188 30.960938 -5.902344 C 31.105469 -5.976562 31.175781 -6.121094 31.175781 -6.265625 C 31.175781 -6.550781 31.03125 -6.695312 30.816406 -6.695312 L 30.601562 -6.695312 C 27.070312 -4.753906 23.472656 -3.886719 19.007812 -3.886719 C 22.753906 -7.992188 25.632812 -13.320312 25.703125 -17.640625 C 25.777344 -20.734375 23.976562 -22.679688 21.023438 -22.679688 C 16.199219 -22.679688 10.367188 -18.503906 9.070312 -12.742188 C 6.121094 -9.71875 3.671875 -5.761719 3.601562 -2.375 C 3.527344 0.574219 5.398438 2.519531 8.136719 2.519531 Z M 18 -3.960938 C 12.816406 -4.390625 9.71875 -6.839844 9.71875 -10.511719 C 9.71875 -11.160156 9.792969 -11.808594 9.863281 -12.457031 C 12.097656 -14.617188 14.617188 -16.199219 16.632812 -16.558594 C 16.777344 -16.558594 16.992188 -16.777344 16.992188 -16.992188 C 16.992188 -17.207031 16.777344 -17.351562 16.558594 -17.351562 L 16.488281 -17.351562 C 14.617188 -17.0625 12.382812 -15.695312 10.222656 -13.824219 C 11.878906 -18.574219 16.777344 -21.816406 21.023438 -21.816406 C 23.472656 -21.816406 24.910156 -20.230469 24.839844 -17.640625 C 24.769531 -13.320312 21.742188 -7.992188 18 -3.960938 Z M 8.136719 1.65625 C 5.832031 1.65625 4.390625 0.0703125 4.390625 -2.375 C 4.464844 -5.257812 6.40625 -8.710938 8.929688 -11.449219 C 8.855469 -11.089844 8.855469 -10.800781 8.855469 -10.511719 C 8.855469 -7.992188 10.585938 -3.960938 17.207031 -3.167969 C 14.257812 -0.289062 10.871094 1.65625 8.136719 1.65625 Z M 8.136719 1.65625 "/></g></g></g><g fill="#000000" fill-opacity="1"><g transform="translate(160.071973, 218.329322)"><g><path d="M 0.433594 3.167969 C 3.238281 3.167969 11.375 -1.296875 17.496094 -5.542969 C 17.566406 -5.617188 17.640625 -5.6875 17.640625 -5.832031 C 17.640625 -6.046875 17.496094 -6.265625 17.28125 -6.265625 C 17.136719 -6.265625 17.0625 -6.265625 16.992188 -6.191406 C 10.152344 -1.441406 2.734375 2.375 0.433594 2.375 C -0.792969 2.375 -1.152344 2.089844 -1.152344 1.078125 C -1.152344 -0.359375 -0.214844 -2.59375 1.441406 -5.183594 C 13.679688 -12.601562 35.0625 -31.320312 35.0625 -35.496094 C 35.0625 -36.433594 34.488281 -36.9375 33.480469 -36.9375 C 27.433594 -36.9375 -1.945312 -7.414062 -1.945312 1.078125 C -1.945312 2.519531 -1.222656 3.167969 0.433594 3.167969 Z M 2.519531 -6.769531 C 10.441406 -18.433594 29.015625 -36.144531 33.480469 -36.144531 C 34.054688 -36.144531 34.273438 -35.929688 34.273438 -35.496094 C 34.273438 -32.039062 15.265625 -14.976562 2.519531 -6.769531 Z M 2.519531 -6.769531 "/></g></g></g><g fill="#000000" fill-opacity="1"><g transform="translate(175.767968, 218.329322)"><g><path d="M 5.183594 -9.289062 C 5.328125 -9.289062 5.398438 -9.289062 5.472656 -9.433594 L 5.761719 -9.71875 C 5.976562 -10.078125 6.265625 -10.441406 6.40625 -10.585938 C 6.480469 -10.65625 6.480469 -10.800781 6.480469 -10.871094 C 6.480469 -11.089844 6.335938 -11.304688 6.121094 -11.304688 C 5.976562 -11.304688 5.832031 -11.230469 5.761719 -11.160156 C 5.617188 -10.945312 5.328125 -10.511719 5.113281 -10.222656 L 4.824219 -9.9375 C 4.753906 -9.863281 4.753906 -9.792969 4.753906 -9.648438 C 4.753906 -9.433594 4.96875 -9.289062 5.183594 -9.289062 Z M 0.574219 0.433594 C 3.023438 0.433594 10.585938 -3.097656 14.472656 -5.542969 C 14.542969 -5.617188 14.617188 -5.761719 14.617188 -5.902344 C 14.617188 -6.121094 14.472656 -6.265625 14.183594 -6.265625 L 13.96875 -6.265625 C 10.222656 -3.816406 2.808594 -0.433594 0.574219 -0.433594 C -0.214844 -0.433594 -0.574219 -0.71875 -0.574219 -1.441406 C -0.574219 -2.449219 1.152344 -4.894531 3.601562 -7.414062 C 3.671875 -7.488281 3.742188 -7.558594 3.742188 -7.703125 C 3.742188 -7.921875 3.527344 -8.0625 3.3125 -8.0625 C 3.167969 -8.0625 3.097656 -8.0625 3.023438 -7.992188 C 0.359375 -5.257812 -1.367188 -2.808594 -1.367188 -1.441406 C -1.367188 -0.289062 -0.648438 0.433594 0.574219 0.433594 Z M 0.574219 0.433594 "/></g></g></g><g fill="#000000" fill-opacity="1"><g transform="translate(188.367958, 218.329322)"><g><path d="M -4.246094 6.695312 C -2.304688 6.695312 2.734375 1.800781 6.046875 -2.449219 C 6.625 -1.945312 7.488281 -1.65625 8.566406 -1.65625 C 12.3125 -1.65625 16.777344 -3.886719 19.296875 -5.542969 C 19.441406 -5.617188 19.511719 -5.761719 19.511719 -5.902344 C 19.511719 -6.121094 19.296875 -6.265625 19.078125 -6.265625 L 18.863281 -6.265625 C 16.34375 -4.609375 12.097656 -2.449219 8.566406 -2.449219 C 7.632812 -2.449219 6.984375 -2.734375 6.550781 -3.097656 C 8.0625 -5.183594 9.144531 -6.984375 9.144531 -7.921875 C 9.144531 -8.425781 8.785156 -8.785156 8.207031 -8.785156 C 6.769531 -8.785156 5.183594 -6.480469 5.183594 -4.535156 C 5.183594 -4.03125 5.257812 -3.527344 5.472656 -3.167969 C 2.304688 0.9375 -2.664062 5.902344 -4.246094 5.902344 C -4.390625 5.902344 -4.609375 5.761719 -4.609375 5.472656 C -4.609375 3.097656 0.71875 -4.246094 2.375 -6.046875 L 2.449219 -6.335938 C 2.449219 -6.550781 2.230469 -6.769531 2.015625 -6.769531 C 1.945312 -6.769531 1.800781 -6.695312 1.726562 -6.625 C 0.0703125 -4.824219 -5.472656 2.808594 -5.472656 5.472656 C -5.472656 6.265625 -4.96875 6.695312 -4.246094 6.695312 Z M 6.046875 -3.886719 C 6.046875 -4.105469 5.976562 -4.320312 5.976562 -4.535156 C 5.976562 -5.976562 7.273438 -7.921875 8.136719 -7.921875 C 8.28125 -7.921875 8.28125 -7.921875 8.28125 -7.847656 C 8.28125 -7.199219 7.414062 -5.6875 6.046875 -3.886719 Z M 6.046875 -3.886719 "/></g></g></g><g fill="#000000" fill-opacity="1"><g transform="translate(205.863948, 218.329322)"><g><path d="M 2.375 0.214844 C 4.609375 0.214844 11.59375 -1.800781 16.632812 -5.542969 C 16.777344 -5.617188 16.847656 -5.761719 16.847656 -5.902344 C 16.847656 -6.121094 16.632812 -6.265625 16.414062 -6.265625 C 16.34375 -6.265625 16.273438 -6.265625 16.199219 -6.191406 C 11.230469 -2.59375 4.464844 -0.648438 2.375 -0.648438 C 0.71875 -0.648438 -0.144531 -1.078125 -0.144531 -2.015625 C -0.144531 -2.953125 0.574219 -4.105469 1.511719 -5.113281 C 1.945312 -4.894531 2.519531 -4.824219 3.3125 -4.824219 C 4.609375 -4.824219 6.265625 -5.902344 6.265625 -6.839844 C 6.265625 -7.558594 5.761719 -7.992188 4.96875 -7.992188 C 2.59375 -7.992188 -1.007812 -4.390625 -1.007812 -2.015625 C -1.007812 -0.574219 0.289062 0.214844 2.375 0.214844 Z M 3.3125 -5.617188 C 2.808594 -5.617188 2.449219 -5.6875 2.160156 -5.761719 C 3.097656 -6.550781 4.105469 -7.128906 4.96875 -7.128906 C 5.328125 -7.128906 5.472656 -7.054688 5.472656 -6.839844 C 5.472656 -6.40625 4.105469 -5.617188 3.3125 -5.617188 Z M 3.3125 -5.617188 "/></g></g></g><g fill="#000000" fill-opacity="1"><g transform="translate(220.623941, 218.329322)"><g><path d="M 0.9375 7.777344 C 5.257812 7.777344 17.785156 -0.359375 24.984375 -5.542969 C 25.054688 -5.617188 25.128906 -5.761719 25.128906 -5.902344 C 25.128906 -6.121094 24.984375 -6.265625 24.695312 -6.265625 C 24.625 -6.265625 24.550781 -6.265625 24.480469 -6.191406 C 17.351562 -1.007812 5.039062 6.910156 0.9375 6.910156 C 0.0703125 6.910156 -0.214844 6.625 -0.214844 5.902344 C -0.214844 3.816406 3.457031 0.214844 6.984375 -3.238281 C 10.078125 -6.335938 13.175781 -9.359375 13.175781 -11.089844 C 13.175781 -11.953125 12.167969 -12.527344 10.945312 -13.679688 C 13.679688 -16.632812 15.695312 -19.296875 15.695312 -20.304688 C 15.695312 -20.808594 15.40625 -21.167969 14.902344 -21.167969 C 12.671875 -21.167969 7.632812 -17.351562 7.632812 -15.550781 C 7.632812 -14.902344 8.351562 -14.398438 9.648438 -13.535156 C 7.273438 -11.015625 4.246094 -8.28125 1.367188 -6.191406 C 1.296875 -6.121094 1.222656 -5.976562 1.222656 -5.902344 C 1.222656 -5.617188 1.367188 -5.472656 1.585938 -5.472656 C 1.726562 -5.472656 1.800781 -5.472656 1.871094 -5.542969 C 4.464844 -7.414062 7.703125 -10.296875 10.367188 -13.105469 C 11.808594 -12.097656 12.3125 -11.59375 12.3125 -11.089844 C 12.3125 -9.71875 9.503906 -6.910156 6.40625 -3.886719 C 2.878906 -0.359375 -1.007812 3.457031 -1.007812 5.902344 C -1.007812 7.054688 -0.433594 7.777344 0.9375 7.777344 Z M 10.222656 -14.113281 C 8.929688 -14.976562 8.496094 -15.40625 8.496094 -15.550781 C 8.496094 -16.777344 12.601562 -19.871094 14.542969 -20.230469 C 14.761719 -20.304688 14.902344 -20.160156 14.832031 -19.945312 C 14.328125 -18.71875 11.734375 -15.695312 10.222656 -14.113281 Z M 10.222656 -14.113281 "/></g></g></g><g fill="#000000" fill-opacity="1"><g transform="translate(126.781996, 181.505846)"><g><path d="M 2.160156 0 L 3.636719 0 L 3.636719 -23.652344 L 3.707031 -23.652344 L 18.574219 0 L 20.878906 0 L 20.878906 -25.234375 L 19.402344 -25.234375 L 19.402344 -1.585938 L 19.332031 -1.585938 L 4.464844 -25.234375 L 2.160156 -25.234375 Z M 2.160156 0 "/></g></g></g><g fill="#000000" fill-opacity="1"><g transform="translate(149.822041, 181.505846)"><g><path d="M 2.160156 0 L 3.636719 0 L 3.636719 -25.234375 L 2.160156 -25.234375 Z M 2.160156 0 "/></g></g></g><g fill="#000000" fill-opacity="1"><g transform="translate(155.61805, 181.505846)"><g><path d="M 14.472656 0.898438 C 20.878906 0.898438 25.488281 -3.097656 26.351562 -9.359375 L 24.910156 -9.683594 C 24.15625 -4.066406 20.125 -0.503906 14.472656 -0.503906 C 7.308594 -0.503906 2.734375 -5.21875 2.734375 -12.601562 C 2.734375 -19.980469 6.875 -24.730469 13.609375 -24.730469 C 18.179688 -24.730469 21.78125 -21.636719 22.644531 -16.738281 L 24.085938 -17.027344 C 23.113281 -22.609375 18.972656 -26.136719 13.609375 -26.136719 C 5.941406 -26.136719 1.261719 -20.878906 1.261719 -12.601562 C 1.261719 -4.355469 6.40625 0.898438 14.472656 0.898438 Z M 14.472656 0.898438 "/></g></g></g><g fill="#000000" fill-opacity="1"><g transform="translate(182.6901, 181.505846)"><g><path d="M 14.652344 0.898438 C 22.714844 0.898438 28.042969 -4.464844 28.042969 -12.601562 C 28.042969 -20.773438 22.714844 -26.136719 14.652344 -26.136719 C 6.589844 -26.136719 1.261719 -20.773438 1.261719 -12.601562 C 1.261719 -4.464844 6.589844 0.898438 14.652344 0.898438 Z M 14.652344 -0.503906 C 7.453125 -0.503906 2.734375 -5.328125 2.734375 -12.601562 C 2.734375 -19.90625 7.453125 -24.730469 14.652344 -24.730469 C 21.816406 -24.730469 26.566406 -19.90625 26.566406 -12.601562 C 26.566406 -5.328125 21.816406 -0.503906 14.652344 -0.503906 Z M 14.652344 -0.503906 "/></g></g></g><g fill="#000000" fill-opacity="1"><g transform="translate(211.99416, 181.505846)"><g><path d="M 2.160156 0 L 17.746094 0 L 17.746094 -1.402344 L 3.636719 -1.402344 L 3.636719 -25.234375 L 2.160156 -25.234375 Z M 2.160156 0 "/></g></g></g><g fill="#000000" fill-opacity="1"><g transform="translate(230.102191, 181.505846)"><g><path d="M 2.160156 0 L 17.746094 0 L 17.746094 -1.402344 L 3.636719 -1.402344 L 3.636719 -25.234375 L 2.160156 -25.234375 Z M 2.160156 0 "/></g></g></g></svg>