<svg xmlns="http://www.w3.org/2000/svg" xmlns:xlink="http://www.w3.org/1999/xlink" width="500" zoomAndPan="magnify" viewBox="0 0 375 374.999991" height="500" preserveAspectRatio="xMidYMid meet" version="1.0"><defs><g/><clipPath id="id1"><path d="M 64.039062 63.253906 L 310.789062 63.253906 L 310.789062 131.503906 L 64.039062 131.503906 Z M 64.039062 63.253906 " clip-rule="nonzero"/></clipPath><clipPath id="id2"><path d="M 63.082031 242.976562 L 312.082031 242.976562 L 312.082031 311.90625 L 63.082031 311.90625 Z M 63.082031 242.976562 " clip-rule="nonzero"/></clipPath></defs><g clip-path="url(#id1)"><path fill="#000000" d="M 187.414062 310.003906 C 119.402344 310.003906 64.039062 254.636719 64.039062 186.628906 C 64.039062 118.621094 119.402344 63.253906 187.414062 63.253906 C 255.421875 63.253906 310.789062 118.621094 310.789062 186.628906 C 310.789062 254.636719 255.421875 310.003906 187.414062 310.003906 Z M 187.414062 65.078125 C 120.375 65.078125 65.859375 119.59375 65.859375 186.628906 C 65.859375 253.664062 120.375 308.179688 187.414062 308.179688 C 254.449219 308.179688 308.964844 253.664062 308.964844 186.628906 C 308.964844 119.59375 254.449219 65.078125 187.414062 65.078125 Z M 187.414062 65.078125 " fill-opacity="1" fill-rule="nonzero"/></g><g fill="#000000" fill-opacity="1"><g transform="translate(44.406729, 195.640899)"><g><path d="M 19.980469 -17.839844 C 16.390625 -13.21875 12.941406 -8.488281 9.285156 -3.898438 C 7.765625 -2 6.144531 -0.171875 4.417969 1.554688 C 4.519531 1.378906 4.625 1.207031 4.726562 1.035156 C 9.109375 -6.039062 12.699219 -13.527344 15.011719 -21.535156 C 16.082031 -25.296875 16.804688 -29.09375 16.566406 -33.0625 C 16.460938 -34.71875 16.117188 -36.375 15.183594 -37.824219 C 14.011719 -39.652344 12.421875 -40.757812 10.179688 -40.757812 C 9.699219 -40.757812 9.214844 -40.652344 8.867188 -40.273438 C 8.695312 -40.101562 8.59375 -39.894531 8.800781 -39.722656 C 8.9375 -39.515625 9.144531 -39.445312 9.386719 -39.582031 C 10.765625 -40.308594 11.871094 -40.101562 12.871094 -38.894531 C 13.90625 -37.652344 14.390625 -36.199219 14.597656 -34.613281 C 15.011719 -31.300781 14.632812 -28.023438 13.976562 -24.742188 C 12.941406 -19.738281 11.179688 -14.941406 9.109375 -10.285156 C 6.796875 -5.175781 4.382812 -0.105469 1 4.417969 C 0.757812 4.726562 0.585938 5.109375 0.378906 5.453125 C 0.242188 5.695312 0.3125 5.832031 0.550781 5.9375 C 1 6.175781 1.347656 6.003906 1.726562 5.761719 C 3.070312 4.796875 4.246094 3.625 5.417969 2.449219 C 9.285156 -1.585938 12.5625 -6.074219 15.910156 -10.527344 C 19.117188 -14.839844 22.328125 -19.1875 26.089844 -23.085938 C 29.023438 -26.125 32.09375 -29.023438 35.648438 -31.335938 C 36.476562 -31.851562 37.339844 -32.335938 38.304688 -32.578125 C 38.925781 -32.714844 39.066406 -32.613281 39.101562 -31.957031 C 39.167969 -31.09375 38.859375 -30.300781 38.480469 -29.574219 C 37.546875 -27.539062 36.339844 -25.640625 35.097656 -23.777344 C 32.164062 -19.394531 28.953125 -15.148438 26.054688 -10.734375 C 24.226562 -7.902344 22.570312 -5.003906 21.707031 -1.726562 C 21.292969 -0.136719 21.015625 1.484375 21.292969 3.140625 C 21.671875 5.316406 22.84375 6.625 24.777344 6.796875 C 25.640625 6.902344 26.433594 6.695312 27.226562 6.351562 C 28.574219 5.761719 29.78125 5.003906 30.957031 4.140625 C 34.40625 1.554688 37.511719 -1.449219 40.757812 -4.3125 C 41.171875 -4.695312 41.621094 -5.074219 42.035156 -5.488281 C 42.101562 -5.554688 42.34375 -5.660156 42.136719 -5.832031 C 42.035156 -5.9375 41.859375 -5.9375 41.722656 -5.796875 C 41.6875 -5.761719 41.652344 -5.730469 41.621094 -5.695312 C 39.6875 -3.96875 37.789062 -2.277344 35.855469 -0.585938 C 33.890625 1.140625 31.921875 2.863281 29.714844 4.277344 C 28.332031 5.140625 26.917969 6.039062 25.226562 6.175781 C 24.226562 6.28125 23.882812 6.039062 23.5 5.140625 C 22.984375 3.863281 22.984375 2.554688 23.191406 1.277344 C 23.707031 -1.828125 24.8125 -4.695312 26.398438 -7.417969 C 28.953125 -11.835938 31.992188 -15.945312 34.957031 -20.085938 C 36.855469 -22.707031 38.617188 -25.433594 40.066406 -28.332031 C 40.550781 -29.230469 40.859375 -30.195312 40.859375 -31.265625 C 40.824219 -32.234375 40.375 -32.886719 39.480469 -33.269531 C 38.511719 -33.683594 37.511719 -33.613281 36.546875 -33.199219 C 35.40625 -32.75 34.371094 -32.058594 33.40625 -31.300781 C 28.332031 -27.402344 23.914062 -22.84375 19.980469 -17.839844 Z M 19.980469 -17.839844 "/></g></g></g><g fill="#000000" fill-opacity="1"><g transform="translate(85.713391, 195.640899)"><g><path d="M 2.761719 -8.316406 C 2.3125 -8.695312 1.933594 -8.695312 1.484375 -8.28125 C 1.3125 -8.109375 1.140625 -7.9375 0.964844 -7.765625 C -1.140625 -4.933594 -2.796875 -1.933594 -3.140625 1.65625 C -3.277344 2.589844 -3.242188 3.519531 -3.035156 4.453125 C -2.863281 5.175781 -2.554688 5.902344 -2.070312 6.523438 C -1.105469 7.660156 -0.0351562 7.800781 1.207031 7.003906 C 1.414062 6.867188 1.621094 6.660156 1.828125 6.488281 C 3.589844 5.003906 5.140625 3.3125 6.730469 1.65625 C 8.660156 -0.378906 10.765625 -2.105469 13.320312 -3.347656 C 14.769531 -4.039062 16.152344 -4.796875 17.667969 -5.347656 C 17.808594 -5.382812 17.945312 -5.417969 17.910156 -5.589844 C 17.910156 -5.730469 17.773438 -5.796875 17.632812 -5.796875 C 17.359375 -5.832031 17.152344 -5.730469 16.945312 -5.625 C 16.152344 -5.28125 15.355469 -4.933594 14.597656 -4.554688 C 13.078125 -3.832031 11.492188 -3.175781 10.042969 -2.242188 C 7.9375 -0.964844 6.144531 0.726562 4.453125 2.519531 C 3.484375 3.484375 2.621094 4.554688 1.484375 5.316406 C 0.828125 5.761719 0.207031 6.210938 -0.621094 6.246094 C -1.242188 6.28125 -1.414062 6.144531 -1.554688 5.554688 C -1.726562 4.832031 -1.726562 4.105469 -1.65625 3.382812 C -1.378906 0.691406 -0.34375 -1.761719 1.035156 -4.070312 C 1.65625 -5.109375 2.3125 -6.039062 2.933594 -7.039062 C 3.242188 -7.558594 3.175781 -7.972656 2.761719 -8.316406 Z M 4.347656 -10.007812 C 4.660156 -9.90625 4.867188 -10.113281 4.832031 -10.421875 C 4.832031 -10.941406 4.246094 -11.457031 3.65625 -11.527344 C 3.347656 -11.5625 3.175781 -11.355469 3.277344 -11.042969 C 3.449219 -10.527344 3.863281 -10.179688 4.347656 -10.007812 Z M 4.347656 -10.007812 "/></g></g></g><g fill="#000000" fill-opacity="1"><g transform="translate(103.140186, 195.640899)"><g><path d="M 23.605469 -6.074219 C 14.390625 -4.453125 13.148438 -2.382812 5.382812 4.277344 C 4.484375 5.074219 3.554688 5.796875 2.382812 6.074219 C 1.035156 6.453125 0.242188 6.144531 -0.34375 4.867188 C -2.726562 -0.34375 2.347656 -9.007812 5.554688 -10.042969 C 5.867188 -10.113281 6.039062 -10.042969 6.074219 -9.730469 C 6.175781 -9.285156 6.175781 -8.835938 6.039062 -8.386719 C 5.832031 -7.59375 5.523438 -6.867188 5.074219 -6.210938 C 4.761719 -5.796875 4.867188 -5.589844 5.316406 -5.453125 C 5.589844 -5.347656 5.832031 -5.347656 6.039062 -5.589844 C 7.003906 -6.730469 7.558594 -8.039062 7.351562 -9.558594 C 7.246094 -10.214844 6.832031 -10.59375 6.210938 -10.800781 C 5.417969 -11.007812 4.695312 -10.871094 3.96875 -10.457031 C -1.347656 -7.144531 -3.863281 0.863281 -1.105469 5.003906 C -0.519531 5.902344 0.277344 6.417969 1.347656 6.558594 C 2.347656 6.695312 3.277344 6.417969 4.175781 5.9375 C 5.488281 5.175781 6.589844 4.175781 7.730469 3.175781 C 13.457031 -2.035156 16.703125 -5.074219 24.984375 -5.730469 C 24.503906 -6.210938 24.054688 -6.109375 23.605469 -6.074219 Z M 23.605469 -6.074219 "/></g></g></g><g fill="#000000" fill-opacity="1"><g transform="translate(127.227116, 195.640899)"><g><path d="M 2.140625 -3.070312 C 2.175781 -3.140625 2.207031 -3.175781 2.242188 -3.242188 C 3.003906 -4.003906 3.519531 -4.902344 3.933594 -5.902344 C 4.3125 -6.796875 4.519531 -7.730469 4.417969 -8.730469 C 4.246094 -10.285156 3.003906 -11.285156 1.449219 -11.078125 C 0.136719 -10.90625 -0.933594 -10.285156 -1.726562 -9.25 C -2.140625 -8.730469 -2.414062 -8.144531 -2.449219 -7.488281 C -2.484375 -6.453125 -2.242188 -5.488281 -1.691406 -4.625 C -1.484375 -4.3125 -1.484375 -4.105469 -1.65625 -3.796875 C -1.96875 -3.242188 -2.175781 -2.65625 -2.175781 -2 C -2.140625 -0.933594 -1.171875 -0.378906 -0.277344 -0.933594 C -0.171875 -0.964844 -0.105469 -1.035156 0 -1.105469 C 0.449219 -1.449219 0.933594 -1.792969 1.347656 -2.207031 C 1.484375 -2.347656 1.585938 -2.414062 1.792969 -2.382812 C 3.796875 -1.585938 8.972656 -2.96875 13.699219 -5.902344 C 13.597656 -5.9375 13.355469 -6.109375 13.078125 -5.9375 C 10.734375 -4.554688 6.796875 -3.347656 6.144531 -3.210938 C 3.449219 -2.691406 2.105469 -2.898438 2.105469 -2.898438 C 2.140625 -3.035156 2.140625 -3.070312 2.140625 -3.070312 Z M 0.3125 -2.554688 C -0.105469 -2.105469 -0.519531 -1.691406 -1.140625 -1.519531 C -1.207031 -1.585938 -1.207031 -1.65625 -1.171875 -1.761719 C -1.070312 -2.207031 -0.898438 -2.65625 -0.65625 -3.070312 C -0.550781 -3.242188 -0.449219 -3.277344 -0.277344 -3.140625 C -0.105469 -3.035156 0.0703125 -2.933594 0.277344 -2.828125 C 0.378906 -2.761719 0.414062 -2.65625 0.3125 -2.554688 Z M 1.207031 -3.554688 C 1.140625 -3.484375 1.105469 -3.382812 1.035156 -3.347656 C 0.933594 -3.3125 0.933594 -3.3125 0.585938 -3.484375 C -0.3125 -3.933594 -0.136719 -3.863281 0.136719 -4.277344 C 0.519531 -4.761719 0.964844 -5.175781 1.414062 -5.554688 C 1.863281 -5.9375 1.898438 -6.003906 1.65625 -6.351562 C 1.347656 -6.796875 0.933594 -6.902344 0.550781 -6.660156 C 0.136719 -6.382812 -0.171875 -6.074219 -0.449219 -5.695312 C -0.65625 -5.417969 -0.898438 -5.109375 -1.140625 -4.761719 C -2.484375 -6.558594 -0.898438 -9.972656 1.726562 -9.800781 C 1.726562 -9.800781 3.417969 -9.59375 2.898438 -7.109375 C 2.621094 -5.796875 2.105469 -4.554688 1.207031 -3.554688 Z M 1.207031 -3.554688 "/></g></g></g><g fill="#000000" fill-opacity="1"><g transform="translate(140.202307, 195.640899)"><g><path d="M 15.53125 -5.9375 C 13.941406 -5.140625 12.457031 -4.210938 11.113281 -3.035156 C 9.316406 -1.519531 7.59375 0.136719 5.867188 1.761719 C 4.519531 3.070312 3.175781 4.382812 1.585938 5.417969 C 0.964844 5.832031 0.277344 6.144531 -0.449219 6.316406 C -1.105469 6.417969 -1.242188 6.351562 -1.519531 5.761719 C -1.761719 5.210938 -1.792969 4.625 -1.792969 4.039062 C -1.863281 2.382812 -1.378906 0.828125 -0.898438 -0.691406 C -0.0351562 -3.3125 1.070312 -5.796875 2.3125 -8.214844 C 2.691406 -8.972656 3.105469 -9.699219 3.484375 -10.457031 L 3.519531 -10.457031 C 12.527344 -20.535156 21.5 -35.269531 21.707031 -37.753906 C 21.914062 -38.304688 21.1875 -39.515625 20.601562 -39.03125 C 20.328125 -38.789062 20.015625 -38.546875 19.773438 -38.273438 C 18.117188 -36.441406 16.496094 -34.578125 14.941406 -32.648438 C 13.113281 -30.402344 11.457031 -28.023438 9.871094 -25.570312 C 8.28125 -23.054688 6.730469 -20.566406 5.246094 -17.980469 C 3.554688 -15.082031 1.96875 -12.148438 0.484375 -9.144531 C -0.519531 -7.210938 -1.449219 -5.246094 -2.175781 -3.175781 C -2.863281 -1.171875 -3.347656 0.828125 -3.347656 2.96875 C -3.347656 3.796875 -3.175781 4.554688 -2.863281 5.28125 C -2.3125 6.660156 -1.035156 7.28125 0.414062 6.902344 C 0.691406 6.832031 0.964844 6.695312 1.242188 6.589844 C 2.105469 6.175781 2.828125 5.589844 3.554688 5.003906 C 5.730469 3.242188 7.695312 1.3125 9.699219 -0.621094 C 10.664062 -1.519531 11.628906 -2.484375 12.628906 -3.382812 C 13.804688 -4.417969 15.117188 -5.246094 16.667969 -5.9375 C 16.183594 -6.246094 15.839844 -6.109375 15.53125 -5.9375 Z M 6.039062 -15.148438 C 8.246094 -19.050781 10.59375 -22.84375 13.078125 -26.605469 C 15.046875 -29.539062 17.289062 -32.300781 19.464844 -35.097656 C 19.878906 -35.613281 20.292969 -36.132812 20.707031 -36.648438 C 19.914062 -34.925781 18.289062 -32.058594 15.769531 -28.089844 C 12.355469 -22.707031 8.523438 -17.460938 4.96875 -13.21875 C 5.316406 -13.875 5.695312 -14.527344 6.039062 -15.148438 Z M 6.039062 -15.148438 "/></g></g></g><g fill="#000000" fill-opacity="1"><g transform="translate(155.524083, 195.640899)"><g><path d="M 15.53125 -5.9375 C 13.941406 -5.140625 12.457031 -4.210938 11.113281 -3.035156 C 9.316406 -1.519531 7.59375 0.136719 5.867188 1.761719 C 4.519531 3.070312 3.175781 4.382812 1.585938 5.417969 C 0.964844 5.832031 0.277344 6.144531 -0.449219 6.316406 C -1.105469 6.417969 -1.242188 6.351562 -1.519531 5.761719 C -1.761719 5.210938 -1.792969 4.625 -1.792969 4.039062 C -1.863281 2.382812 -1.378906 0.828125 -0.898438 -0.691406 C -0.0351562 -3.3125 1.070312 -5.796875 2.3125 -8.214844 C 2.691406 -8.972656 3.105469 -9.699219 3.484375 -10.457031 L 3.519531 -10.457031 C 12.527344 -20.535156 21.5 -35.269531 21.707031 -37.753906 C 21.914062 -38.304688 21.1875 -39.515625 20.601562 -39.03125 C 20.328125 -38.789062 20.015625 -38.546875 19.773438 -38.273438 C 18.117188 -36.441406 16.496094 -34.578125 14.941406 -32.648438 C 13.113281 -30.402344 11.457031 -28.023438 9.871094 -25.570312 C 8.28125 -23.054688 6.730469 -20.566406 5.246094 -17.980469 C 3.554688 -15.082031 1.96875 -12.148438 0.484375 -9.144531 C -0.519531 -7.210938 -1.449219 -5.246094 -2.175781 -3.175781 C -2.863281 -1.171875 -3.347656 0.828125 -3.347656 2.96875 C -3.347656 3.796875 -3.175781 4.554688 -2.863281 5.28125 C -2.3125 6.660156 -1.035156 7.28125 0.414062 6.902344 C 0.691406 6.832031 0.964844 6.695312 1.242188 6.589844 C 2.105469 6.175781 2.828125 5.589844 3.554688 5.003906 C 5.730469 3.242188 7.695312 1.3125 9.699219 -0.621094 C 10.664062 -1.519531 11.628906 -2.484375 12.628906 -3.382812 C 13.804688 -4.417969 15.117188 -5.246094 16.667969 -5.9375 C 16.183594 -6.246094 15.839844 -6.109375 15.53125 -5.9375 Z M 6.039062 -15.148438 C 8.246094 -19.050781 10.59375 -22.84375 13.078125 -26.605469 C 15.046875 -29.539062 17.289062 -32.300781 19.464844 -35.097656 C 19.878906 -35.613281 20.292969 -36.132812 20.707031 -36.648438 C 19.914062 -34.925781 18.289062 -32.058594 15.769531 -28.089844 C 12.355469 -22.707031 8.523438 -17.460938 4.96875 -13.21875 C 5.316406 -13.875 5.695312 -14.527344 6.039062 -15.148438 Z M 6.039062 -15.148438 "/></g></g></g><g fill="#000000" fill-opacity="1"><g transform="translate(170.84586, 195.640899)"><g/></g></g><g fill="#000000" fill-opacity="1"><g transform="translate(184.649265, 195.640899)"><g><path d="M 46.3125 -23.121094 C 47.246094 -27.710938 47.277344 -32.265625 46.003906 -36.789062 C 44.621094 -41.652344 41.585938 -45.171875 36.890625 -47.070312 C 33.855469 -48.3125 30.75 -48.074219 27.644531 -47.347656 C 22.535156 -46.105469 18.253906 -43.378906 14.460938 -39.894531 C 10.664062 -36.375 7.800781 -32.164062 5.28125 -27.710938 C 3.105469 -23.8125 1.554688 -19.738281 1.140625 -15.253906 C 0.378906 -6.832031 5.625 0.449219 13.875 2.242188 C 14.148438 2.3125 14.320312 2.414062 14.425781 2.691406 C 14.632812 3.3125 14.941406 3.898438 15.289062 4.484375 C 17.117188 7.730469 20.292969 9.144531 23.882812 8.351562 C 26.089844 7.867188 27.953125 6.695312 29.679688 5.316406 C 32.820312 2.796875 35.40625 -0.277344 37.683594 -3.65625 C 37.925781 -3.96875 38.167969 -4.140625 38.582031 -4.140625 C 40.582031 -4.277344 42.550781 -4.070312 44.550781 -3.863281 C 44.863281 -3.863281 45.171875 -3.796875 45.449219 -3.65625 C 45.65625 -3.554688 45.96875 -3.484375 46.070312 -3.761719 C 46.140625 -4.003906 45.828125 -4.105469 45.621094 -4.210938 C 45.414062 -4.3125 45.207031 -4.347656 44.964844 -4.417969 C 42.929688 -4.832031 40.894531 -5.175781 38.6875 -5.109375 C 38.894531 -5.453125 39.03125 -5.660156 39.203125 -5.902344 C 42.722656 -11.148438 45.105469 -16.910156 46.3125 -23.121094 Z M 33.683594 -0.898438 C 31.542969 1.65625 29.367188 4.140625 26.539062 5.96875 C 25.332031 6.730469 24.054688 7.351562 22.636719 7.625 C 21.050781 7.972656 19.671875 7.558594 18.53125 6.382812 C 17.496094 5.382812 16.910156 4.140625 16.390625 2.863281 C 16.324219 2.65625 16.289062 2.484375 16.566406 2.519531 C 20.636719 2.691406 24.054688 0.792969 27.503906 -0.898438 C 30.023438 -2.140625 32.542969 -3.242188 35.304688 -3.726562 C 35.441406 -3.761719 35.578125 -3.832031 35.753906 -3.726562 C 35.097656 -2.726562 34.40625 -1.792969 33.683594 -0.898438 Z M 36.789062 -5.28125 C 36.648438 -5.074219 36.582031 -4.902344 36.269531 -4.867188 C 32.542969 -4.484375 29.230469 -2.933594 25.917969 -1.3125 C 23.742188 -0.242188 21.636719 0.898438 19.257812 1.414062 C 18.359375 1.621094 17.425781 1.726562 16.496094 1.691406 C 16.117188 1.691406 15.945312 1.585938 15.839844 1.171875 C 14.910156 -2 14.839844 -5.246094 15.460938 -8.488281 C 16.804688 -15.289062 19.914062 -21.257812 24.226562 -26.675781 C 26.261719 -29.230469 28.402344 -31.714844 31.023438 -33.714844 C 32.058594 -34.476562 33.164062 -35.164062 34.40625 -35.578125 C 35.0625 -35.785156 35.132812 -35.753906 35.304688 -35.0625 C 35.339844 -34.890625 35.371094 -34.71875 35.578125 -34.683594 C 35.820312 -34.648438 35.925781 -34.785156 36.027344 -34.957031 C 36.234375 -35.40625 36.199219 -35.753906 35.753906 -35.992188 C 35.0625 -36.40625 34.335938 -36.40625 33.578125 -36.234375 C 31.785156 -35.753906 30.300781 -34.71875 28.886719 -33.578125 C 26.160156 -31.300781 23.914062 -28.539062 21.707031 -25.746094 C 18.046875 -21.085938 15.425781 -15.910156 13.875 -10.179688 C 12.871094 -6.488281 12.769531 -2.761719 13.839844 0.933594 C 13.976562 1.484375 13.769531 1.414062 13.390625 1.3125 C 11.042969 0.65625 9.144531 -0.757812 7.453125 -2.449219 C 4.933594 -5.003906 3.65625 -8.179688 3.277344 -11.699219 C 2.761719 -16.390625 3.863281 -20.84375 5.867188 -25.054688 C 8.453125 -30.4375 11.59375 -35.40625 15.910156 -39.582031 C 19.394531 -42.929688 23.433594 -45.519531 28.195312 -46.761719 C 30.542969 -47.347656 32.957031 -47.660156 35.304688 -46.96875 C 39.066406 -45.828125 41.652344 -43.308594 43.378906 -39.894531 C 44.933594 -36.789062 45.414062 -33.441406 45.378906 -30.160156 C 45.414062 -25.089844 44.136719 -20.464844 42.414062 -15.910156 C 40.964844 -12.148438 39.066406 -8.59375 36.789062 -5.28125 Z M 36.789062 -5.28125 "/></g></g></g><g fill="#000000" fill-opacity="1"><g transform="translate(233.271729, 195.640899)"><g><path d="M 15.53125 -5.9375 C 13.941406 -5.140625 12.457031 -4.210938 11.113281 -3.035156 C 9.316406 -1.519531 7.59375 0.136719 5.867188 1.761719 C 4.519531 3.070312 3.175781 4.382812 1.585938 5.417969 C 0.964844 5.832031 0.277344 6.144531 -0.449219 6.316406 C -1.105469 6.417969 -1.242188 6.351562 -1.519531 5.761719 C -1.761719 5.210938 -1.792969 4.625 -1.792969 4.039062 C -1.863281 2.382812 -1.378906 0.828125 -0.898438 -0.691406 C -0.0351562 -3.3125 1.070312 -5.796875 2.3125 -8.214844 C 2.691406 -8.972656 3.105469 -9.699219 3.484375 -10.457031 L 3.519531 -10.457031 C 12.527344 -20.535156 21.5 -35.269531 21.707031 -37.753906 C 21.914062 -38.304688 21.1875 -39.515625 20.601562 -39.03125 C 20.328125 -38.789062 20.015625 -38.546875 19.773438 -38.273438 C 18.117188 -36.441406 16.496094 -34.578125 14.941406 -32.648438 C 13.113281 -30.402344 11.457031 -28.023438 9.871094 -25.570312 C 8.28125 -23.054688 6.730469 -20.566406 5.246094 -17.980469 C 3.554688 -15.082031 1.96875 -12.148438 0.484375 -9.144531 C -0.519531 -7.210938 -1.449219 -5.246094 -2.175781 -3.175781 C -2.863281 -1.171875 -3.347656 0.828125 -3.347656 2.96875 C -3.347656 3.796875 -3.175781 4.554688 -2.863281 5.28125 C -2.3125 6.660156 -1.035156 7.28125 0.414062 6.902344 C 0.691406 6.832031 0.964844 6.695312 1.242188 6.589844 C 2.105469 6.175781 2.828125 5.589844 3.554688 5.003906 C 5.730469 3.242188 7.695312 1.3125 9.699219 -0.621094 C 10.664062 -1.519531 11.628906 -2.484375 12.628906 -3.382812 C 13.804688 -4.417969 15.117188 -5.246094 16.667969 -5.9375 C 16.183594 -6.246094 15.839844 -6.109375 15.53125 -5.9375 Z M 6.039062 -15.148438 C 8.246094 -19.050781 10.59375 -22.84375 13.078125 -26.605469 C 15.046875 -29.539062 17.289062 -32.300781 19.464844 -35.097656 C 19.878906 -35.613281 20.292969 -36.132812 20.707031 -36.648438 C 19.914062 -34.925781 18.289062 -32.058594 15.769531 -28.089844 C 12.355469 -22.707031 8.523438 -17.460938 4.96875 -13.21875 C 5.316406 -13.875 5.695312 -14.527344 6.039062 -15.148438 Z M 6.039062 -15.148438 "/></g></g></g><g fill="#000000" fill-opacity="1"><g transform="translate(248.593506, 195.640899)"><g><path d="M 2.761719 -8.316406 C 2.3125 -8.695312 1.933594 -8.695312 1.484375 -8.28125 C 1.3125 -8.109375 1.140625 -7.9375 0.964844 -7.765625 C -1.140625 -4.933594 -2.796875 -1.933594 -3.140625 1.65625 C -3.277344 2.589844 -3.242188 3.519531 -3.035156 4.453125 C -2.863281 5.175781 -2.554688 5.902344 -2.070312 6.523438 C -1.105469 7.660156 -0.0351562 7.800781 1.207031 7.003906 C 1.414062 6.867188 1.621094 6.660156 1.828125 6.488281 C 3.589844 5.003906 5.140625 3.3125 6.730469 1.65625 C 8.660156 -0.378906 10.765625 -2.105469 13.320312 -3.347656 C 14.769531 -4.039062 16.152344 -4.796875 17.667969 -5.347656 C 17.808594 -5.382812 17.945312 -5.417969 17.910156 -5.589844 C 17.910156 -5.730469 17.773438 -5.796875 17.632812 -5.796875 C 17.359375 -5.832031 17.152344 -5.730469 16.945312 -5.625 C 16.152344 -5.28125 15.355469 -4.933594 14.597656 -4.554688 C 13.078125 -3.832031 11.492188 -3.175781 10.042969 -2.242188 C 7.9375 -0.964844 6.144531 0.726562 4.453125 2.519531 C 3.484375 3.484375 2.621094 4.554688 1.484375 5.316406 C 0.828125 5.761719 0.207031 6.210938 -0.621094 6.246094 C -1.242188 6.28125 -1.414062 6.144531 -1.554688 5.554688 C -1.726562 4.832031 -1.726562 4.105469 -1.65625 3.382812 C -1.378906 0.691406 -0.34375 -1.761719 1.035156 -4.070312 C 1.65625 -5.109375 2.3125 -6.039062 2.933594 -7.039062 C 3.242188 -7.558594 3.175781 -7.972656 2.761719 -8.316406 Z M 4.347656 -10.007812 C 4.660156 -9.90625 4.867188 -10.113281 4.832031 -10.421875 C 4.832031 -10.941406 4.246094 -11.457031 3.65625 -11.527344 C 3.347656 -11.5625 3.175781 -11.355469 3.277344 -11.042969 C 3.449219 -10.527344 3.863281 -10.179688 4.347656 -10.007812 Z M 4.347656 -10.007812 "/></g></g></g><g fill="#000000" fill-opacity="1"><g transform="translate(266.020301, 195.640899)"><g><path d="M 26.847656 -5.832031 C 26.640625 -5.867188 26.433594 -5.761719 26.261719 -5.660156 C 25.570312 -5.347656 24.917969 -5.003906 24.261719 -4.660156 C 22.605469 -3.863281 20.980469 -2.96875 19.222656 -2.382812 C 17.839844 -1.898438 16.425781 -1.449219 14.941406 -1.449219 C 13.320312 -1.449219 12.113281 -2.140625 11.25 -3.484375 C 11.113281 -3.726562 10.972656 -4.003906 10.835938 -4.246094 C 10.59375 -4.761719 10.320312 -5.210938 9.835938 -5.554688 C 9.144531 -6.109375 9.074219 -6.175781 8.488281 -5.554688 C 6.796875 -3.863281 5.140625 -2.140625 3.589844 -0.277344 C 1.96875 1.691406 0.414062 3.691406 -1.3125 5.554688 C -1.554688 5.796875 -1.761719 6.039062 -2.070312 6.246094 C -2.242188 5.902344 -2.140625 5.589844 -2.105469 5.316406 C -1.863281 4.105469 -1.484375 2.96875 -1.070312 1.792969 C -0.136719 -0.863281 1.242188 -3.3125 2.796875 -5.660156 C 3.003906 -6.003906 3.242188 -6.316406 3.417969 -6.660156 C 3.691406 -7.109375 3.65625 -7.246094 3.242188 -7.558594 C 2.621094 -8.074219 1.933594 -8.039062 1.277344 -7.523438 C 0.792969 -7.109375 0.414062 -6.589844 0.0703125 -6.074219 C -1.65625 -3.625 -2.691406 -0.898438 -3.449219 1.96875 C -3.726562 3.070312 -3.832031 4.246094 -3.796875 5.382812 C -3.796875 5.730469 -3.761719 6.074219 -3.65625 6.417969 C -3.347656 7.523438 -1.828125 7.9375 -1.171875 7.109375 C -0.828125 6.589844 -0.34375 6.210938 0.0351562 5.730469 C 2.070312 3.3125 4.003906 0.828125 6.074219 -1.554688 C 6.972656 -2.554688 7.902344 -3.554688 8.835938 -4.554688 C 9.179688 -4.933594 9.25 -4.933594 9.492188 -4.417969 C 9.59375 -4.175781 9.730469 -3.898438 9.90625 -3.65625 C 11.492188 -1.414062 13.664062 -0.519531 16.359375 -0.898438 C 18.152344 -1.140625 19.808594 -1.828125 21.429688 -2.589844 C 23.121094 -3.347656 24.742188 -4.210938 26.398438 -5.039062 C 26.605469 -5.140625 26.8125 -5.28125 27.019531 -5.382812 C 27.089844 -5.453125 27.195312 -5.523438 27.160156 -5.660156 C 27.125 -5.796875 26.988281 -5.832031 26.847656 -5.832031 Z M 26.847656 -5.832031 "/></g></g></g><g fill="#000000" fill-opacity="1"><g transform="translate(292.21225, 195.640899)"><g><path d="M 6.625 1.414062 C 9.871094 0.207031 16.566406 -4.902344 23.019531 -5.761719 C 22.8125 -6.210938 22.5 -6.210938 22.222656 -6.210938 C 16.597656 -5.589844 9.214844 -0.726562 7.039062 0.3125 C 6.074219 0.757812 5.074219 1.070312 3.96875 1.171875 C 3.175781 1.242188 2.449219 1.070312 1.898438 0.414062 C 0.585938 -1.277344 0.484375 -3.035156 1.347656 -4.933594 C 1.519531 -5.316406 1.726562 -5.523438 2.207031 -5.382812 C 2.863281 -5.210938 3.519531 -5.246094 4.175781 -5.453125 C 5.523438 -5.902344 6.625 -6.730469 7.625 -7.695312 C 7.800781 -7.867188 7.902344 -8.039062 8.007812 -8.246094 C 8.28125 -8.800781 8.179688 -9.351562 7.660156 -9.730469 C 6.832031 -10.320312 5.9375 -10.664062 4.933594 -10.351562 C 2.347656 -9.59375 0.378906 -8.074219 -0.585938 -5.488281 C -1.171875 -3.898438 -1 -2.382812 -0.171875 -1 C 1.519531 1.761719 3.519531 2.589844 6.625 1.414062 Z M 6.558594 -9.042969 C 6.144531 -7.765625 3.898438 -6.351562 2.519531 -6.488281 C 3.070312 -7.695312 5.316406 -9.109375 6.558594 -9.042969 Z M 6.558594 -9.042969 "/></g></g></g><g fill="#000000" fill-opacity="1"><g transform="translate(314.711787, 195.640899)"><g><path d="M -2.519531 10.941406 C -1.691406 11.007812 0 10.285156 0.691406 9.558594 C 0.792969 9.457031 1.035156 9.316406 0.863281 9.144531 C 0.691406 8.9375 0.484375 9.042969 0.34375 9.179688 C -0.207031 9.664062 -0.828125 9.972656 -1.484375 10.25 C -3.105469 10.972656 -4.039062 10.351562 -4.003906 8.558594 C -4.003906 7.351562 -3.589844 6.210938 -3.070312 5.109375 C -2.035156 2.898438 -0.65625 0.933594 0.65625 -1.070312 C 1.105469 -1.792969 1.519531 -2.519531 1.761719 -3.347656 C 1.898438 -3.796875 2.070312 -4.382812 1.726562 -4.695312 C 1 -5.417969 1.378906 -5.902344 1.96875 -6.417969 C 2.105469 -6.523438 2.175781 -6.730469 2.242188 -6.9375 C 2.3125 -7.144531 2.3125 -7.351562 2.140625 -7.488281 C 1.792969 -7.902344 1.347656 -8.109375 0.792969 -8.007812 C 0.136719 -7.867188 -0.34375 -7.488281 -0.519531 -6.796875 C -0.65625 -6.246094 -0.484375 -5.660156 -0.0351562 -5.347656 C 0.34375 -5.109375 0.378906 -4.832031 0.3125 -4.484375 C 0.242188 -3.832031 0 -3.242188 -0.34375 -2.691406 C -0.898438 -1.792969 -1.449219 -0.898438 -2 -0.0351562 C -3.003906 1.519531 -3.933594 3.070312 -4.589844 4.761719 C -5.109375 6.210938 -5.316406 7.660156 -4.832031 9.179688 C -4.519531 10.144531 -3.519531 10.90625 -2.519531 10.941406 Z M -2.519531 10.941406 "/></g></g></g><g fill="#794f42" fill-opacity="1"><g transform="translate(113.402862, 124.783228)"><g><path d="M -0.21875 -1.140625 C -0.0625 -1.335938 0.0351562 -1.5 0.078125 -1.625 C 0.128906 -1.75 0.113281 -1.894531 0.03125 -2.0625 C -0.0390625 -2.226562 -0.21875 -2.4375 -0.5 -2.6875 L -4.515625 -6.234375 C -4.898438 -6.578125 -5.203125 -6.867188 -5.421875 -7.109375 L -6.0625 -6.296875 L -6.875 -7.015625 L -4.203125 -10.078125 C -3.421875 -10.953125 -2.585938 -11.539062 -1.703125 -11.84375 C -0.828125 -12.144531 0.015625 -12.195312 0.828125 -12 C 1.640625 -11.8125 2.347656 -11.453125 2.953125 -10.921875 C 3.566406 -10.367188 4.035156 -9.695312 4.359375 -8.90625 C 4.679688 -8.125 4.753906 -7.257812 4.578125 -6.3125 C 4.410156 -5.375 3.921875 -4.445312 3.109375 -3.53125 L 0.46875 -0.53125 Z M 2.546875 -4.421875 C 2.972656 -4.910156 3.203125 -5.429688 3.234375 -5.984375 C 3.265625 -6.546875 3.140625 -7.085938 2.859375 -7.609375 C 2.585938 -8.128906 2.203125 -8.609375 1.703125 -9.046875 C 0.640625 -9.984375 -0.332031 -10.460938 -1.21875 -10.484375 C -2.113281 -10.503906 -2.910156 -10.117188 -3.609375 -9.328125 C -3.816406 -9.085938 -3.90625 -8.863281 -3.875 -8.65625 C -3.851562 -8.445312 -3.664062 -8.1875 -3.3125 -7.875 L 0.734375 -4.296875 C 1.117188 -3.953125 1.425781 -3.664062 1.65625 -3.4375 C 1.675781 -3.46875 1.734375 -3.535156 1.828125 -3.640625 L 2.234375 -4.078125 C 2.316406 -4.160156 2.421875 -4.273438 2.546875 -4.421875 Z M 2.546875 -4.421875 "/></g></g></g><g fill="#794f42" fill-opacity="1"><g transform="translate(126.942434, 110.902706)"><g><path d="M 0 -1.15625 C 0.195312 -1.320312 0.332031 -1.460938 0.40625 -1.578125 C 0.476562 -1.703125 0.488281 -1.847656 0.4375 -2.015625 C 0.394531 -2.191406 0.265625 -2.425781 0.046875 -2.71875 L -3.1875 -7 C -3.5 -7.40625 -3.738281 -7.753906 -3.90625 -8.046875 L -4.703125 -7.375 L -5.359375 -8.234375 L 0.21875 -12.46875 L 1.921875 -10.34375 L 1.1875 -9.78125 C 0.769531 -10.332031 0.347656 -10.613281 -0.078125 -10.625 C -0.503906 -10.644531 -0.894531 -10.503906 -1.25 -10.203125 L -1.65625 -9.890625 C -1.8125 -9.742188 -1.925781 -9.609375 -2 -9.484375 C -2.070312 -9.367188 -2.082031 -9.21875 -2.03125 -9.03125 C -1.988281 -8.851562 -1.863281 -8.628906 -1.65625 -8.359375 L -0.390625 -6.6875 L 0.90625 -7.671875 C 0.8125 -7.796875 0.554688 -8.109375 0.140625 -8.609375 L 1 -9.265625 L 3.0625 -6.546875 L 2.3125 -5.984375 C 2.082031 -6.285156 1.867188 -6.472656 1.671875 -6.546875 C 1.472656 -6.617188 1.28125 -6.617188 1.09375 -6.546875 C 0.914062 -6.472656 0.710938 -6.335938 0.484375 -6.140625 L 0.1875 -5.90625 L 1.578125 -4.078125 C 1.878906 -3.679688 2.113281 -3.34375 2.28125 -3.0625 L 3.78125 -4.1875 C 4.164062 -4.476562 4.390625 -4.851562 4.453125 -5.3125 C 4.515625 -5.769531 4.335938 -6.273438 3.921875 -6.828125 L 4.640625 -7.375 L 6.453125 -4.890625 L 0.5625 -0.421875 Z M 0 -1.15625 "/></g></g></g><g fill="#794f42" fill-opacity="1"><g transform="translate(141.382752, 100.96461)"><g><path d="M -2.109375 -7.234375 C -2.617188 -7.679688 -2.929688 -8.023438 -3.046875 -8.265625 L -3.71875 -7.890625 L -4.1875 -8.859375 L -0.46875 -10.671875 L -0.078125 -9.84375 C -0.628906 -9.59375 -0.816406 -9.28125 -0.640625 -8.90625 C -0.578125 -8.769531 -0.46875 -8.640625 -0.3125 -8.515625 L 2.21875 -6.234375 C 2.425781 -6.046875 2.703125 -5.796875 3.046875 -5.484375 C 3.148438 -5.367188 3.398438 -5.128906 3.796875 -4.765625 L 3.8125 -4.78125 L 3.578125 -6.828125 L 3.25 -9.90625 C 3.15625 -10.570312 3.144531 -11.039062 3.21875 -11.3125 L 3.203125 -11.328125 L 2.5625 -10.96875 L 2.265625 -10.796875 L 1.796875 -11.765625 L 4.625 -13.140625 L 5.015625 -12.3125 C 4.734375 -12.15625 4.539062 -11.921875 4.4375 -11.609375 C 4.332031 -11.296875 4.300781 -10.863281 4.34375 -10.3125 L 5.09375 -2.40625 L 4.0625 -1.90625 Z M -2.109375 -7.234375 "/></g></g></g><g fill="#794f42" fill-opacity="1"><g transform="translate(158.576193, 93.617448)"><g><path d="M 0.453125 -1.0625 C 0.691406 -1.144531 0.863281 -1.226562 0.96875 -1.3125 C 1.082031 -1.394531 1.148438 -1.523438 1.171875 -1.703125 C 1.203125 -1.878906 1.171875 -2.140625 1.078125 -2.484375 L -0.28125 -7.671875 C -0.414062 -8.179688 -0.503906 -8.601562 -0.546875 -8.9375 L -1.53125 -8.609375 L -1.8125 -9.640625 L 4.953125 -11.421875 L 5.734375 -8.828125 L 4.84375 -8.59375 C 4.664062 -9.269531 4.378906 -9.691406 3.984375 -9.859375 C 3.597656 -10.023438 3.179688 -10.039062 2.734375 -9.90625 L 2.234375 -9.765625 C 2.035156 -9.691406 1.878906 -9.613281 1.765625 -9.53125 C 1.648438 -9.457031 1.578125 -9.328125 1.546875 -9.140625 C 1.523438 -8.953125 1.554688 -8.691406 1.640625 -8.359375 L 2.171875 -6.328125 L 3.765625 -6.734375 C 3.722656 -6.890625 3.609375 -7.285156 3.421875 -7.921875 L 4.46875 -8.1875 L 5.328125 -4.890625 L 4.421875 -4.65625 C 4.328125 -5.019531 4.195312 -5.269531 4.03125 -5.40625 C 3.875 -5.550781 3.695312 -5.625 3.5 -5.625 C 3.3125 -5.625 3.070312 -5.582031 2.78125 -5.5 L 2.421875 -5.390625 L 3.015625 -3.171875 C 3.140625 -2.691406 3.226562 -2.289062 3.28125 -1.96875 L 5.09375 -2.4375 C 5.5625 -2.5625 5.910156 -2.820312 6.140625 -3.21875 C 6.378906 -3.613281 6.410156 -4.148438 6.234375 -4.828125 L 7.109375 -5.0625 L 7.828125 -2.0625 L 0.6875 -0.171875 Z M 0.453125 -1.0625 "/></g></g></g><g fill="#794f42" fill-opacity="1"><g transform="translate(175.755032, 89.968742)"><g><path d="M 0.640625 -0.96875 C 0.890625 -1 1.078125 -1.039062 1.203125 -1.09375 C 1.328125 -1.15625 1.421875 -1.269531 1.484375 -1.4375 C 1.546875 -1.613281 1.566406 -1.882812 1.546875 -2.25 L 1.171875 -7.59375 C 1.128906 -8.113281 1.117188 -8.539062 1.140625 -8.875 L 0.09375 -8.75 L 0.03125 -9.8125 L 4.03125 -10.09375 L 4.09375 -9.1875 C 3.84375 -9.15625 3.65625 -9.109375 3.53125 -9.046875 C 3.40625 -8.984375 3.304688 -8.863281 3.234375 -8.6875 C 3.171875 -8.519531 3.148438 -8.253906 3.171875 -7.890625 L 3.546875 -2.546875 C 3.578125 -2.046875 3.585938 -1.632812 3.578125 -1.3125 L 5.453125 -1.453125 C 6.015625 -1.492188 6.4375 -1.71875 6.71875 -2.125 C 7 -2.53125 7.113281 -3.101562 7.0625 -3.84375 L 8 -3.90625 L 8.140625 -0.5625 L 0.703125 -0.046875 Z M 0.640625 -0.96875 "/></g></g></g><g fill="#794f42" fill-opacity="1"><g transform="translate(192.988291, 89.534223)"><g><path d="M 5.28125 0.90625 C 4.175781 0.757812 3.289062 0.394531 2.625 -0.1875 C 1.96875 -0.769531 1.523438 -1.460938 1.296875 -2.265625 C 1.066406 -3.078125 1.007812 -3.921875 1.125 -4.796875 C 1.226562 -5.617188 1.515625 -6.394531 1.984375 -7.125 C 2.453125 -7.851562 3.085938 -8.421875 3.890625 -8.828125 C 4.703125 -9.242188 5.625 -9.382812 6.65625 -9.25 C 7.71875 -9.113281 8.578125 -8.742188 9.234375 -8.140625 C 9.898438 -7.535156 10.359375 -6.820312 10.609375 -6 C 10.859375 -5.175781 10.929688 -4.351562 10.828125 -3.53125 C 10.710938 -2.726562 10.421875 -1.957031 9.953125 -1.21875 C 9.484375 -0.476562 8.847656 0.09375 8.046875 0.5 C 7.242188 0.90625 6.320312 1.039062 5.28125 0.90625 Z M 5.5625 -0.09375 C 6.164062 -0.0078125 6.679688 -0.132812 7.109375 -0.46875 C 7.535156 -0.800781 7.867188 -1.242188 8.109375 -1.796875 C 8.359375 -2.347656 8.519531 -2.941406 8.59375 -3.578125 C 8.769531 -4.890625 8.671875 -5.960938 8.296875 -6.796875 C 7.929688 -7.640625 7.300781 -8.117188 6.40625 -8.234375 C 5.800781 -8.316406 5.273438 -8.191406 4.828125 -7.859375 C 4.390625 -7.523438 4.050781 -7.070312 3.8125 -6.5 C 3.570312 -5.925781 3.410156 -5.316406 3.328125 -4.671875 C 3.242188 -4.035156 3.25 -3.378906 3.34375 -2.703125 C 3.445312 -2.023438 3.679688 -1.441406 4.046875 -0.953125 C 4.410156 -0.460938 4.914062 -0.175781 5.5625 -0.09375 Z M 5.5625 -0.09375 "/></g></g></g><g fill="#794f42" fill-opacity="1"><g transform="translate(212.197455, 93.015014)"><g><path d="M 0.96875 -0.640625 C 1.195312 -0.578125 1.382812 -0.546875 1.53125 -0.546875 C 1.675781 -0.554688 1.804688 -0.625 1.921875 -0.75 C 2.046875 -0.882812 2.164062 -1.128906 2.28125 -1.484375 L 4.03125 -6.546875 C 4.195312 -7.035156 4.351562 -7.429688 4.5 -7.734375 L 3.5 -8.015625 L 3.84375 -9.03125 L 7.609375 -7.78125 C 8.796875 -7.382812 9.644531 -6.828125 10.15625 -6.109375 C 10.675781 -5.390625 10.765625 -4.546875 10.421875 -3.578125 C 10.253906 -3.066406 9.953125 -2.628906 9.515625 -2.265625 C 9.078125 -1.910156 8.519531 -1.679688 7.84375 -1.578125 C 7.175781 -1.484375 6.441406 -1.566406 5.640625 -1.828125 L 5.109375 -1.984375 L 4.671875 -2.15625 L 4.265625 -0.984375 C 4.085938 -0.484375 3.929688 -0.0820312 3.796875 0.21875 C 4.085938 0.28125 4.46875 0.394531 4.9375 0.5625 L 4.59375 1.578125 L 0.671875 0.234375 Z M 5.59375 -2.875 C 6.300781 -2.632812 6.878906 -2.632812 7.328125 -2.875 C 7.785156 -3.125 8.132812 -3.597656 8.375 -4.296875 C 8.820312 -5.585938 8.457031 -6.4375 7.28125 -6.84375 C 6.976562 -6.945312 6.726562 -6.957031 6.53125 -6.875 C 6.34375 -6.800781 6.175781 -6.546875 6.03125 -6.109375 L 5 -3.140625 C 5.175781 -3.046875 5.375 -2.957031 5.59375 -2.875 Z M 5.59375 -2.875 "/></g></g></g><g fill="#794f42" fill-opacity="1"><g transform="translate(228.701565, 99.57277)"><g><path d="M 1.0625 -0.453125 C 1.289062 -0.335938 1.472656 -0.269531 1.609375 -0.25 C 1.753906 -0.226562 1.898438 -0.269531 2.046875 -0.375 C 2.191406 -0.476562 2.351562 -0.691406 2.53125 -1.015625 L 5.203125 -5.65625 C 5.460938 -6.113281 5.6875 -6.472656 5.875 -6.734375 L 4.953125 -7.21875 L 5.484375 -8.15625 L 11.5625 -4.671875 L 10.28125 -2.265625 L 9.484375 -2.71875 C 9.828125 -3.320312 9.914062 -3.820312 9.75 -4.21875 C 9.59375 -4.613281 9.3125 -4.914062 8.90625 -5.125 L 8.453125 -5.390625 C 8.253906 -5.484375 8.085938 -5.539062 7.953125 -5.5625 C 7.816406 -5.582031 7.671875 -5.535156 7.515625 -5.421875 C 7.359375 -5.304688 7.195312 -5.097656 7.03125 -4.796875 L 5.984375 -2.984375 L 7.40625 -2.15625 C 7.488281 -2.300781 7.679688 -2.660156 7.984375 -3.234375 L 8.921875 -2.6875 L 7.234375 0.265625 L 6.421875 -0.203125 C 6.597656 -0.535156 6.679688 -0.804688 6.671875 -1.015625 C 6.660156 -1.222656 6.582031 -1.394531 6.4375 -1.53125 C 6.300781 -1.675781 6.101562 -1.820312 5.84375 -1.96875 L 5.5 -2.140625 L 4.359375 -0.140625 C 4.109375 0.285156 3.894531 0.632812 3.71875 0.90625 L 5.34375 1.84375 C 5.757812 2.082031 6.1875 2.140625 6.625 2.015625 C 7.070312 1.898438 7.46875 1.539062 7.8125 0.9375 L 8.609375 1.390625 L 7.015625 4.03125 L 0.609375 0.34375 Z M 1.0625 -0.453125 "/></g></g></g><g fill="#794f42" fill-opacity="1"><g transform="translate(243.489946, 108.997356)"><g><path d="M 1.140625 -0.234375 C 1.328125 -0.078125 1.488281 0.0195312 1.625 0.0625 C 1.757812 0.113281 1.910156 0.0976562 2.078125 0.015625 C 2.242188 -0.0546875 2.445312 -0.226562 2.6875 -0.5 L 6.203125 -4.546875 C 6.546875 -4.941406 6.835938 -5.253906 7.078125 -5.484375 L 6.25 -6.109375 L 6.953125 -6.921875 L 9.96875 -4.359375 C 10.945312 -3.523438 11.546875 -2.703125 11.765625 -1.890625 C 11.992188 -1.085938 11.773438 -0.300781 11.109375 0.46875 C 10.679688 0.957031 10.144531 1.25 9.5 1.34375 C 8.863281 1.445312 8.15625 1.320312 7.375 0.96875 C 7.46875 1.132812 7.523438 1.335938 7.546875 1.578125 C 7.578125 1.816406 7.570312 2.050781 7.53125 2.28125 L 7.390625 3.453125 C 7.304688 4.035156 7.28125 4.46875 7.3125 4.75 C 7.351562 5.03125 7.488281 5.269531 7.71875 5.46875 L 7.109375 6.171875 L 5.359375 4.65625 C 5.304688 4.46875 5.289062 4.238281 5.3125 3.96875 C 5.332031 3.707031 5.378906 3.382812 5.453125 3 L 5.78125 1.046875 C 5.84375 0.609375 5.867188 0.273438 5.859375 0.046875 L 5.3125 -0.4375 L 4.328125 0.6875 C 3.984375 1.09375 3.6875 1.40625 3.4375 1.625 C 3.6875 1.789062 4 2.039062 4.375 2.375 L 3.671875 3.1875 L 0.53125 0.46875 Z M 6.46875 -0.765625 C 7.050781 -0.253906 7.582031 -0.015625 8.0625 -0.046875 C 8.539062 -0.0859375 9.019531 -0.382812 9.5 -0.9375 C 10.007812 -1.519531 10.195312 -2.03125 10.0625 -2.46875 C 9.925781 -2.914062 9.675781 -3.300781 9.3125 -3.625 C 9.070312 -3.832031 8.847656 -3.929688 8.640625 -3.921875 C 8.429688 -3.921875 8.179688 -3.75 7.890625 -3.40625 L 6.015625 -1.25 C 6.191406 -1.03125 6.34375 -0.867188 6.46875 -0.765625 Z M 6.46875 -0.765625 "/></g></g></g><g fill="#794f42" fill-opacity="1"><g transform="translate(256.797408, 121.875925)"><g/></g></g><g clip-path="url(#id2)"><path fill="#000000" d="M 187.582031 62.90625 C 118.957031 62.90625 63.082031 118.777344 63.082031 187.40625 C 63.082031 256.035156 118.957031 311.90625 187.582031 311.90625 C 256.210938 311.90625 312.082031 256.035156 312.082031 187.40625 C 312.082031 118.777344 256.210938 62.90625 187.582031 62.90625 Z M 187.582031 310.066406 C 119.9375 310.066406 64.921875 255.054688 64.921875 187.40625 C 64.921875 119.757812 119.9375 64.746094 187.582031 64.746094 C 255.230469 64.746094 310.242188 119.757812 310.242188 187.40625 C 310.242188 255.054688 255.230469 310.066406 187.582031 310.066406 Z M 187.582031 310.066406 " fill-opacity="1" fill-rule="nonzero"/></g><g fill="#794f42" fill-opacity="1"><g transform="translate(92.391874, 238.546397)"><g/></g></g><g fill="#794f42" fill-opacity="1"><g transform="translate(99.03598, 251.41173)"><g><path d="M 6.8125 -3.328125 C 7.15625 -3.921875 7.425781 -4.285156 7.625 -4.421875 L 7.140625 -5 L 8.015625 -5.625 L 10.453125 -2.296875 L 9.703125 -1.765625 C 9.535156 -2.015625 9.367188 -2.171875 9.203125 -2.234375 C 9.046875 -2.304688 8.878906 -2.273438 8.703125 -2.140625 C 8.609375 -2.078125 8.5 -1.96875 8.375 -1.8125 L 6.3125 0.765625 C 6.25 0.816406 6.097656 0.988281 5.859375 1.28125 C 5.628906 1.570312 5.328125 1.910156 4.953125 2.296875 L 4.953125 2.3125 L 7.75 1.25 L 11.984375 -0.203125 L 12.71875 0.796875 L 9.515625 5.140625 C 9.242188 5.492188 8.800781 6.023438 8.1875 6.734375 L 8.203125 6.75 L 10.078125 6.03125 L 12.875 4.9375 C 13.445312 4.695312 13.910156 4.601562 14.265625 4.65625 L 14.265625 4.640625 L 13.796875 4.078125 L 13.578125 3.796875 L 14.453125 3.171875 L 16.3125 5.703125 L 15.5625 6.234375 C 15.363281 5.992188 15.097656 5.84375 14.765625 5.78125 C 14.429688 5.71875 14.003906 5.765625 13.484375 5.921875 L 6.125 8.5 L 5.390625 7.484375 L 8.4375 3.203125 C 8.71875 2.816406 9.097656 2.351562 9.578125 1.8125 C 9.640625 1.757812 9.71875 1.675781 9.8125 1.5625 L 9.796875 1.546875 C 9.265625 1.835938 8.695312 2.085938 8.09375 2.296875 L 2.921875 4.125 L 2.203125 3.140625 Z M 6.8125 -3.328125 "/></g></g></g><g fill="#794f42" fill-opacity="1"><g transform="translate(115.032376, 270.752329)"><g><path d="M 1.140625 -0.21875 C 1.335938 -0.0625 1.5 0.0351562 1.625 0.078125 C 1.757812 0.117188 1.90625 0.0976562 2.0625 0.015625 C 2.226562 -0.0546875 2.429688 -0.226562 2.671875 -0.5 L 6.21875 -4.515625 C 6.5625 -4.910156 6.851562 -5.210938 7.09375 -5.421875 L 6.28125 -6.078125 L 7 -6.890625 L 12.25 -2.265625 L 10.515625 -0.171875 L 9.828125 -0.78125 C 10.285156 -1.3125 10.476562 -1.785156 10.40625 -2.203125 C 10.332031 -2.617188 10.117188 -2.96875 9.765625 -3.25 L 9.359375 -3.59375 C 9.179688 -3.726562 9.023438 -3.816406 8.890625 -3.859375 C 8.765625 -3.910156 8.613281 -3.894531 8.4375 -3.8125 C 8.269531 -3.726562 8.078125 -3.554688 7.859375 -3.296875 L 6.46875 -1.71875 L 7.703125 -0.640625 C 7.796875 -0.765625 8.050781 -1.082031 8.46875 -1.59375 L 9.28125 -0.875 L 7.03125 1.6875 L 6.328125 1.0625 C 6.566406 0.78125 6.703125 0.535156 6.734375 0.328125 C 6.773438 0.117188 6.738281 -0.0625 6.625 -0.21875 C 6.519531 -0.382812 6.351562 -0.566406 6.125 -0.765625 L 5.828125 -1 L 4.3125 0.734375 C 3.976562 1.109375 3.691406 1.40625 3.453125 1.625 L 4.875 2.859375 C 5.226562 3.179688 5.632812 3.328125 6.09375 3.296875 C 6.550781 3.265625 7.007812 2.988281 7.46875 2.46875 L 8.15625 3.078125 L 6.078125 5.34375 L 0.53125 0.46875 Z M 1.140625 -0.21875 "/></g></g></g><g fill="#794f42" fill-opacity="1"><g transform="translate(130.326516, 282.85504)"><g><path d="M 1.078125 -0.4375 C 1.296875 -0.320312 1.472656 -0.253906 1.609375 -0.234375 C 1.742188 -0.210938 1.882812 -0.253906 2.03125 -0.359375 C 2.175781 -0.460938 2.34375 -0.671875 2.53125 -0.984375 L 5.234375 -5.609375 C 5.492188 -6.066406 5.726562 -6.421875 5.9375 -6.671875 L 5.015625 -7.171875 L 5.546875 -8.09375 L 8.90625 -6.171875 C 9.882812 -5.617188 10.539062 -5.003906 10.875 -4.328125 C 11.21875 -3.660156 11.191406 -2.984375 10.796875 -2.296875 C 10.554688 -1.898438 10.191406 -1.617188 9.703125 -1.453125 C 9.222656 -1.285156 8.648438 -1.300781 7.984375 -1.5 L 7.96875 -1.484375 C 8.675781 -0.898438 9.109375 -0.296875 9.265625 0.328125 C 9.429688 0.953125 9.359375 1.53125 9.046875 2.0625 C 8.597656 2.832031 7.976562 3.265625 7.1875 3.359375 C 6.40625 3.460938 5.578125 3.257812 4.703125 2.75 L 0.609375 0.359375 Z M 6.625 -2.515625 C 7.113281 -2.242188 7.546875 -2.191406 7.921875 -2.359375 C 8.296875 -2.535156 8.628906 -2.863281 8.921875 -3.34375 C 9.171875 -3.78125 9.238281 -4.164062 9.125 -4.5 C 9.007812 -4.84375 8.773438 -5.117188 8.421875 -5.328125 C 8.253906 -5.429688 8.109375 -5.488281 7.984375 -5.5 C 7.859375 -5.519531 7.71875 -5.472656 7.5625 -5.359375 C 7.40625 -5.242188 7.242188 -5.039062 7.078125 -4.75 L 5.984375 -2.875 Z M 3.671875 1 C 4.203125 1.300781 4.597656 1.519531 4.859375 1.65625 C 5.347656 1.914062 5.785156 1.972656 6.171875 1.828125 C 6.566406 1.691406 6.898438 1.390625 7.171875 0.921875 C 7.472656 0.410156 7.539062 -0.0390625 7.375 -0.4375 C 7.21875 -0.84375 6.914062 -1.175781 6.46875 -1.4375 C 6.03125 -1.695312 5.703125 -1.890625 5.484375 -2.015625 L 4.328125 -0.046875 C 4.066406 0.390625 3.847656 0.738281 3.671875 1 Z M 3.671875 1 "/></g></g></g><g fill="#794f42" fill-opacity="1"><g transform="translate(148.022576, 291.907049)"><g/></g></g><g fill="#794f42" fill-opacity="1"><g transform="translate(161.641545, 296.377895)"><g><path d="M 3.546875 0.921875 C 2.984375 0.816406 2.46875 0.617188 2 0.328125 C 1.539062 0.046875 1.195312 -0.3125 0.96875 -0.75 C 0.738281 -1.195312 0.679688 -1.703125 0.796875 -2.265625 C 0.910156 -2.867188 1.210938 -3.367188 1.703125 -3.765625 C 2.191406 -4.171875 2.773438 -4.425781 3.453125 -4.53125 C 3.097656 -5.101562 2.878906 -5.597656 2.796875 -6.015625 C 2.722656 -6.441406 2.734375 -6.875 2.828125 -7.3125 C 2.972656 -8 3.328125 -8.5 3.890625 -8.8125 C 4.453125 -9.132812 5.125 -9.21875 5.90625 -9.0625 C 6.375 -8.96875 6.769531 -8.785156 7.09375 -8.515625 C 7.414062 -8.242188 7.644531 -7.921875 7.78125 -7.546875 C 7.914062 -7.179688 7.941406 -6.804688 7.859375 -6.421875 C 7.753906 -5.890625 7.472656 -5.429688 7.015625 -5.046875 C 6.554688 -4.660156 6.003906 -4.359375 5.359375 -4.140625 C 5.390625 -4.054688 5.597656 -3.734375 5.984375 -3.171875 C 6.367188 -2.609375 6.753906 -2.054688 7.140625 -1.515625 L 7.15625 -1.5 C 7.238281 -1.675781 7.304688 -1.898438 7.359375 -2.171875 C 7.429688 -2.535156 7.421875 -2.804688 7.328125 -2.984375 C 7.234375 -3.171875 7.070312 -3.300781 6.84375 -3.375 L 7.015625 -4.25 L 9.328125 -3.78125 L 9.125 -2.765625 C 9 -2.796875 8.742188 -2.859375 8.359375 -2.953125 L 8.359375 -2.9375 C 8.421875 -2.695312 8.421875 -2.414062 8.359375 -2.09375 C 8.253906 -1.570312 8.066406 -1.09375 7.796875 -0.65625 L 7.96875 -0.4375 C 8.632812 0.414062 9.125 0.875 9.4375 0.9375 L 9.265625 1.84375 L 7.796875 1.546875 C 7.710938 1.523438 7.554688 1.414062 7.328125 1.21875 C 7.097656 1.019531 6.859375 0.78125 6.609375 0.5 C 6.179688 0.738281 5.703125 0.894531 5.171875 0.96875 C 4.648438 1.050781 4.109375 1.035156 3.546875 0.921875 Z M 4.890625 -4.984375 C 5.265625 -5.160156 5.582031 -5.425781 5.84375 -5.78125 C 6.101562 -6.132812 6.265625 -6.46875 6.328125 -6.78125 C 6.398438 -7.125 6.367188 -7.414062 6.234375 -7.65625 C 6.109375 -7.90625 5.910156 -8.054688 5.640625 -8.109375 C 5.378906 -8.160156 5.140625 -8.09375 4.921875 -7.90625 C 4.703125 -7.71875 4.554688 -7.429688 4.484375 -7.046875 C 4.429688 -6.765625 4.441406 -6.429688 4.515625 -6.046875 C 4.597656 -5.660156 4.722656 -5.304688 4.890625 -4.984375 Z M 4.1875 0.046875 C 4.851562 0.179688 5.46875 0.0820312 6.03125 -0.25 L 5.46875 -1.015625 C 4.757812 -1.972656 4.164062 -2.859375 3.6875 -3.671875 C 3.414062 -3.515625 3.195312 -3.296875 3.03125 -3.015625 C 2.863281 -2.742188 2.753906 -2.488281 2.703125 -2.25 C 2.578125 -1.632812 2.644531 -1.125 2.90625 -0.71875 C 3.175781 -0.320312 3.601562 -0.0664062 4.1875 0.046875 Z M 4.1875 0.046875 "/></g></g></g><g fill="#794f42" fill-opacity="1"><g transform="translate(181.453738, 299.154239)"><g/></g></g><g fill="#794f42" fill-opacity="1"><g transform="translate(195.822189, 298.937796)"><g><path d="M 0.5625 -1 C 0.800781 -1.050781 0.984375 -1.113281 1.109375 -1.1875 C 1.234375 -1.257812 1.316406 -1.382812 1.359375 -1.5625 C 1.410156 -1.738281 1.410156 -2.007812 1.359375 -2.375 L 0.59375 -7.671875 C 0.507812 -8.179688 0.46875 -8.597656 0.46875 -8.921875 L -0.5625 -8.71875 L -0.71875 -9.78125 L 3.3125 -10.390625 C 4.46875 -10.554688 5.476562 -10.46875 6.34375 -10.125 C 7.207031 -9.789062 7.890625 -9.289062 8.390625 -8.625 C 8.890625 -7.957031 9.195312 -7.222656 9.3125 -6.421875 C 9.425781 -5.597656 9.347656 -4.78125 9.078125 -3.96875 C 8.816406 -3.164062 8.316406 -2.460938 7.578125 -1.859375 C 6.847656 -1.253906 5.875 -0.859375 4.65625 -0.671875 L 0.703125 -0.09375 Z M 4.8125 -1.71875 C 5.457031 -1.8125 5.96875 -2.0625 6.34375 -2.46875 C 6.726562 -2.882812 6.984375 -3.378906 7.109375 -3.953125 C 7.242188 -4.535156 7.265625 -5.148438 7.171875 -5.796875 C 6.960938 -7.191406 6.519531 -8.1875 5.84375 -8.78125 C 5.175781 -9.375 4.320312 -9.597656 3.28125 -9.453125 C 2.957031 -9.398438 2.738281 -9.285156 2.625 -9.109375 C 2.519531 -8.929688 2.503906 -8.609375 2.578125 -8.140625 L 3.359375 -2.796875 C 3.429688 -2.285156 3.472656 -1.867188 3.484375 -1.546875 C 3.515625 -1.566406 3.597656 -1.582031 3.734375 -1.59375 L 4.328125 -1.671875 C 4.460938 -1.679688 4.625 -1.695312 4.8125 -1.71875 Z M 4.8125 -1.71875 "/></g></g></g><g fill="#794f42" fill-opacity="1"><g transform="translate(216.818334, 294.691349)"><g><path d="M 0.34375 -1.109375 C 0.582031 -1.191406 0.75 -1.28125 0.84375 -1.375 C 0.945312 -1.476562 1.007812 -1.617188 1.03125 -1.796875 C 1.050781 -1.972656 1 -2.234375 0.875 -2.578125 L -0.9375 -7.625 C -1.113281 -8.113281 -1.238281 -8.519531 -1.3125 -8.84375 L -2.28125 -8.4375 L -2.65625 -9.453125 L 3.9375 -11.8125 L 4.9375 -9.28125 L 4.0625 -8.96875 C 3.832031 -9.625 3.515625 -10.023438 3.109375 -10.171875 C 2.703125 -10.316406 2.289062 -10.300781 1.875 -10.125 L 1.390625 -9.9375 C 1.191406 -9.84375 1.035156 -9.75 0.921875 -9.65625 C 0.816406 -9.5625 0.757812 -9.414062 0.75 -9.21875 C 0.75 -9.03125 0.804688 -8.773438 0.921875 -8.453125 L 1.625 -6.484375 L 3.171875 -7.046875 C 3.109375 -7.179688 2.957031 -7.5625 2.71875 -8.1875 L 3.734375 -8.546875 L 4.875 -5.328125 L 4 -5.015625 C 3.875 -5.367188 3.722656 -5.609375 3.546875 -5.734375 C 3.378906 -5.859375 3.195312 -5.914062 3 -5.90625 C 2.8125 -5.894531 2.578125 -5.832031 2.296875 -5.71875 L 1.953125 -5.578125 L 2.71875 -3.40625 C 2.894531 -2.9375 3.019531 -2.546875 3.09375 -2.234375 L 4.859375 -2.875 C 5.304688 -3.03125 5.628906 -3.316406 5.828125 -3.734375 C 6.035156 -4.148438 6.023438 -4.6875 5.796875 -5.34375 L 6.640625 -5.640625 L 7.625 -2.734375 L 0.65625 -0.234375 Z M 0.34375 -1.109375 "/></g></g></g><g fill="#794f42" fill-opacity="1"><g transform="translate(234.782392, 287.163168)"><g><path d="M 3.8125 -1.984375 C 3.476562 -1.796875 3.09375 -1.644531 2.65625 -1.53125 C 2.226562 -1.414062 1.800781 -1.359375 1.375 -1.359375 L 1.375 -1.34375 L 1.703125 -0.859375 L 0.78125 -0.3125 L -0.875 -3.140625 L -0.078125 -3.609375 C 0.410156 -3.003906 0.957031 -2.644531 1.5625 -2.53125 C 2.175781 -2.414062 2.773438 -2.53125 3.359375 -2.875 C 3.765625 -3.113281 4.039062 -3.421875 4.1875 -3.796875 C 4.332031 -4.179688 4.3125 -4.53125 4.125 -4.84375 C 3.96875 -5.101562 3.742188 -5.273438 3.453125 -5.359375 C 3.171875 -5.441406 2.882812 -5.46875 2.59375 -5.4375 C 2.3125 -5.414062 1.878906 -5.363281 1.296875 -5.28125 C 0.179688 -5.113281 -0.734375 -5.113281 -1.453125 -5.28125 C -2.179688 -5.457031 -2.757812 -5.910156 -3.1875 -6.640625 C -3.414062 -7.015625 -3.539062 -7.429688 -3.5625 -7.890625 C -3.582031 -8.347656 -3.453125 -8.816406 -3.171875 -9.296875 C -2.890625 -9.773438 -2.414062 -10.210938 -1.75 -10.609375 C -1.40625 -10.816406 -1.007812 -10.976562 -0.5625 -11.09375 C -0.125 -11.207031 0.269531 -11.25 0.625 -11.21875 L 0.640625 -11.234375 L 0.296875 -11.6875 L 1.25 -12.234375 L 2.90625 -9.421875 L 2.109375 -8.953125 C 1.597656 -9.554688 1.0625 -9.925781 0.5 -10.0625 C -0.0625 -10.195312 -0.613281 -10.101562 -1.15625 -9.78125 C -1.519531 -9.5625 -1.769531 -9.273438 -1.90625 -8.921875 C -2.050781 -8.578125 -2.039062 -8.257812 -1.875 -7.96875 C -1.664062 -7.613281 -1.34375 -7.398438 -0.90625 -7.328125 C -0.46875 -7.265625 0.191406 -7.296875 1.078125 -7.421875 C 2.078125 -7.578125 2.953125 -7.59375 3.703125 -7.46875 C 4.460938 -7.351562 5.046875 -6.945312 5.453125 -6.25 C 5.734375 -5.769531 5.851562 -5.269531 5.8125 -4.75 C 5.78125 -4.226562 5.59375 -3.726562 5.25 -3.25 C 4.90625 -2.769531 4.425781 -2.347656 3.8125 -1.984375 Z M 3.8125 -1.984375 "/></g></g></g><g fill="#794f42" fill-opacity="1"><g transform="translate(250.627213, 276.637479)"><g><path d="M -0.0625 -1.15625 C 0.125 -1.332031 0.25 -1.476562 0.3125 -1.59375 C 0.382812 -1.71875 0.390625 -1.867188 0.328125 -2.046875 C 0.273438 -2.222656 0.128906 -2.453125 -0.109375 -2.734375 L -3.5625 -6.8125 C -3.90625 -7.207031 -4.164062 -7.539062 -4.34375 -7.8125 L -5.109375 -7.109375 L -5.796875 -7.921875 L -2.734375 -10.515625 L -2.140625 -9.8125 C -2.316406 -9.65625 -2.4375 -9.515625 -2.5 -9.390625 C -2.570312 -9.265625 -2.582031 -9.113281 -2.53125 -8.9375 C -2.476562 -8.757812 -2.335938 -8.53125 -2.109375 -8.25 L 1.359375 -4.15625 C 1.691406 -3.757812 1.945312 -3.425781 2.125 -3.15625 C 2.332031 -3.375 2.585938 -3.613281 2.890625 -3.875 L 3.59375 -3.046875 L 0.53125 -0.453125 Z M -0.0625 -1.15625 "/></g></g></g><g fill="#794f42" fill-opacity="1"><g transform="translate(262.455154, 265.646877)"><g><path d="M 3.515625 -3.9375 C 2.878906 -3.164062 2.164062 -2.640625 1.375 -2.359375 C 0.59375 -2.085938 -0.207031 -2.046875 -1.03125 -2.234375 C -1.863281 -2.421875 -2.644531 -2.8125 -3.375 -3.40625 C -4.0625 -3.96875 -4.597656 -4.644531 -4.984375 -5.4375 C -5.378906 -6.238281 -5.535156 -7.082031 -5.453125 -7.96875 C -5.378906 -8.863281 -5.019531 -9.707031 -4.375 -10.5 C -4.113281 -10.820312 -3.773438 -11.140625 -3.359375 -11.453125 C -2.941406 -11.765625 -2.539062 -11.988281 -2.15625 -12.125 L -2.140625 -12.140625 L -2.609375 -12.453125 L -1.9375 -13.296875 L 0.578125 -11.234375 L 0 -10.515625 C -0.65625 -10.910156 -1.285156 -11.050781 -1.890625 -10.9375 C -2.503906 -10.832031 -3.023438 -10.523438 -3.453125 -10.015625 C -3.835938 -9.535156 -4.023438 -9.007812 -4.015625 -8.4375 C -4.003906 -7.875 -3.832031 -7.316406 -3.5 -6.765625 C -3.175781 -6.210938 -2.742188 -5.71875 -2.203125 -5.28125 C -1.234375 -4.488281 -0.289062 -4.046875 0.625 -3.953125 C 1.550781 -3.867188 2.300781 -4.179688 2.875 -4.890625 C 3.070312 -5.117188 3.265625 -5.40625 3.453125 -5.75 C 3.648438 -6.09375 3.773438 -6.398438 3.828125 -6.671875 L 2.828125 -7.5 C 2.421875 -7.832031 2.101562 -8.109375 1.875 -8.328125 C 1.738281 -8.140625 1.601562 -7.957031 1.46875 -7.78125 L 1.25 -7.484375 L 0.40625 -8.171875 L 2.765625 -11.0625 L 3.484375 -10.484375 C 3.347656 -10.296875 3.257812 -10.128906 3.21875 -9.984375 C 3.175781 -9.847656 3.203125 -9.695312 3.296875 -9.53125 C 3.390625 -9.375 3.566406 -9.1875 3.828125 -8.96875 L 5.578125 -7.546875 L 5.375 -7.296875 C 5.238281 -7.128906 5.117188 -6.953125 5.015625 -6.765625 C 4.910156 -6.578125 4.800781 -6.328125 4.6875 -6.015625 C 4.488281 -5.535156 4.304688 -5.148438 4.140625 -4.859375 C 3.984375 -4.566406 3.773438 -4.257812 3.515625 -3.9375 Z M 3.515625 -3.9375 "/></g></g></g><g fill="#794f42" fill-opacity="1"><g transform="translate(275.130466, 248.388462)"><g><path d="M -3.28125 -5.828125 C -3.65625 -5.742188 -4.085938 -5.671875 -4.578125 -5.609375 L -0.71875 -3.625 C -0.25 -3.394531 0.117188 -3.191406 0.390625 -3.015625 C 0.503906 -3.285156 0.65625 -3.601562 0.84375 -3.96875 L 1.796875 -3.46875 L 0.328125 -0.640625 L -0.484375 -1.0625 C -0.378906 -1.289062 -0.316406 -1.472656 -0.296875 -1.609375 C -0.285156 -1.742188 -0.335938 -1.882812 -0.453125 -2.03125 C -0.578125 -2.175781 -0.800781 -2.332031 -1.125 -2.5 L -5.890625 -4.9375 C -6.441406 -5.226562 -6.804688 -5.4375 -6.984375 -5.5625 L -7.4375 -4.59375 L -8.390625 -5.09375 L -7.390625 -7.046875 L -0.625 -8.375 C 0.0078125 -8.476562 0.554688 -8.566406 1.015625 -8.640625 L -2.9375 -10.671875 C -3.46875 -10.953125 -3.832031 -11.160156 -4.03125 -11.296875 L -4.46875 -10.34375 L -5.421875 -10.84375 L -3.96875 -13.671875 L -3.15625 -13.25 C -3.257812 -13.019531 -3.316406 -12.835938 -3.328125 -12.703125 C -3.335938 -12.566406 -3.285156 -12.425781 -3.171875 -12.28125 C -3.054688 -12.132812 -2.835938 -11.976562 -2.515625 -11.8125 L 4.40625 -8.234375 L 3.859375 -7.171875 Z M -3.28125 -5.828125 "/></g></g></g></svg>