<svg xmlns="http://www.w3.org/2000/svg" xmlns:xlink="http://www.w3.org/1999/xlink" width="500" zoomAndPan="magnify" viewBox="0 0 375 374.999991" height="500" preserveAspectRatio="xMidYMid meet" version="1.0"><defs><g/></defs><g fill="#464a4e" fill-opacity="1"><g transform="translate(83.728884, 237.399718)"><g><path d="M 8.210938 -2.257812 C 8.476562 -2.132812 8.648438 -2.269531 8.707031 -2.511719 C 12.019531 -11.355469 22.191406 -30.191406 26.859375 -31.894531 C 27.378906 -32.082031 27.644531 -31.957031 27.761719 -31.632812 C 28.210938 -30.402344 26.828125 -27.546875 25.195312 -24.164062 C 23.136719 -19.742188 20.640625 -14.5 21.796875 -11.320312 C 22.292969 -9.960938 23.550781 -9.535156 25.171875 -10.128906 C 27.308594 -10.90625 30.496094 -14.050781 32.984375 -16.5 C 33.683594 -17.195312 34.34375 -17.804688 34.898438 -18.296875 C 35.003906 -18.410156 35.023438 -18.5625 34.949219 -18.757812 C 34.878906 -18.953125 34.703125 -19.035156 34.507812 -18.964844 L 34.3125 -18.894531 C 33.761719 -18.398438 33.125 -17.726562 32.421875 -17.03125 C 29.9375 -14.582031 26.832031 -11.613281 24.886719 -10.90625 C 23.65625 -10.457031 22.90625 -10.699219 22.574219 -11.605469 C 21.535156 -14.457031 23.84375 -19.410156 25.90625 -23.832031 C 27.535156 -27.21875 29.042969 -30.339844 28.476562 -31.894531 C 28.191406 -32.671875 27.507812 -32.9375 26.601562 -32.605469 C 22.839844 -31.234375 15.992188 -20 11.511719 -10.730469 C 10.871094 -9.46875 10.609375 -9.375 11.117188 -10.808594 C 12.070312 -13.429688 13.136719 -15.949219 14.078125 -18.203125 C 15.878906 -22.53125 17.355469 -25.933594 16.765625 -27.554688 C 16.386719 -28.589844 15.507812 -28.785156 14.082031 -28.265625 C 10.90625 -27.105469 5.644531 -22.398438 3.667969 -17.347656 C 3.625 -17.257812 3.671875 -17.128906 3.695312 -17.0625 C 3.765625 -16.867188 4.03125 -16.746094 4.226562 -16.816406 C 4.292969 -16.839844 4.398438 -16.953125 4.4375 -17.039062 C 6.335938 -21.917969 11.316406 -26.375 14.367188 -27.488281 C 15.402344 -27.863281 15.796875 -27.789062 15.988281 -27.269531 C 16.484375 -25.910156 15.195312 -22.792969 13.304688 -18.507812 C 11.460938 -14.089844 9.148438 -8.546875 7.890625 -2.730469 C 7.832031 -2.488281 7.96875 -2.316406 8.210938 -2.257812 Z M 8.210938 -2.257812 "/></g></g></g><g fill="#464a4e" fill-opacity="1"><g transform="translate(118.801745, 224.618928)"><g><path d="M 1.621094 -10.0625 C 1.75 -10.109375 1.816406 -10.136719 1.832031 -10.289062 L 1.996094 -10.640625 C 2.074219 -11.035156 2.214844 -11.457031 2.296875 -11.632812 C 2.339844 -11.722656 2.289062 -11.851562 2.265625 -11.914062 C 2.195312 -12.109375 1.996094 -12.257812 1.800781 -12.1875 C 1.671875 -12.140625 1.566406 -12.027344 1.523438 -11.9375 C 1.464844 -11.695312 1.347656 -11.214844 1.25 -10.882812 L 1.082031 -10.53125 C 1.042969 -10.441406 1.066406 -10.375 1.113281 -10.246094 C 1.183594 -10.050781 1.425781 -9.992188 1.621094 -10.0625 Z M 0.660156 0.199219 C 2.863281 -0.601562 8.515625 -6.261719 11.210938 -9.742188 C 11.253906 -9.828125 11.269531 -9.980469 11.222656 -10.113281 C 11.152344 -10.304688 10.976562 -10.390625 10.714844 -10.292969 L 10.523438 -10.222656 C 7.953125 -6.789062 2.386719 -1.308594 0.375 -0.578125 C -0.335938 -0.316406 -0.753906 -0.460938 -0.992188 -1.109375 C -1.320312 -2.015625 -0.570312 -4.785156 0.808594 -7.859375 C 0.847656 -7.945312 0.890625 -8.035156 0.84375 -8.164062 C 0.773438 -8.359375 0.53125 -8.417969 0.335938 -8.347656 C 0.207031 -8.300781 0.140625 -8.277344 0.101562 -8.1875 C -1.402344 -4.851562 -2.152344 -2.078125 -1.703125 -0.847656 C -1.328125 0.191406 -0.441406 0.601562 0.660156 0.199219 Z M 0.660156 0.199219 "/></g></g></g><g fill="#464a4e" fill-opacity="1"><g transform="translate(130.146944, 220.484661)"><g><path d="M 1.867188 -0.3125 C 5.371094 -1.589844 10.402344 -5.917969 13.933594 -10.734375 C 14.039062 -10.84375 14.058594 -10.996094 14.011719 -11.128906 C 13.941406 -11.320312 13.699219 -11.382812 13.503906 -11.308594 C 13.4375 -11.285156 13.375 -11.261719 13.332031 -11.175781 C 9.816406 -6.515625 4.957031 -2.320312 1.585938 -1.089844 C 0.160156 -0.570312 -0.453125 -0.640625 -0.785156 -1.550781 L -0.972656 -2.070312 C -1.246094 -4.027344 0.449219 -7.433594 2.070312 -8.023438 C 2.328125 -8.117188 2.570312 -8.058594 2.640625 -7.867188 C 2.742188 -7.386719 2.460938 -6.550781 2.058594 -6.039062 C 2.019531 -5.949219 1.9375 -5.773438 1.984375 -5.644531 C 2.054688 -5.449219 2.320312 -5.324219 2.511719 -5.394531 C 2.578125 -5.417969 2.621094 -5.507812 2.683594 -5.53125 C 3.296875 -6.269531 3.589844 -7.476562 3.308594 -8.253906 C 3.09375 -8.839844 2.5 -9.0625 1.785156 -8.800781 C -0.160156 -8.09375 -2.125 -4.21875 -1.734375 -1.9375 C -1.703125 -1.65625 -1.632812 -1.460938 -1.5625 -1.265625 C -1.066406 0.09375 0.0546875 0.347656 1.867188 -0.3125 Z M 1.867188 -0.3125 "/></g></g><g transform="translate(144.279816, 215.334546)"><g><path d="M -0.199219 0.660156 C 1.875 -0.09375 2.609375 -4.328125 1.296875 -6.714844 C 1.25 -6.84375 1.269531 -7 1.445312 -6.914062 C 6.054688 -5.953125 11.140625 -7.511719 13.804688 -10.683594 C 13.910156 -10.796875 13.992188 -10.972656 13.945312 -11.105469 C 13.875 -11.296875 13.632812 -11.355469 13.4375 -11.285156 L 13.246094 -11.214844 C 10.792969 -8.265625 6.160156 -6.871094 1.90625 -7.671875 C 1.75 -7.6875 1.726562 -7.753906 1.832031 -7.867188 C 1.875 -7.953125 2.003906 -8 2.046875 -8.089844 C 2.242188 -8.160156 2.257812 -8.3125 2.1875 -8.507812 C 2.117188 -8.703125 1.914062 -8.851562 1.722656 -8.777344 C 1.65625 -8.753906 1.589844 -8.730469 1.617188 -8.667969 C 1.316406 -8.484375 1.039062 -8.234375 0.824219 -8.011719 C 0.71875 -7.898438 0.71875 -7.898438 0.566406 -7.917969 C 0.285156 -7.886719 0.09375 -7.597656 0.0585938 -7.292969 C 0.0820312 -7.226562 0.0195312 -7.203125 0.0429688 -7.140625 C -1.730469 -4.949219 -2.636719 -2.195312 -1.976562 -0.382812 C -1.644531 0.527344 -0.976562 0.945312 -0.199219 0.660156 Z M -0.460938 -0.0546875 C -0.785156 0.0664062 -1.074219 -0.125 -1.261719 -0.640625 C -1.804688 -2.132812 -1 -4.554688 0.5625 -6.519531 C 1.640625 -4.5625 1.097656 -0.621094 -0.460938 -0.0546875 Z M -0.460938 -0.0546875 "/></g></g></g><g fill="#464a4e" fill-opacity="1"><g transform="translate(158.283033, 210.231678)"><g><path d="M 1.429688 2.710938 C 3.957031 1.789062 9.816406 -4.898438 13.933594 -10.734375 C 13.976562 -10.820312 14.015625 -10.910156 13.96875 -11.039062 C 13.898438 -11.234375 13.699219 -11.382812 13.503906 -11.308594 C 13.375 -11.261719 13.308594 -11.238281 13.269531 -11.152344 C 8.667969 -4.628906 3.242188 1.242188 1.167969 1.996094 C 0.0664062 2.398438 -0.351562 2.257812 -0.683594 1.351562 C -1.15625 0.0546875 -1.046875 -2.261719 -0.40625 -5.140625 C 8.183594 -15.832031 21.296875 -39.707031 19.925781 -43.464844 C 19.617188 -44.308594 18.933594 -44.574219 18.027344 -44.242188 C 12.582031 -42.257812 -4.183594 -6.039062 -1.394531 1.609375 C -0.921875 2.90625 -0.0625 3.253906 1.429688 2.710938 Z M 0.046875 -6.921875 C 3.351562 -20.023438 14.265625 -42.066406 18.285156 -43.53125 C 18.804688 -43.71875 19.070312 -43.59375 19.210938 -43.207031 C 20.347656 -40.09375 8.828125 -18.492188 0.046875 -6.921875 Z M 0.046875 -6.921875 "/></g></g><g transform="translate(172.415905, 205.081563)"><g><path d="M 1.429688 2.710938 C 3.957031 1.789062 9.816406 -4.898438 13.933594 -10.734375 C 13.976562 -10.820312 14.015625 -10.910156 13.96875 -11.039062 C 13.898438 -11.234375 13.699219 -11.382812 13.503906 -11.308594 C 13.375 -11.261719 13.308594 -11.238281 13.269531 -11.152344 C 8.667969 -4.628906 3.242188 1.242188 1.167969 1.996094 C 0.0664062 2.398438 -0.351562 2.257812 -0.683594 1.351562 C -1.15625 0.0546875 -1.046875 -2.261719 -0.40625 -5.140625 C 8.183594 -15.832031 21.296875 -39.707031 19.925781 -43.464844 C 19.617188 -44.308594 18.933594 -44.574219 18.027344 -44.242188 C 12.582031 -42.257812 -4.183594 -6.039062 -1.394531 1.609375 C -0.921875 2.90625 -0.0625 3.253906 1.429688 2.710938 Z M 0.046875 -6.921875 C 3.351562 -20.023438 14.265625 -42.066406 18.285156 -43.53125 C 18.804688 -43.71875 19.070312 -43.59375 19.210938 -43.207031 C 20.347656 -40.09375 8.828125 -18.492188 0.046875 -6.921875 Z M 0.046875 -6.921875 "/></g></g></g><g fill="#464a4e" fill-opacity="1"><g transform="translate(186.548777, 199.931449)"><g/></g><g transform="translate(200.876138, 194.710461)"><g><path d="M 8.152344 -0.402344 C 11.003906 -1.441406 13.621094 -4.742188 15.449219 -8.789062 C 19.605469 -10.082031 23.082031 -12.230469 25.941406 -15.472656 C 26.046875 -15.585938 26.0625 -15.738281 26.015625 -15.871094 C 25.921875 -16.128906 25.746094 -16.210938 25.550781 -16.140625 L 25.355469 -16.070312 C 22.816406 -13.160156 19.859375 -11.203125 15.839844 -9.738281 C 17.863281 -14.660156 18.707031 -20.402344 17.355469 -24.316406 C 16.40625 -27.128906 14.148438 -28.289062 11.488281 -27.320312 C 7.144531 -25.738281 3.265625 -20.0625 3.988281 -14.453125 C 2.320312 -10.761719 1.417969 -6.390625 2.460938 -3.320312 C 3.367188 -0.640625 5.6875 0.496094 8.152344 -0.402344 Z M 14.90625 -9.472656 C 10.097656 -8.160156 6.507812 -9.347656 5.304688 -12.65625 C 5.089844 -13.238281 4.941406 -13.84375 4.792969 -14.453125 C 6.09375 -17.128906 7.84375 -19.382812 9.542969 -20.367188 C 9.671875 -20.414062 9.796875 -20.679688 9.722656 -20.875 C 9.652344 -21.070312 9.410156 -21.128906 9.21875 -21.058594 L 9.152344 -21.035156 C 7.5625 -20.160156 6 -18.195312 4.671875 -15.800781 C 4.601562 -20.625 7.945312 -25.148438 11.773438 -26.542969 C 13.976562 -27.34375 15.792969 -26.390625 16.578125 -24.035156 C 17.929688 -20.121094 16.957031 -14.332031 14.90625 -9.472656 Z M 7.867188 -1.179688 C 5.792969 -0.421875 3.976562 -1.375 3.175781 -3.582031 C 2.292969 -6.199219 2.910156 -9.945312 4.28125 -13.238281 C 4.335938 -12.890625 4.429688 -12.628906 4.523438 -12.371094 C 5.351562 -10.101562 8.230469 -7.039062 14.453125 -8.5 C 12.742188 -4.9375 10.332031 -2.078125 7.867188 -1.179688 Z M 7.867188 -1.179688 "/></g></g></g><g fill="#464a4e" fill-opacity="1"><g transform="translate(226.808013, 185.260709)"><g><path d="M 1.429688 2.710938 C 3.957031 1.789062 9.816406 -4.898438 13.933594 -10.734375 C 13.976562 -10.820312 14.015625 -10.910156 13.96875 -11.039062 C 13.898438 -11.234375 13.699219 -11.382812 13.503906 -11.308594 C 13.375 -11.261719 13.308594 -11.238281 13.269531 -11.152344 C 8.667969 -4.628906 3.242188 1.242188 1.167969 1.996094 C 0.0664062 2.398438 -0.351562 2.257812 -0.683594 1.351562 C -1.15625 0.0546875 -1.046875 -2.261719 -0.40625 -5.140625 C 8.183594 -15.832031 21.296875 -39.707031 19.925781 -43.464844 C 19.617188 -44.308594 18.933594 -44.574219 18.027344 -44.242188 C 12.582031 -42.257812 -4.183594 -6.039062 -1.394531 1.609375 C -0.921875 2.90625 -0.0625 3.253906 1.429688 2.710938 Z M 0.046875 -6.921875 C 3.351562 -20.023438 14.265625 -42.066406 18.285156 -43.53125 C 18.804688 -43.71875 19.070312 -43.59375 19.210938 -43.207031 C 20.347656 -40.09375 8.828125 -18.492188 0.046875 -6.921875 Z M 0.046875 -6.921875 "/></g></g><g transform="translate(240.940885, 180.110594)"><g><path d="M 1.621094 -10.0625 C 1.75 -10.109375 1.816406 -10.136719 1.832031 -10.289062 L 1.996094 -10.640625 C 2.074219 -11.035156 2.214844 -11.457031 2.296875 -11.632812 C 2.339844 -11.722656 2.289062 -11.851562 2.265625 -11.914062 C 2.195312 -12.109375 1.996094 -12.257812 1.800781 -12.1875 C 1.671875 -12.140625 1.566406 -12.027344 1.523438 -11.9375 C 1.464844 -11.695312 1.347656 -11.214844 1.25 -10.882812 L 1.082031 -10.53125 C 1.042969 -10.441406 1.066406 -10.375 1.113281 -10.246094 C 1.183594 -10.050781 1.425781 -9.992188 1.621094 -10.0625 Z M 0.660156 0.199219 C 2.863281 -0.601562 8.515625 -6.261719 11.210938 -9.742188 C 11.253906 -9.828125 11.269531 -9.980469 11.222656 -10.113281 C 11.152344 -10.304688 10.976562 -10.390625 10.714844 -10.292969 L 10.523438 -10.222656 C 7.953125 -6.789062 2.386719 -1.308594 0.375 -0.578125 C -0.335938 -0.316406 -0.753906 -0.460938 -0.992188 -1.109375 C -1.320312 -2.015625 -0.570312 -4.785156 0.808594 -7.859375 C 0.847656 -7.945312 0.890625 -8.035156 0.84375 -8.164062 C 0.773438 -8.359375 0.53125 -8.417969 0.335938 -8.347656 C 0.207031 -8.300781 0.140625 -8.277344 0.101562 -8.1875 C -1.402344 -4.851562 -2.152344 -2.078125 -1.703125 -0.847656 C -1.328125 0.191406 -0.441406 0.601562 0.660156 0.199219 Z M 0.660156 0.199219 "/></g></g><g transform="translate(252.28608, 175.976328)"><g><path d="M -1.628906 7.421875 C 0.121094 6.785156 3.054688 0.722656 4.640625 -4.1875 C 5.328125 -3.925781 6.199219 -3.949219 7.171875 -4.300781 C 10.542969 -5.53125 13.828125 -9.003906 15.554688 -11.324219 C 15.660156 -11.433594 15.679688 -11.589844 15.632812 -11.71875 C 15.5625 -11.914062 15.320312 -11.972656 15.125 -11.902344 L 14.929688 -11.828125 C 13.203125 -9.511719 10.089844 -6.171875 6.910156 -5.015625 C 6.070312 -4.707031 5.390625 -4.753906 4.882812 -4.9375 C 5.558594 -7.3125 5.941406 -9.289062 5.632812 -10.132812 C 5.46875 -10.585938 5.027344 -10.792969 4.507812 -10.601562 C 3.210938 -10.128906 2.542969 -7.535156 3.179688 -5.785156 C 3.34375 -5.332031 3.574219 -4.902344 3.886719 -4.648438 C 2.382812 0.0859375 -0.460938 6.191406 -1.886719 6.710938 C -2.015625 6.757812 -2.257812 6.699219 -2.355469 6.4375 C -3.132812 4.300781 -0.746094 -4.0625 0.15625 -6.226562 L 0.125 -6.507812 C 0.0546875 -6.703125 -0.210938 -6.828125 -0.40625 -6.753906 C -0.46875 -6.730469 -0.578125 -6.621094 -0.617188 -6.53125 C -1.519531 -4.367188 -4.003906 4.324219 -3.132812 6.722656 C -2.871094 7.4375 -2.277344 7.660156 -1.628906 7.421875 Z M 4.171875 -5.484375 C 4.097656 -5.679688 3.964844 -5.851562 3.890625 -6.046875 C 3.421875 -7.339844 3.949219 -9.515625 4.726562 -9.800781 C 4.855469 -9.847656 4.855469 -9.847656 4.878906 -9.785156 C 5.09375 -9.199219 4.8125 -7.554688 4.171875 -5.484375 Z M 4.171875 -5.484375 "/></g></g><g transform="translate(268.039694, 170.235604)"><g><path d="M 2.210938 -0.585938 C 4.21875 -1.316406 9.847656 -5.425781 13.15625 -10.449219 C 13.261719 -10.5625 13.28125 -10.714844 13.234375 -10.84375 C 13.160156 -11.039062 12.921875 -11.097656 12.726562 -11.027344 C 12.660156 -11.003906 12.597656 -10.980469 12.554688 -10.890625 C 9.261719 -6.019531 3.808594 -2.046875 1.925781 -1.363281 C 0.4375 -0.820312 -0.484375 -0.925781 -0.792969 -1.769531 C -1.097656 -2.609375 -0.828125 -3.882812 -0.316406 -5.097656 C 0.144531 -5.046875 0.6875 -5.171875 1.398438 -5.429688 C 2.566406 -5.855469 3.703125 -7.371094 3.394531 -8.214844 C 3.160156 -8.863281 2.5625 -9.085938 1.851562 -8.828125 C -0.289062 -8.046875 -2.347656 -3.625 -1.570312 -1.484375 C -1.097656 -0.1875 0.332031 0.101562 2.210938 -0.585938 Z M 1.140625 -6.144531 C 0.6875 -5.976562 0.335938 -5.925781 0.0546875 -5.894531 C 0.636719 -6.914062 1.355469 -7.765625 2.132812 -8.046875 C 2.457031 -8.167969 2.613281 -8.148438 2.683594 -7.953125 C 2.824219 -7.566406 1.851562 -6.402344 1.140625 -6.144531 Z M 1.140625 -6.144531 "/></g></g></g><g fill="#464a4e" fill-opacity="1"><g transform="translate(281.329774, 165.392608)"><g><path d="M 3.394531 6.695312 C 7.285156 5.277344 15.894531 -6.160156 20.675781 -13.191406 C 20.71875 -13.277344 20.734375 -13.429688 20.6875 -13.5625 C 20.617188 -13.753906 20.441406 -13.835938 20.179688 -13.742188 C 20.117188 -13.71875 20.050781 -13.695312 20.011719 -13.609375 C 15.292969 -6.601562 6.804688 4.570312 3.109375 5.917969 C 2.332031 6.199219 1.980469 6.035156 1.742188 5.386719 C 1.058594 3.507812 3.183594 -0.941406 5.226562 -5.207031 C 6.996094 -9.011719 8.792969 -12.75 8.226562 -14.308594 C 7.941406 -15.085938 6.84375 -15.273438 5.367188 -15.910156 C 6.859375 -19.464844 7.800781 -22.523438 7.472656 -23.433594 C 7.304688 -23.886719 6.929688 -24.117188 6.472656 -23.949219 C 4.464844 -23.21875 1.179688 -18.128906 1.769531 -16.507812 C 1.980469 -15.925781 2.796875 -15.707031 4.246094 -15.355469 C 2.933594 -12.304688 1.109375 -8.847656 -0.800781 -6.023438 C -0.839844 -5.9375 -0.859375 -5.78125 -0.835938 -5.71875 C -0.742188 -5.457031 -0.5625 -5.375 -0.371094 -5.445312 C -0.238281 -5.492188 -0.175781 -5.519531 -0.132812 -5.605469 C 1.585938 -8.140625 3.558594 -11.796875 5.035156 -15.199219 C 6.664062 -14.765625 7.28125 -14.476562 7.449219 -14.023438 C 7.898438 -12.792969 6.289062 -9.34375 4.492188 -5.601562 C 2.476562 -1.269531 0.226562 3.441406 1.03125 5.648438 C 1.40625 6.683594 2.164062 7.144531 3.394531 6.695312 Z M 4.574219 -16.0625 C 3.125 -16.414062 2.59375 -16.660156 2.546875 -16.789062 C 2.144531 -17.894531 4.824219 -22.027344 6.457031 -22.988281 C 6.628906 -23.125 6.804688 -23.042969 6.8125 -22.824219 C 6.757812 -21.558594 5.417969 -17.984375 4.574219 -16.0625 Z M 4.574219 -16.0625 "/></g></g></g><g fill="#464a4e" fill-opacity="1"><g transform="translate(85.482365, 179.363596)"><g><path d="M 0.269531 -2.207031 L 0.394531 -3.222656 L -9.808594 -6.546875 L -9.804688 -6.578125 L 0.894531 -7.351562 L 1.019531 -8.351562 L -9.863281 -11.757812 L -9.945312 -11.089844 L 0.277344 -7.960938 L 0.273438 -7.929688 L -10.429688 -7.121094 L -10.550781 -6.136719 L -0.347656 -2.832031 L -0.351562 -2.796875 L -11.03125 -2.183594 L -11.113281 -1.515625 Z M 0.269531 -2.207031 "/></g></g></g><g fill="#464a4e" fill-opacity="1"><g transform="translate(89.633769, 157.125501)"><g><path d="M 0.304688 -0.910156 L 1.816406 -5.449219 L 1.226562 -5.644531 L -0.0820312 -1.730469 L -4.738281 -3.285156 L -3.6875 -6.441406 L -4.261719 -6.632812 L -5.316406 -3.476562 L -9.535156 -4.882812 L -8.277344 -8.648438 L -8.871094 -8.84375 L -10.332031 -4.460938 Z M 0.304688 -0.910156 "/></g></g></g><g fill="#464a4e" fill-opacity="1"><g transform="translate(96.39856, 140.218734)"><g><path d="M 0.464844 -0.839844 L 1.644531 -2.964844 C 2.660156 -4.800781 2.246094 -6.328125 0.550781 -7.265625 C -0.761719 -7.996094 -1.992188 -7.855469 -2.894531 -6.855469 L -2.910156 -6.863281 C -2.625 -7.96875 -3.128906 -8.941406 -4.277344 -9.578125 C -5.859375 -10.453125 -7.226562 -10.09375 -8.109375 -8.5 L -9.34375 -6.277344 Z M -4.589844 -4.390625 L -8.480469 -6.546875 L -7.5625 -8.199219 C -6.882812 -9.429688 -5.8125 -9.675781 -4.582031 -8.996094 C -3.347656 -8.3125 -2.992188 -7.273438 -3.691406 -6.015625 Z M 0.238281 -1.714844 L -4.042969 -4.089844 L -3.199219 -5.613281 C -2.367188 -7.109375 -1.164062 -7.46875 0.207031 -6.707031 C 1.578125 -5.949219 1.921875 -4.75 1.089844 -3.253906 Z M 0.238281 -1.714844 "/></g></g></g><g fill="#464a4e" fill-opacity="1"><g transform="translate(106.753839, 124.013466)"><g/></g></g><g fill="#464a4e" fill-opacity="1"><g transform="translate(116.378044, 113.191209)"><g><path d="M 0.714844 -0.640625 L 2.257812 -2.011719 C 4.714844 -4.207031 4.042969 -6.667969 1.835938 -9.140625 C -0.367188 -11.613281 -2.746094 -12.574219 -5.207031 -10.382812 L -6.746094 -9.007812 Z M 0.789062 -1.539062 L -5.84375 -8.980469 L -4.792969 -9.917969 C -2.628906 -11.84375 -0.613281 -10.878906 1.347656 -8.703125 C 3.308594 -6.53125 4.003906 -4.40625 1.839844 -2.476562 Z M 0.789062 -1.539062 "/></g></g></g><g fill="#464a4e" fill-opacity="1"><g transform="translate(132.134458, 100.780119)"><g><path d="M 0.824219 -0.492188 L 4.925781 -2.953125 L 4.605469 -3.488281 L 1.066406 -1.367188 L -1.460938 -5.578125 L 1.394531 -7.289062 L 1.082031 -7.808594 L -1.773438 -6.101562 L -4.058594 -9.914062 L -0.652344 -11.953125 L -0.976562 -12.488281 L -4.941406 -10.113281 Z M 0.824219 -0.492188 "/></g></g></g><g fill="#464a4e" fill-opacity="1"><g transform="translate(148.277013, 92.35071)"><g><path d="M 2.878906 -1.070312 L 3.75 -1.394531 L 2.554688 -12.914062 L 1.925781 -12.679688 L 3.082031 -1.949219 L 3.050781 -1.9375 L -3.113281 -10.804688 L -3.757812 -10.566406 Z M 2.878906 -1.070312 "/></g></g></g><g fill="#464a4e" fill-opacity="1"><g transform="translate(166.564868, 86.777002)"><g><path d="M 0.945312 -0.164062 L 5.65625 -0.984375 L 5.550781 -1.597656 L 1.484375 -0.890625 L 0.644531 -5.730469 L 3.921875 -6.300781 L 3.816406 -6.898438 L 0.539062 -6.328125 L -0.222656 -10.710938 L 3.6875 -11.390625 L 3.578125 -12.003906 L -0.976562 -11.210938 Z M 0.945312 -0.164062 "/></g></g></g><g fill="#464a4e" fill-opacity="1"><g transform="translate(184.694223, 84.742396)"><g><path d="M 0.960938 0.00390625 L 4.960938 0.0117188 L 4.960938 -0.613281 L 1.617188 -0.621094 L 1.644531 -11.210938 L 0.988281 -11.210938 Z M 0.960938 0.00390625 "/></g></g></g><g fill="#464a4e" fill-opacity="1"><g transform="translate(201.847787, 85.744017)"><g><path d="M 4.207031 1 C 6.515625 1.441406 8.316406 -0.394531 9.003906 -3.996094 C 9.691406 -7.578125 8.695312 -9.949219 6.386719 -10.390625 C 4.074219 -10.832031 2.273438 -8.996094 1.601562 -5.394531 C 0.933594 -1.808594 1.929688 0.5625 4.207031 1 Z M 4.328125 0.371094 C 2.441406 0.0117188 1.636719 -2.082031 2.246094 -5.269531 C 2.859375 -8.476562 4.378906 -10.125 6.265625 -9.761719 C 8.167969 -9.398438 8.957031 -7.308594 8.34375 -4.105469 C 7.734375 -0.914062 6.226562 0.734375 4.328125 0.371094 Z M 4.328125 0.371094 "/></g></g></g><g fill="#464a4e" fill-opacity="1"><g transform="translate(221.878554, 90.858985)"><g><path d="M 0.890625 0.359375 L 1.5 0.605469 L 3.277344 -3.800781 L 4.878906 -3.15625 C 6.628906 -2.449219 8.25 -3.175781 8.980469 -4.984375 C 9.710938 -6.796875 9.046875 -8.441406 7.28125 -9.15625 L 5.085938 -10.039062 Z M 3.515625 -4.394531 L 5.460938 -9.21875 L 7.019531 -8.589844 C 8.425781 -8.019531 8.964844 -6.699219 8.371094 -5.230469 C 7.78125 -3.761719 6.46875 -3.203125 5.074219 -3.765625 Z M 3.515625 -4.394531 "/></g></g></g><g fill="#464a4e" fill-opacity="1"><g transform="translate(238.907601, 98.944579)"><g><path d="M 0.808594 0.515625 L 4.847656 3.078125 L 5.183594 2.554688 L 1.699219 0.339844 L 4.332031 -3.804688 L 7.140625 -2.019531 L 7.464844 -2.535156 L 4.65625 -4.320312 L 7.042969 -8.074219 L 10.390625 -5.945312 L 10.726562 -6.472656 L 6.824219 -8.949219 Z M 0.808594 0.515625 "/></g></g></g><g fill="#464a4e" fill-opacity="1"><g transform="translate(253.678803, 109.589705)"><g><path d="M 4.449219 4.421875 C 4.730469 4.683594 5.191406 4.847656 5.804688 4.636719 L 5.785156 4.027344 C 5.359375 4.199219 5.085938 4.164062 4.933594 4.019531 C 4.726562 3.824219 4.828125 3.546875 5.109375 3.132812 L 6.171875 1.453125 C 6.65625 0.703125 6.890625 -0.0625 6.605469 -0.8125 L 6.617188 -0.824219 C 7.890625 0.0390625 9.328125 -0.261719 10.378906 -1.382812 C 11.722656 -2.820312 11.628906 -4.480469 10.132812 -5.878906 L 8.359375 -7.539062 L 0.703125 0.65625 L 1.179688 1.101562 L 4.554688 -2.507812 L 5.609375 -1.527344 C 6.367188 -0.816406 6.265625 0.136719 5.671875 1.03125 L 4.519531 2.824219 C 4.132812 3.425781 3.996094 3.996094 4.449219 4.421875 Z M 4.980469 -2.964844 L 8.410156 -6.636719 L 9.671875 -5.457031 C 10.890625 -4.320312 10.96875 -3 9.863281 -1.816406 C 8.785156 -0.660156 7.460938 -0.648438 6.242188 -1.785156 Z M 4.980469 -2.964844 "/></g></g></g><g fill="#464a4e" fill-opacity="1"><g transform="translate(135.503119, 285.936158)"><g><path d="M 6.347656 0.78125 C 7.019531 0.21875 7.71875 -0.539062 8.304688 -1.320312 L 8.09375 -2.050781 C 7.550781 -1.285156 6.882812 -0.507812 6.1875 0.09375 L 5.492188 -3.71875 C 7.351562 -3.902344 8.394531 -4.417969 8.980469 -5.59375 C 9.605469 -6.820312 9.324219 -8.085938 8.179688 -8.652344 C 6.960938 -9.257812 5.789062 -8.664062 5.078125 -7.230469 C 4.59375 -6.257812 4.59375 -5.183594 4.726562 -4.296875 C 3.167969 -4.070312 2.210938 -3.367188 1.617188 -2.179688 C 0.894531 -0.71875 1.289062 0.855469 2.636719 1.523438 C 3.660156 2.015625 4.753906 1.828125 5.761719 1.167969 L 6.101562 3.035156 L 6.832031 3.398438 Z M 5.671875 -6.953125 C 6.214844 -8.042969 7.027344 -8.53125 7.914062 -8.089844 C 8.703125 -7.695312 8.855469 -6.78125 8.394531 -5.851562 C 7.902344 -4.898438 7 -4.453125 5.390625 -4.304688 C 5.253906 -5.214844 5.273438 -6.152344 5.671875 -6.953125 Z M 2.957031 0.953125 C 1.941406 0.445312 1.644531 -0.753906 2.214844 -1.902344 C 2.691406 -2.859375 3.46875 -3.457031 4.847656 -3.679688 L 5.640625 0.515625 C 4.761719 1.167969 3.832031 1.386719 2.957031 0.953125 Z M 2.957031 0.953125 "/></g></g></g><g fill="#464a4e" fill-opacity="1"><g transform="translate(154.925806, 294.08241)"><g/></g></g><g fill="#464a4e" fill-opacity="1"><g transform="translate(170.299829, 297.771638)"><g><path d="M 0.953125 0.117188 L 3 0.367188 C 6.273438 0.769531 7.679688 -1.359375 8.082031 -4.648438 C 8.488281 -7.933594 7.640625 -10.359375 4.371094 -10.761719 L 2.320312 -11.011719 Z M 1.679688 -0.421875 L 2.894531 -10.3125 L 4.292969 -10.140625 C 7.167969 -9.789062 7.773438 -7.636719 7.429688 -4.726562 C 7.089844 -1.820312 5.949219 0.101562 3.078125 -0.25 Z M 1.679688 -0.421875 "/></g></g></g><g fill="#464a4e" fill-opacity="1"><g transform="translate(191.786842, 299.041977)"><g><path d="M 0.957031 -0.0625 L 5.730469 -0.378906 L 5.6875 -1 L 1.570312 -0.730469 L 1.246094 -5.628906 L 4.566406 -5.847656 L 4.527344 -6.457031 L 1.207031 -6.234375 L 0.914062 -10.675781 L 4.871094 -10.9375 L 4.832031 -11.558594 L 0.21875 -11.253906 Z M 0.957031 -0.0625 "/></g></g></g><g fill="#464a4e" fill-opacity="1"><g transform="translate(211.26999, 296.552598)"><g><path d="M 3.566406 -0.710938 C 5.285156 -1.148438 6.222656 -2.59375 5.792969 -4.28125 C 5.433594 -5.628906 4.5625 -6.328125 2.910156 -6.652344 L 1.398438 -6.945312 C 0.199219 -7.183594 -0.417969 -7.734375 -0.683594 -8.773438 C -0.976562 -9.921875 -0.613281 -10.953125 0.566406 -11.253906 C 1.804688 -11.570312 2.734375 -10.71875 3.191406 -8.984375 L 3.75 -9.324219 C 3.261719 -11.230469 2.019531 -12.285156 0.40625 -11.875 C -1.171875 -11.472656 -1.691406 -10.070312 -1.316406 -8.597656 C -0.980469 -7.277344 -0.207031 -6.582031 1.265625 -6.300781 L 2.742188 -6.015625 C 4.15625 -5.714844 4.882812 -5.140625 5.148438 -4.085938 C 5.480469 -2.785156 4.773438 -1.679688 3.410156 -1.332031 C 1.90625 -0.949219 0.550781 -1.792969 0.046875 -3.761719 L -0.539062 -3.410156 C -0.00390625 -1.304688 1.644531 -0.222656 3.566406 -0.710938 Z M 3.566406 -0.710938 "/></g></g></g><g fill="#464a4e" fill-opacity="1"><g transform="translate(230.691632, 290.259835)"><g><path d="M 0.878906 -0.386719 L 1.476562 -0.652344 L -3.054688 -10.910156 L -3.65625 -10.644531 Z M 0.878906 -0.386719 "/></g></g></g><g fill="#464a4e" fill-opacity="1"><g transform="translate(244.980087, 282.949116)"><g><path d="M 3.601562 -2.183594 C 4.835938 -3.011719 5.257812 -4.371094 4.738281 -6.0625 L 4.75 -6.074219 L 6.113281 -4.097656 L 6.617188 -4.433594 L 3.214844 -9.511719 L -0.730469 -6.867188 L -0.382812 -6.347656 L 3.019531 -8.628906 C 4.765625 -6.023438 4.933594 -3.84375 3.324219 -2.769531 C 1.714844 -1.667969 -0.378906 -2.75 -2.105469 -5.328125 C -3.871094 -7.960938 -4.140625 -10.203125 -2.660156 -11.179688 C -1.675781 -11.839844 -0.234375 -11.414062 0.917969 -10.128906 L 1.335938 -10.621094 C -0.00390625 -12.128906 -1.765625 -12.546875 -3.015625 -11.710938 C -4.847656 -10.480469 -4.621094 -7.898438 -2.652344 -4.964844 C -0.703125 -2.050781 1.703125 -0.910156 3.601562 -2.183594 Z M 3.601562 -2.183594 "/></g></g></g><g fill="#464a4e" fill-opacity="1"><g transform="translate(262.565848, 269.482586)"><g><path d="M 0.675781 -0.679688 L 1.140625 -1.144531 L -6.28125 -8.539062 L -6.257812 -8.5625 L 3.726562 -3.738281 L 4.484375 -4.5 L -3.460938 -12.414062 L -3.933594 -11.9375 L 3.476562 -4.554688 L 3.453125 -4.53125 L -6.519531 -9.34375 L -7.265625 -8.597656 Z M 0.675781 -0.679688 "/></g></g></g><g fill="#464a4e" fill-opacity="1"><g transform="translate(276.305099, 253.85311)"><g><path d="M 0.539062 -0.792969 L 3.234375 -4.746094 L 2.722656 -5.097656 L 0.394531 -1.6875 L -3.664062 -4.453125 L -1.785156 -7.203125 L -2.289062 -7.546875 L -4.164062 -4.796875 L -7.839844 -7.300781 L -5.601562 -10.578125 L -6.117188 -10.929688 L -8.722656 -7.113281 Z M 0.539062 -0.792969 "/></g></g></g><g fill="#464a4e" fill-opacity="1"><g transform="translate(286.36914, 236.974738)"><g><path d="M 2.695312 -5.667969 C 2.847656 -6.019531 2.851562 -6.503906 2.445312 -7.015625 L 1.878906 -6.792969 C 2.179688 -6.449219 2.238281 -6.179688 2.152344 -5.988281 C 2.039062 -5.726562 1.746094 -5.734375 1.257812 -5.859375 L -0.675781 -6.304688 C -1.546875 -6.511719 -2.347656 -6.480469 -2.960938 -5.960938 L -2.972656 -5.96875 C -2.582031 -7.457031 -3.339844 -8.714844 -4.75 -9.332031 C -6.550781 -10.121094 -8.085938 -9.484375 -8.910156 -7.609375 L -9.886719 -5.382812 L 0.386719 -0.878906 L 0.648438 -1.480469 L -3.878906 -3.464844 L -3.300781 -4.78125 C -2.882812 -5.734375 -1.949219 -5.953125 -0.910156 -5.691406 L 1.164062 -5.203125 C 1.859375 -5.035156 2.441406 -5.09375 2.695312 -5.667969 Z M -4.449219 -3.714844 L -9.050781 -5.730469 L -8.355469 -7.3125 C -7.6875 -8.835938 -6.46875 -9.351562 -4.988281 -8.703125 C -3.539062 -8.066406 -3.089844 -6.820312 -3.757812 -5.296875 Z M -4.449219 -3.714844 "/></g></g></g></svg>