<svg xmlns="http://www.w3.org/2000/svg" xmlns:xlink="http://www.w3.org/1999/xlink" width="500" zoomAndPan="magnify" viewBox="0 0 375 374.999991" height="500" preserveAspectRatio="xMidYMid meet" version="1.0"><defs><g/><clipPath id="id1"><path d="M 50 58 L 318 58 L 318 325 L 50 325 Z M 50 58 " clip-rule="nonzero"/></clipPath><clipPath id="id2"><path d="M 188.445312 1.929688 L 334.148438 154.199219 L 140.148438 339.824219 L -5.550781 187.554688 Z M 188.445312 1.929688 " clip-rule="nonzero"/></clipPath><clipPath id="id3"><path d="M 188.445312 1.929688 L 374.074219 195.925781 L 180.074219 381.550781 L -5.550781 187.554688 Z M 188.445312 1.929688 " clip-rule="nonzero"/></clipPath><clipPath id="id4"><path d="M 243.648438 211.566406 L 257.148438 211.566406 L 257.148438 225.066406 L 243.648438 225.066406 Z M 243.648438 211.566406 " clip-rule="nonzero"/></clipPath></defs><g clip-path="url(#id1)"><g clip-path="url(#id2)"><g clip-path="url(#id3)"><path fill="#000000" d="M 245.46875 307.484375 C 234.742188 313.039062 223.203125 316.882812 211.429688 319.222656 C 201.792969 321.074219 192.011719 322.054688 182.21875 322.007812 C 180.914062 322.039062 179.613281 321.921875 178.3125 321.875 C 177.011719 321.808594 175.707031 321.777344 174.40625 321.675781 L 170.515625 321.320312 L 168.566406 321.140625 L 166.632812 320.878906 L 162.757812 320.359375 C 161.46875 320.15625 160.191406 319.902344 158.90625 319.679688 C 156.328125 319.28125 153.800781 318.652344 151.246094 318.105469 C 150.878906 318.027344 150.496094 317.941406 150.09375 317.855469 C 149.699219 317.746094 149.289062 317.632812 148.859375 317.519531 C 148.003906 317.28125 147.082031 317.027344 146.105469 316.757812 C 144.128906 316.261719 141.984375 315.492188 139.613281 314.710938 C 139.027344 314.507812 138.417969 314.324219 137.808594 314.09375 C 137.203125 313.859375 136.589844 313.617188 135.960938 313.371094 C 134.707031 312.878906 133.40625 312.367188 132.0625 311.839844 C 129.453125 310.625 126.609375 309.476562 123.792969 307.945312 C 112.3125 302.265625 99.96875 293.269531 89.496094 282.414062 C 79.113281 271.472656 70.671875 258.746094 65.5 247.027344 C 64.097656 244.144531 63.074219 241.253906 61.976562 238.589844 C 61.507812 237.226562 61.054688 235.90625 60.617188 234.632812 C 60.402344 233.992188 60.1875 233.367188 59.976562 232.753906 C 59.773438 232.136719 59.617188 231.519531 59.441406 230.921875 C 58.761719 228.523438 58.089844 226.34375 57.679688 224.347656 C 57.453125 223.359375 57.242188 222.425781 57.046875 221.5625 C 56.945312 221.128906 56.851562 220.714844 56.761719 220.3125 C 56.691406 219.910156 56.625 219.519531 56.5625 219.152344 C 54.777344 209.519531 53.859375 199.738281 53.972656 189.945312 C 54.199219 179.515625 55.703125 169.144531 58.097656 158.980469 C 60.953125 147.316406 65.304688 135.960938 71.324219 125.488281 C 77.222656 114.941406 84.847656 105.378906 93.535156 96.921875 C 102.367188 88.617188 112.257812 81.417969 123.054688 75.996094 C 133.78125 70.441406 145.316406 66.597656 157.09375 64.253906 C 166.726562 62.40625 176.507812 61.425781 186.300781 61.472656 C 187.605469 61.441406 188.90625 61.554688 190.210938 61.601562 C 191.511719 61.671875 192.816406 61.703125 194.113281 61.800781 L 198.007812 62.160156 L 199.953125 62.335938 L 201.890625 62.601562 L 205.765625 63.121094 C 207.050781 63.324219 208.328125 63.578125 209.613281 63.796875 C 212.191406 64.199219 214.722656 64.828125 217.273438 65.371094 C 217.640625 65.453125 218.023438 65.539062 218.425781 65.625 C 218.820312 65.734375 219.234375 65.84375 219.660156 65.960938 C 220.515625 66.195312 221.4375 66.449219 222.417969 66.722656 C 224.390625 67.21875 226.539062 67.988281 228.90625 68.765625 C 229.496094 68.96875 230.105469 69.15625 230.710938 69.386719 C 231.316406 69.621094 231.933594 69.863281 232.5625 70.109375 C 233.816406 70.601562 235.117188 71.113281 236.457031 71.640625 C 239.070312 72.851562 241.914062 74.003906 244.726562 75.53125 C 256.210938 81.214844 268.550781 90.210938 279.027344 101.066406 C 289.40625 112.007812 297.847656 124.734375 303.019531 136.453125 C 304.421875 139.335938 305.445312 142.222656 306.542969 144.890625 C 307.011719 146.25 307.464844 147.574219 307.902344 148.847656 C 308.121094 149.484375 308.335938 150.113281 308.542969 150.726562 C 308.746094 151.34375 308.902344 151.960938 309.082031 152.558594 C 309.757812 154.957031 310.429688 157.136719 310.839844 159.128906 C 311.066406 160.121094 311.277344 161.050781 311.476562 161.917969 C 311.574219 162.347656 311.667969 162.765625 311.757812 163.167969 C 311.828125 163.570312 311.894531 163.957031 311.960938 164.328125 C 313.746094 173.960938 314.660156 183.742188 314.546875 193.535156 C 314.324219 203.964844 312.816406 214.335938 310.421875 224.5 C 307.566406 236.164062 303.214844 247.519531 297.195312 257.992188 C 291.300781 268.535156 283.671875 278.101562 274.988281 286.558594 C 266.15625 294.863281 256.265625 302.058594 245.46875 307.484375 Z M 277.136719 288.675781 L 277.144531 288.667969 C 286.011719 280.03125 293.808594 270.265625 299.847656 259.492188 C 306.011719 248.796875 310.460938 237.183594 313.347656 225.261719 L 314.601562 219.652344 C 314.601562 219.652344 314.898438 218.097656 315.335938 215.765625 C 315.84375 213.445312 316.191406 210.296875 316.652344 207.167969 C 316.917969 204.015625 317.296875 200.875 317.335938 198.503906 C 317.441406 196.132812 317.507812 194.554688 317.507812 194.554688 C 317.507812 194.554688 317.519531 194.160156 317.523438 193.46875 C 317.523438 192.777344 317.53125 191.789062 317.535156 190.605469 C 317.609375 188.230469 317.417969 185.078125 317.292969 181.917969 C 317.179688 180.34375 317.015625 178.769531 316.890625 177.292969 C 316.820312 176.554688 316.757812 175.84375 316.695312 175.167969 C 316.601562 174.496094 316.511719 173.859375 316.429688 173.269531 C 316.105469 170.921875 315.886719 169.355469 315.886719 169.355469 C 315.886719 169.355469 315.855469 169 315.753906 168.46875 C 315.660156 167.941406 315.539062 167.234375 315.414062 166.527344 C 315.167969 165.113281 314.917969 163.699219 314.917969 163.699219 C 314.855469 163.320312 314.785156 162.925781 314.714844 162.511719 C 314.625 162.101562 314.53125 161.675781 314.429688 161.230469 C 314.230469 160.34375 314.015625 159.390625 313.785156 158.378906 C 313.371094 156.335938 312.6875 154.105469 311.996094 151.648438 C 311.816406 151.039062 311.652344 150.40625 311.449219 149.773438 C 311.234375 149.144531 311.015625 148.503906 310.796875 147.851562 C 310.347656 146.542969 309.886719 145.191406 309.410156 143.792969 C 308.289062 141.066406 307.242188 138.109375 305.808594 135.160156 C 300.523438 123.15625 291.886719 110.121094 281.257812 98.925781 C 270.546875 87.816406 257.902344 78.613281 246.144531 72.804688 C 243.261719 71.242188 240.351562 70.0625 237.675781 68.828125 C 236.300781 68.289062 234.972656 67.765625 233.683594 67.261719 C 233.042969 67.011719 232.410156 66.765625 231.792969 66.523438 C 231.171875 66.292969 230.546875 66.101562 229.941406 65.894531 C 227.519531 65.097656 225.320312 64.316406 223.300781 63.8125 C 222.296875 63.539062 221.355469 63.28125 220.476562 63.039062 C 220.039062 62.921875 219.617188 62.808594 219.210938 62.699219 C 218.800781 62.609375 218.40625 62.527344 218.03125 62.445312 C 218.03125 62.445312 216.632812 62.132812 215.230469 61.824219 C 214.527344 61.671875 213.828125 61.515625 213.304688 61.398438 C 212.78125 61.273438 212.425781 61.230469 212.425781 61.230469 C 212.425781 61.230469 210.871094 60.941406 208.539062 60.511719 C 207.953125 60.40625 207.324219 60.289062 206.65625 60.164062 C 205.984375 60.074219 205.273438 59.976562 204.539062 59.878906 C 203.070312 59.683594 201.507812 59.449219 199.9375 59.269531 C 196.785156 59.007812 193.644531 58.675781 191.269531 58.644531 C 190.085938 58.597656 189.097656 58.558594 188.40625 58.53125 C 187.71875 58.503906 187.320312 58.5 187.320312 58.5 C 187.320312 58.5 185.742188 58.496094 183.371094 58.496094 C 181 58.429688 177.84375 58.671875 174.683594 58.796875 C 171.539062 59.121094 168.378906 59.328125 166.035156 59.730469 C 163.6875 60.070312 162.121094 60.292969 162.121094 60.292969 L 156.464844 61.300781 C 144.421875 63.65625 132.625 67.59375 121.667969 73.277344 C 110.640625 78.835938 100.542969 86.195312 91.519531 94.675781 L 91.511719 94.679688 L 91.449219 94.742188 L 91.382812 94.804688 L 91.378906 94.8125 C 82.511719 103.449219 74.710938 113.214844 68.671875 123.984375 C 62.511719 134.683594 58.058594 146.292969 55.175781 158.21875 L 53.917969 163.828125 C 53.917969 163.828125 53.625 165.382812 53.183594 167.714844 C 52.679688 170.035156 52.332031 173.183594 51.871094 176.3125 C 51.605469 179.464844 51.222656 182.605469 51.183594 184.976562 C 51.082031 187.34375 51.011719 188.925781 51.011719 188.925781 C 51.011719 188.925781 51 189.320312 51 190.011719 C 50.996094 190.703125 50.988281 191.6875 50.984375 192.875 C 50.910156 195.246094 51.105469 198.402344 51.230469 201.5625 C 51.339844 203.136719 51.503906 204.707031 51.632812 206.1875 C 51.699219 206.921875 51.765625 207.636719 51.828125 208.3125 C 51.921875 208.984375 52.007812 209.621094 52.089844 210.207031 C 52.417969 212.558594 52.636719 214.121094 52.636719 214.121094 C 52.636719 214.121094 52.664062 214.480469 52.765625 215.007812 C 52.859375 215.539062 52.984375 216.246094 53.105469 216.953125 C 53.355469 218.367188 53.601562 219.78125 53.601562 219.78125 C 53.667969 220.15625 53.734375 220.554688 53.804688 220.96875 C 53.894531 221.378906 53.992188 221.804688 54.089844 222.25 C 54.289062 223.136719 54.507812 224.085938 54.734375 225.101562 C 55.152344 227.140625 55.835938 229.375 56.523438 231.832031 C 56.703125 232.441406 56.867188 233.074219 57.074219 233.707031 C 57.285156 234.335938 57.503906 234.976562 57.726562 235.628906 C 58.171875 236.933594 58.636719 238.289062 59.113281 239.683594 C 60.230469 242.414062 61.28125 245.371094 62.710938 248.320312 C 68 260.320312 76.636719 273.359375 87.261719 284.554688 C 97.976562 295.660156 110.621094 304.863281 122.378906 310.675781 C 125.261719 312.234375 128.171875 313.414062 130.847656 314.652344 C 132.21875 315.191406 133.550781 315.714844 134.835938 316.214844 C 135.480469 316.46875 136.109375 316.714844 136.730469 316.953125 C 137.351562 317.1875 137.976562 317.378906 138.578125 317.585938 C 141.003906 318.382812 143.203125 319.164062 145.222656 319.667969 C 146.226562 319.941406 147.167969 320.199219 148.042969 320.4375 C 148.480469 320.558594 148.90625 320.671875 149.308594 320.78125 C 149.722656 320.867188 150.113281 320.953125 150.488281 321.035156 C 150.488281 321.035156 151.890625 321.34375 153.292969 321.65625 C 153.992188 321.808594 154.691406 321.964844 155.21875 322.082031 C 155.738281 322.203125 156.097656 322.25 156.097656 322.25 C 156.097656 322.25 157.652344 322.535156 159.984375 322.964844 C 160.566406 323.074219 161.199219 323.191406 161.863281 323.3125 C 162.539062 323.40625 163.246094 323.503906 163.980469 323.601562 C 165.453125 323.792969 167.015625 324.027344 168.585938 324.210938 C 171.734375 324.472656 174.878906 324.804688 177.25 324.835938 C 178.433594 324.882812 179.421875 324.921875 180.113281 324.949219 C 180.804688 324.976562 181.199219 324.980469 181.199219 324.980469 C 181.199219 324.980469 182.78125 324.980469 185.148438 324.984375 C 187.523438 325.050781 190.675781 324.808594 193.835938 324.679688 C 196.984375 324.359375 200.144531 324.152344 202.484375 323.75 C 204.835938 323.410156 206.398438 323.183594 206.398438 323.183594 L 212.058594 322.179688 C 224.097656 319.824219 235.894531 315.886719 246.851562 310.203125 C 257.878906 304.644531 267.980469 297.28125 277 288.804688 L 277.007812 288.800781 L 277.074219 288.738281 L 277.136719 288.675781 " fill-opacity="1" fill-rule="nonzero"/></g></g></g><g fill="#000000" fill-opacity="1"><g transform="translate(172.095301, 327.595715)"><g><path d="M 11.328125 -11.46875 L 13.21875 -11.3125 L 12.21875 0.984375 L 10.484375 0.84375 L 4.078125 -9.125 C 4.085938 -8.394531 4.097656 -7.671875 4.109375 -6.953125 C 4.117188 -6.242188 4.097656 -5.535156 4.046875 -4.828125 L 3.625 0.296875 L 1.734375 0.140625 L 2.734375 -12.15625 L 4.421875 -12.015625 L 10.8125 -1.859375 C 10.769531 -2.722656 10.769531 -3.65625 10.8125 -4.65625 C 10.863281 -5.65625 10.925781 -6.582031 11 -7.4375 Z M 11.328125 -11.46875 "/></g></g></g><g fill="#000000" fill-opacity="1"><g transform="translate(194.02995, 328.571014)"><g><path d="M 7.140625 -0.484375 L 1.265625 -0.078125 L 1.140625 -1.84375 L 3.140625 -1.984375 L 2.546875 -10.765625 L 0.546875 -10.625 L 0.4375 -12.390625 L 6.3125 -12.796875 L 6.421875 -11.03125 L 4.4375 -10.890625 L 5.03125 -2.109375 L 7.015625 -2.25 Z M 7.140625 -0.484375 "/></g></g></g><g fill="#000000" fill-opacity="1"><g transform="translate(210.327017, 327.039225)"><g><path d="M 10.5625 -3.78125 C 10.382812 -3.445312 10.101562 -3.109375 9.71875 -2.765625 C 9.34375 -2.421875 8.890625 -2.109375 8.359375 -1.828125 C 7.828125 -1.554688 7.25 -1.351562 6.625 -1.21875 C 5.539062 -0.988281 4.515625 -1.035156 3.546875 -1.359375 C 2.578125 -1.691406 1.734375 -2.269531 1.015625 -3.09375 C 0.304688 -3.914062 -0.175781 -4.957031 -0.4375 -6.21875 C -0.625 -7.101562 -0.640625 -7.953125 -0.484375 -8.765625 C -0.335938 -9.578125 -0.046875 -10.316406 0.390625 -10.984375 C 0.828125 -11.648438 1.367188 -12.210938 2.015625 -12.671875 C 2.671875 -13.128906 3.394531 -13.441406 4.1875 -13.609375 C 4.84375 -13.742188 5.476562 -13.769531 6.09375 -13.6875 C 6.707031 -13.613281 7.257812 -13.460938 7.75 -13.234375 C 8.25 -13.003906 8.65625 -12.738281 8.96875 -12.4375 L 8 -10.890625 C 7.476562 -11.234375 6.925781 -11.492188 6.34375 -11.671875 C 5.769531 -11.847656 5.179688 -11.875 4.578125 -11.75 C 3.890625 -11.601562 3.273438 -11.289062 2.734375 -10.8125 C 2.191406 -10.332031 1.796875 -9.734375 1.546875 -9.015625 C 1.296875 -8.304688 1.265625 -7.507812 1.453125 -6.625 C 1.648438 -5.65625 2.007812 -4.882812 2.53125 -4.3125 C 3.0625 -3.75 3.675781 -3.378906 4.375 -3.203125 C 5.082031 -3.023438 5.804688 -3.015625 6.546875 -3.171875 C 7.222656 -3.316406 7.789062 -3.578125 8.25 -3.953125 C 8.71875 -4.328125 9.070312 -4.707031 9.3125 -5.09375 Z M 10.5625 -3.78125 "/></g></g></g><g fill="#000000" fill-opacity="1"><g transform="translate(229.817773, 322.339865)"><g><path d="M 9.84375 -10.421875 C 10.164062 -9.585938 10.328125 -8.757812 10.328125 -7.9375 C 10.335938 -7.113281 10.191406 -6.335938 9.890625 -5.609375 C 9.585938 -4.878906 9.148438 -4.226562 8.578125 -3.65625 C 8.015625 -3.09375 7.316406 -2.648438 6.484375 -2.328125 C 5.671875 -2.015625 4.859375 -1.875 4.046875 -1.90625 C 3.242188 -1.945312 2.488281 -2.132812 1.78125 -2.46875 C 1.070312 -2.800781 0.4375 -3.269531 -0.125 -3.875 C -0.6875 -4.488281 -1.128906 -5.210938 -1.453125 -6.046875 C -1.773438 -6.890625 -1.929688 -7.722656 -1.921875 -8.546875 C -1.921875 -9.378906 -1.773438 -10.160156 -1.484375 -10.890625 C -1.191406 -11.617188 -0.757812 -12.269531 -0.1875 -12.84375 C 0.382812 -13.414062 1.078125 -13.859375 1.890625 -14.171875 C 2.722656 -14.492188 3.539062 -14.632812 4.34375 -14.59375 C 5.144531 -14.550781 5.90625 -14.363281 6.625 -14.03125 C 7.34375 -13.695312 7.976562 -13.222656 8.53125 -12.609375 C 9.082031 -11.992188 9.519531 -11.265625 9.84375 -10.421875 Z M 8.015625 -9.71875 C 7.703125 -10.53125 7.265625 -11.1875 6.703125 -11.6875 C 6.140625 -12.1875 5.492188 -12.507812 4.765625 -12.65625 C 4.046875 -12.800781 3.3125 -12.726562 2.5625 -12.4375 C 1.8125 -12.144531 1.21875 -11.703125 0.78125 -11.109375 C 0.351562 -10.515625 0.0976562 -9.84375 0.015625 -9.09375 C -0.0664062 -8.34375 0.046875 -7.5625 0.359375 -6.75 C 0.671875 -5.957031 1.109375 -5.304688 1.671875 -4.796875 C 2.242188 -4.296875 2.890625 -3.972656 3.609375 -3.828125 C 4.328125 -3.679688 5.0625 -3.753906 5.8125 -4.046875 C 6.5625 -4.335938 7.15625 -4.78125 7.59375 -5.375 C 8.03125 -5.96875 8.285156 -6.644531 8.359375 -7.40625 C 8.441406 -8.164062 8.328125 -8.9375 8.015625 -9.71875 Z M 8.015625 -9.71875 "/></g></g></g><g fill="#000000" fill-opacity="1"><g transform="translate(249.879268, 313.76523)"><g><path d="M 7.234375 -6.3125 L 8.15625 -4.734375 L 1.5 -0.875 L -4.6875 -11.546875 L -3.03125 -12.5 L 2.234375 -3.40625 Z M 7.234375 -6.3125 "/></g></g></g><g fill="#000000" fill-opacity="1"><g transform="translate(265.601279, 303.989273)"><g><path d="M 6.25 -7.28125 L 7.390625 -5.84375 L 1.359375 -1.078125 L -6.296875 -10.765625 L -4.796875 -11.9375 L 1.71875 -3.6875 Z M 6.25 -7.28125 "/></g></g></g><g fill="#000000" fill-opacity="1"><g transform="translate(279.605731, 292.113891)"><g/></g></g><g fill="#000000" fill-opacity="1"><g transform="translate(288.489935, 282.840734)"><g><path d="M 2.90625 -14.0625 C 3.625 -13.519531 4.195312 -12.894531 4.625 -12.1875 C 5.0625 -11.476562 5.34375 -10.734375 5.46875 -9.953125 C 5.59375 -9.171875 5.5625 -8.390625 5.375 -7.609375 C 5.195312 -6.828125 4.835938 -6.082031 4.296875 -5.375 C 3.773438 -4.675781 3.160156 -4.128906 2.453125 -3.734375 C 1.742188 -3.347656 1 -3.109375 0.21875 -3.015625 C -0.5625 -2.929688 -1.347656 -3.003906 -2.140625 -3.234375 C -2.929688 -3.472656 -3.6875 -3.863281 -4.40625 -4.40625 C -5.113281 -4.945312 -5.6875 -5.566406 -6.125 -6.265625 C -6.5625 -6.960938 -6.84375 -7.695312 -6.96875 -8.46875 C -7.101562 -9.25 -7.078125 -10.035156 -6.890625 -10.828125 C -6.703125 -11.617188 -6.347656 -12.363281 -5.828125 -13.0625 C -5.285156 -13.769531 -4.660156 -14.3125 -3.953125 -14.6875 C -3.253906 -15.070312 -2.507812 -15.3125 -1.71875 -15.40625 C -0.9375 -15.5 -0.148438 -15.429688 0.640625 -15.203125 C 1.441406 -14.984375 2.195312 -14.601562 2.90625 -14.0625 Z M 1.71875 -12.5 C 1.03125 -13.019531 0.316406 -13.34375 -0.421875 -13.46875 C -1.171875 -13.601562 -1.890625 -13.539062 -2.578125 -13.28125 C -3.265625 -13.03125 -3.851562 -12.582031 -4.34375 -11.9375 C -4.820312 -11.300781 -5.09375 -10.613281 -5.15625 -9.875 C -5.21875 -9.144531 -5.082031 -8.4375 -4.75 -7.75 C -4.425781 -7.070312 -3.921875 -6.472656 -3.234375 -5.953125 C -2.546875 -5.429688 -1.828125 -5.101562 -1.078125 -4.96875 C -0.335938 -4.84375 0.375 -4.90625 1.0625 -5.15625 C 1.757812 -5.414062 2.347656 -5.863281 2.828125 -6.5 C 3.316406 -7.144531 3.585938 -7.832031 3.640625 -8.5625 C 3.703125 -9.300781 3.566406 -10.015625 3.234375 -10.703125 C 2.898438 -11.390625 2.394531 -11.988281 1.71875 -12.5 Z M 1.71875 -12.5 "/></g></g></g><g fill="#000000" fill-opacity="1"><g transform="translate(301.063054, 265.010941)"><g><path d="M 2.84375 -9.15625 L 4.453125 -8.296875 L 0.8125 -1.53125 L -10.0625 -7.375 L -9.15625 -9.046875 L 0.109375 -4.0625 Z M 2.84375 -9.15625 "/></g></g></g><g fill="#000000" fill-opacity="1"><g transform="translate(309.257559, 248.47547)"><g><path d="M 2.515625 -6.703125 L 0.4375 -1.1875 L -1.21875 -1.8125 L -0.515625 -3.6875 L -8.765625 -6.765625 L -9.46875 -4.890625 L -11.125 -5.515625 L -9.046875 -11.03125 L -7.390625 -10.40625 L -8.09375 -8.546875 L 0.15625 -5.46875 L 0.859375 -7.328125 Z M 2.515625 -6.703125 "/></g></g></g><g fill="#000000" fill-opacity="1"><g transform="translate(314.60662, 232.986748)"><g><path d="M -9.453125 -14.546875 L 1.546875 -7.046875 L 1.140625 -5.234375 L -11.96875 -3.046875 L -11.5 -5.171875 L -3.546875 -6.453125 C -3.128906 -6.503906 -2.710938 -6.5625 -2.296875 -6.625 C -1.890625 -6.6875 -1.472656 -6.742188 -1.046875 -6.796875 C -1.421875 -6.992188 -1.785156 -7.203125 -2.140625 -7.421875 C -2.492188 -7.648438 -2.84375 -7.875 -3.1875 -8.09375 L -9.9375 -12.375 Z M -9.453125 -14.546875 "/></g></g></g><g fill="#000000" fill-opacity="1"><g transform="translate(318.351376, 212.714723)"><g><path d="M -12.203125 -2.515625 L -11.71875 -10.28125 L -9.90625 -10.15625 L -10.265625 -4.296875 L -7 -4.09375 L -6.703125 -8.96875 L -4.875 -8.859375 L -5.171875 -3.984375 L -1.59375 -3.75 L -1.234375 -9.609375 L 0.59375 -9.5 L 0.109375 -1.734375 Z M -12.203125 -2.515625 "/></g></g></g><g fill="#000000" fill-opacity="1"><g transform="translate(318.993808, 193.895058)"><g><path d="M -9.34375 -10.109375 C -8.59375 -10.171875 -7.882812 -10.007812 -7.21875 -9.625 C -6.550781 -9.25 -6.035156 -8.71875 -5.671875 -8.03125 L -0.984375 -11.328125 L -0.796875 -9.03125 L -5.1875 -6.015625 L -4.9375 -3.21875 L -0.3125 -3.625 L -0.15625 -1.734375 L -12.453125 -0.65625 L -12.90625 -5.875 C -12.96875 -6.519531 -12.863281 -7.148438 -12.59375 -7.765625 C -12.332031 -8.390625 -11.925781 -8.914062 -11.375 -9.34375 C -10.820312 -9.78125 -10.144531 -10.035156 -9.34375 -10.109375 Z M -11.046875 -5.71875 L -10.78125 -2.703125 L -6.75 -3.0625 L -7.0625 -6.5625 C -7.113281 -7.132812 -7.351562 -7.554688 -7.78125 -7.828125 C -8.207031 -8.097656 -8.675781 -8.210938 -9.1875 -8.171875 C -9.832031 -8.109375 -10.316406 -7.835938 -10.640625 -7.359375 C -10.972656 -6.890625 -11.109375 -6.34375 -11.046875 -5.71875 Z M -11.046875 -5.71875 "/></g></g></g><g fill="#000000" fill-opacity="1"><g transform="translate(62.602193, 216.000982)"><g><path d="M 46.316406 -41.355469 C 37.996094 -30.636719 30 -19.679688 21.519531 -9.039062 C 18 -4.640625 14.238281 -0.398438 10.238281 3.601562 C 10.480469 3.199219 10.71875 2.800781 10.960938 2.398438 C 21.117188 -14 29.4375 -31.359375 34.796875 -49.917969 C 37.277344 -58.636719 38.957031 -67.4375 38.398438 -76.636719 C 38.15625 -80.476562 37.359375 -84.316406 35.199219 -87.675781 C 32.476562 -91.914062 28.796875 -94.472656 23.597656 -94.472656 C 22.480469 -94.472656 21.359375 -94.234375 20.558594 -93.355469 C 20.160156 -92.953125 19.917969 -92.472656 20.398438 -92.074219 C 20.71875 -91.59375 21.199219 -91.433594 21.757812 -91.753906 C 24.957031 -93.433594 27.519531 -92.953125 29.839844 -90.15625 C 32.238281 -87.273438 33.359375 -83.914062 33.835938 -80.234375 C 34.796875 -72.554688 33.917969 -64.957031 32.398438 -57.355469 C 30 -45.757812 25.917969 -34.636719 21.117188 -23.839844 C 15.757812 -12 10.160156 -0.238281 2.320312 10.238281 C 1.761719 10.960938 1.359375 11.839844 0.878906 12.640625 C 0.558594 13.199219 0.71875 13.519531 1.28125 13.757812 C 2.320312 14.320312 3.121094 13.917969 4 13.359375 C 7.121094 11.121094 9.839844 8.398438 12.558594 5.679688 C 21.519531 -3.679688 29.117188 -14.078125 36.878906 -24.398438 C 44.316406 -34.398438 51.757812 -44.476562 60.476562 -53.515625 C 67.277344 -60.554688 74.394531 -67.277344 82.636719 -72.636719 C 84.554688 -73.835938 86.554688 -74.957031 88.792969 -75.515625 C 90.234375 -75.835938 90.554688 -75.59375 90.632812 -74.074219 C 90.792969 -72.074219 90.074219 -70.234375 89.195312 -68.554688 C 87.035156 -63.835938 84.234375 -59.4375 81.355469 -55.117188 C 74.554688 -44.957031 67.117188 -35.117188 60.394531 -24.878906 C 56.15625 -18.320312 52.316406 -11.597656 50.316406 -4 C 49.355469 -0.320312 48.71875 3.441406 49.355469 7.28125 C 50.238281 12.320312 52.957031 15.359375 57.4375 15.757812 C 59.4375 16 61.277344 15.519531 63.117188 14.71875 C 66.234375 13.359375 69.035156 11.597656 71.753906 9.597656 C 79.753906 3.601562 86.953125 -3.359375 94.472656 -10 C 95.433594 -10.878906 96.472656 -11.757812 97.433594 -12.71875 C 97.59375 -12.878906 98.152344 -13.121094 97.675781 -13.519531 C 97.433594 -13.757812 97.035156 -13.757812 96.714844 -13.4375 C 96.632812 -13.359375 96.554688 -13.277344 96.472656 -13.199219 C 91.996094 -9.199219 87.59375 -5.28125 83.113281 -1.359375 C 78.554688 2.640625 73.996094 6.640625 68.875 9.917969 C 65.675781 11.917969 62.394531 14 58.476562 14.320312 C 56.15625 14.558594 55.355469 14 54.476562 11.917969 C 53.277344 8.960938 53.277344 5.917969 53.757812 2.960938 C 54.957031 -4.238281 57.515625 -10.878906 61.195312 -17.199219 C 67.117188 -27.4375 74.15625 -36.957031 81.035156 -46.558594 C 85.433594 -52.636719 89.515625 -58.957031 92.875 -65.675781 C 93.992188 -67.753906 94.714844 -69.996094 94.714844 -72.476562 C 94.632812 -74.714844 93.59375 -76.234375 91.515625 -77.113281 C 89.273438 -78.074219 86.953125 -77.914062 84.714844 -76.957031 C 82.074219 -75.914062 79.675781 -74.316406 77.433594 -72.554688 C 65.675781 -63.515625 55.4375 -52.957031 46.316406 -41.355469 Z M 46.316406 -41.355469 "/></g></g></g><g fill="#000000" fill-opacity="1"><g transform="translate(153.632877, 216.000982)"><g><path d="M 107.351562 -53.597656 C 109.511719 -64.234375 109.59375 -74.796875 106.632812 -85.273438 C 103.433594 -96.554688 96.394531 -104.714844 85.515625 -109.113281 C 78.476562 -111.992188 71.277344 -111.433594 64.074219 -109.753906 C 52.238281 -106.875 42.316406 -100.554688 33.519531 -92.472656 C 24.71875 -84.316406 18.078125 -74.554688 12.238281 -64.234375 C 7.199219 -55.195312 3.601562 -45.757812 2.640625 -35.359375 C 0.878906 -15.839844 13.039062 1.039062 32.15625 5.199219 C 32.796875 5.359375 33.199219 5.601562 33.4375 6.238281 C 33.917969 7.679688 34.636719 9.039062 35.4375 10.398438 C 39.675781 17.917969 47.035156 21.199219 55.355469 19.359375 C 60.476562 18.238281 64.796875 15.519531 68.796875 12.320312 C 76.074219 6.480469 82.074219 -0.640625 87.355469 -8.480469 C 87.914062 -9.199219 88.472656 -9.597656 89.433594 -9.597656 C 94.074219 -9.917969 98.632812 -9.4375 103.273438 -8.960938 C 103.992188 -8.960938 104.714844 -8.800781 105.351562 -8.480469 C 105.832031 -8.238281 106.554688 -8.078125 106.792969 -8.71875 C 106.953125 -9.28125 106.234375 -9.519531 105.753906 -9.757812 C 105.273438 -10 104.792969 -10.078125 104.234375 -10.238281 C 99.515625 -11.199219 94.792969 -12 89.675781 -11.839844 C 90.15625 -12.640625 90.472656 -13.121094 90.875 -13.679688 C 99.035156 -25.839844 104.554688 -39.199219 107.351562 -53.597656 Z M 78.074219 -2.078125 C 73.117188 3.839844 68.074219 9.597656 61.515625 13.839844 C 58.714844 15.597656 55.757812 17.039062 52.476562 17.679688 C 48.796875 18.480469 45.597656 17.519531 42.957031 14.800781 C 40.558594 12.480469 39.199219 9.597656 37.996094 6.640625 C 37.835938 6.160156 37.757812 5.757812 38.398438 5.839844 C 47.835938 6.238281 55.757812 1.839844 63.757812 -2.078125 C 69.59375 -4.960938 75.433594 -7.519531 81.835938 -8.640625 C 82.15625 -8.71875 82.476562 -8.878906 82.875 -8.640625 C 81.355469 -6.320312 79.753906 -4.160156 78.074219 -2.078125 Z M 85.273438 -12.238281 C 84.953125 -11.757812 84.792969 -11.359375 84.074219 -11.277344 C 75.433594 -10.398438 67.753906 -6.800781 60.078125 -3.039062 C 55.035156 -0.558594 50.15625 2.078125 44.636719 3.28125 C 42.558594 3.757812 40.398438 4 38.238281 3.917969 C 37.359375 3.917969 36.957031 3.679688 36.71875 2.71875 C 34.558594 -4.640625 34.398438 -12.160156 35.835938 -19.679688 C 38.957031 -35.4375 46.15625 -49.277344 56.15625 -61.835938 C 60.875 -67.753906 65.835938 -73.515625 71.914062 -78.15625 C 74.316406 -79.914062 76.875 -81.515625 79.753906 -82.476562 C 81.273438 -82.953125 81.433594 -82.875 81.835938 -81.273438 C 81.914062 -80.875 81.996094 -80.476562 82.476562 -80.394531 C 83.035156 -80.316406 83.273438 -80.636719 83.515625 -81.035156 C 83.996094 -82.074219 83.914062 -82.875 82.875 -83.433594 C 81.273438 -84.394531 79.59375 -84.394531 77.835938 -83.996094 C 73.675781 -82.875 70.234375 -80.476562 66.957031 -77.835938 C 60.636719 -72.554688 55.4375 -66.15625 50.316406 -59.675781 C 41.835938 -48.875 35.757812 -36.878906 32.15625 -23.597656 C 29.839844 -15.039062 29.597656 -6.398438 32.078125 2.160156 C 32.398438 3.441406 31.917969 3.28125 31.039062 3.039062 C 25.597656 1.519531 21.199219 -1.761719 17.277344 -5.679688 C 11.4375 -11.597656 8.480469 -18.957031 7.597656 -27.117188 C 6.398438 -37.996094 8.960938 -48.316406 13.597656 -58.078125 C 19.597656 -70.554688 26.878906 -82.074219 36.878906 -91.753906 C 44.957031 -99.515625 54.316406 -105.511719 65.355469 -108.394531 C 70.796875 -109.753906 76.394531 -110.472656 81.835938 -108.875 C 90.554688 -106.234375 96.554688 -100.394531 100.554688 -92.472656 C 104.152344 -85.273438 105.273438 -77.515625 105.195312 -69.914062 C 105.273438 -58.15625 102.3125 -47.4375 98.3125 -36.878906 C 94.953125 -28.160156 90.554688 -19.917969 85.273438 -12.238281 Z M 85.273438 -12.238281 "/></g></g></g><g clip-path="url(#id4)"><path fill="#000000" d="M 250.398438 211.566406 C 246.671875 211.566406 243.648438 214.589844 243.648438 218.316406 C 243.648438 222.046875 246.671875 225.066406 250.398438 225.066406 C 254.128906 225.066406 257.148438 222.046875 257.148438 218.316406 C 257.148438 214.589844 254.128906 211.566406 250.398438 211.566406 " fill-opacity="1" fill-rule="nonzero"/></g></svg>