<svg xmlns="http://www.w3.org/2000/svg" xmlns:xlink="http://www.w3.org/1999/xlink" width="500" zoomAndPan="magnify" viewBox="0 0 375 374.999991" height="500" preserveAspectRatio="xMidYMid meet" version="1.0"><defs><g/><clipPath id="id1"><path d="M 93.445312 229.273438 L 281.695312 229.273438 L 281.695312 297.523438 L 93.445312 297.523438 Z M 93.445312 229.273438 " clip-rule="nonzero"/></clipPath></defs><g clip-path="url(#id1)"><path fill="#000000" d="M 187.96875 297.523438 C 144.941406 297.523438 106.964844 270.179688 93.460938 229.488281 L 94.121094 229.273438 C 107.527344 269.683594 145.246094 296.832031 187.96875 296.832031 C 230.691406 296.832031 266.984375 270.601562 281.027344 231.566406 L 281.679688 231.800781 C 267.539062 271.113281 229.878906 297.53125 187.96875 297.53125 Z M 187.96875 297.523438 " fill-opacity="1" fill-rule="nonzero"/></g><g fill="#121212" fill-opacity="1"><g transform="translate(59.474213, 201.992857)"><g><path d="M 18.308594 -16.347656 C 15.019531 -12.109375 11.859375 -7.777344 8.503906 -3.574219 C 7.113281 -1.832031 5.628906 -0.15625 4.046875 1.421875 C 4.140625 1.265625 4.238281 1.105469 4.332031 0.949219 C 8.347656 -5.535156 11.636719 -12.394531 13.753906 -19.730469 C 14.734375 -23.175781 15.398438 -26.65625 15.175781 -30.292969 C 15.082031 -31.808594 14.765625 -33.328125 13.914062 -34.65625 C 12.835938 -36.332031 11.382812 -37.34375 9.328125 -37.34375 C 8.886719 -37.34375 8.441406 -37.25 8.125 -36.902344 C 7.96875 -36.742188 7.875 -36.550781 8.0625 -36.394531 C 8.191406 -36.203125 8.378906 -36.140625 8.601562 -36.269531 C 9.867188 -36.933594 10.878906 -36.742188 11.792969 -35.636719 C 12.742188 -34.496094 13.183594 -33.167969 13.375 -31.714844 C 13.753906 -28.679688 13.40625 -25.675781 12.804688 -22.671875 C 11.859375 -18.085938 10.246094 -13.691406 8.347656 -9.421875 C 6.230469 -4.742188 4.015625 -0.09375 0.917969 4.046875 C 0.695312 4.332031 0.539062 4.679688 0.347656 4.996094 C 0.222656 5.21875 0.285156 5.34375 0.507812 5.4375 C 0.917969 5.660156 1.234375 5.5 1.582031 5.28125 C 2.8125 4.394531 3.890625 3.320312 4.964844 2.246094 C 8.503906 -1.453125 11.507812 -5.566406 14.578125 -9.644531 C 17.515625 -13.597656 20.457031 -17.582031 23.90625 -21.152344 C 26.59375 -23.9375 29.40625 -26.59375 32.664062 -28.710938 C 33.421875 -29.183594 34.210938 -29.628906 35.097656 -29.847656 C 35.667969 -29.976562 35.792969 -29.878906 35.824219 -29.28125 C 35.886719 -28.488281 35.605469 -27.761719 35.257812 -27.097656 C 34.402344 -25.234375 33.296875 -23.492188 32.15625 -21.785156 C 29.46875 -17.769531 26.527344 -13.882812 23.875 -9.832031 C 22.195312 -7.242188 20.679688 -4.585938 19.890625 -1.582031 C 19.507812 -0.125 19.257812 1.359375 19.507812 2.878906 C 19.855469 4.871094 20.933594 6.070312 22.703125 6.230469 C 23.492188 6.324219 24.222656 6.132812 24.949219 5.816406 C 26.179688 5.28125 27.289062 4.585938 28.363281 3.792969 C 31.523438 1.421875 34.371094 -1.328125 37.34375 -3.953125 C 37.722656 -4.300781 38.132812 -4.648438 38.511719 -5.027344 C 38.578125 -5.089844 38.796875 -5.1875 38.609375 -5.34375 C 38.511719 -5.4375 38.355469 -5.4375 38.226562 -5.3125 C 38.195312 -5.28125 38.164062 -5.25 38.132812 -5.21875 C 36.363281 -3.636719 34.625 -2.085938 32.851562 -0.539062 C 31.050781 1.042969 29.25 2.625 27.226562 3.921875 C 25.960938 4.710938 24.664062 5.535156 23.113281 5.660156 C 22.195312 5.753906 21.882812 5.535156 21.53125 4.710938 C 21.058594 3.542969 21.058594 2.339844 21.25 1.171875 C 21.722656 -1.675781 22.734375 -4.300781 24.1875 -6.796875 C 26.527344 -10.84375 29.3125 -14.609375 32.03125 -18.402344 C 33.769531 -20.804688 35.382812 -23.304688 36.710938 -25.960938 C 37.152344 -26.78125 37.4375 -27.667969 37.4375 -28.648438 C 37.40625 -29.53125 36.996094 -30.132812 36.171875 -30.480469 C 35.289062 -30.859375 34.371094 -30.796875 33.484375 -30.417969 C 32.441406 -30.007812 31.492188 -29.375 30.609375 -28.679688 C 25.960938 -25.105469 21.914062 -20.933594 18.308594 -16.347656 Z M 18.308594 -16.347656 "/></g></g></g><g fill="#121212" fill-opacity="1"><g transform="translate(97.319579, 201.992857)"><g><path d="M 2.53125 -7.621094 C 2.117188 -7.96875 1.769531 -7.96875 1.359375 -7.589844 C 1.203125 -7.429688 1.042969 -7.273438 0.886719 -7.113281 C -1.042969 -4.523438 -2.5625 -1.769531 -2.878906 1.519531 C -3.003906 2.371094 -2.972656 3.226562 -2.78125 4.078125 C -2.625 4.742188 -2.339844 5.40625 -1.898438 5.976562 C -1.011719 7.019531 -0.03125 7.144531 1.105469 6.417969 C 1.296875 6.292969 1.484375 6.101562 1.675781 5.945312 C 3.289062 4.585938 4.710938 3.035156 6.164062 1.519531 C 7.9375 -0.347656 9.867188 -1.929688 12.207031 -3.066406 C 13.535156 -3.699219 14.796875 -4.394531 16.1875 -4.902344 C 16.316406 -4.933594 16.441406 -4.964844 16.410156 -5.121094 C 16.410156 -5.25 16.285156 -5.3125 16.15625 -5.3125 C 15.90625 -5.34375 15.714844 -5.25 15.527344 -5.152344 C 14.796875 -4.835938 14.070312 -4.523438 13.375 -4.175781 C 11.984375 -3.511719 10.53125 -2.910156 9.203125 -2.054688 C 7.273438 -0.886719 5.628906 0.664062 4.078125 2.308594 C 3.195312 3.195312 2.402344 4.175781 1.359375 4.871094 C 0.757812 5.28125 0.191406 5.691406 -0.570312 5.722656 C -1.136719 5.753906 -1.296875 5.628906 -1.421875 5.089844 C -1.582031 4.425781 -1.582031 3.761719 -1.519531 3.097656 C -1.265625 0.632812 -0.316406 -1.613281 0.949219 -3.730469 C 1.519531 -4.679688 2.117188 -5.535156 2.6875 -6.449219 C 2.972656 -6.925781 2.910156 -7.304688 2.53125 -7.621094 Z M 3.984375 -9.167969 C 4.269531 -9.074219 4.457031 -9.265625 4.425781 -9.550781 C 4.425781 -10.023438 3.890625 -10.496094 3.351562 -10.5625 C 3.066406 -10.59375 2.910156 -10.402344 3.003906 -10.117188 C 3.160156 -9.644531 3.542969 -9.328125 3.984375 -9.167969 Z M 3.984375 -9.167969 "/></g></g></g><g fill="#121212" fill-opacity="1"><g transform="translate(113.286092, 201.992857)"><g><path d="M 21.628906 -5.566406 C 13.183594 -4.078125 12.046875 -2.183594 4.933594 3.921875 C 4.109375 4.648438 3.257812 5.3125 2.183594 5.566406 C 0.949219 5.914062 0.222656 5.628906 -0.316406 4.457031 C -2.496094 -0.316406 2.148438 -8.253906 5.089844 -9.203125 C 5.375 -9.265625 5.535156 -9.203125 5.566406 -8.917969 C 5.660156 -8.503906 5.660156 -8.09375 5.535156 -7.683594 C 5.34375 -6.957031 5.058594 -6.292969 4.648438 -5.691406 C 4.363281 -5.3125 4.457031 -5.121094 4.871094 -4.996094 C 5.121094 -4.902344 5.34375 -4.902344 5.535156 -5.121094 C 6.417969 -6.164062 6.925781 -7.367188 6.734375 -8.757812 C 6.640625 -9.359375 6.261719 -9.707031 5.691406 -9.898438 C 4.964844 -10.085938 4.300781 -9.960938 3.636719 -9.582031 C -1.234375 -6.546875 -3.542969 0.789062 -1.011719 4.585938 C -0.472656 5.40625 0.253906 5.882812 1.234375 6.007812 C 2.148438 6.132812 3.003906 5.882812 3.824219 5.4375 C 5.027344 4.742188 6.039062 3.824219 7.082031 2.910156 C 12.332031 -1.867188 15.304688 -4.648438 22.894531 -5.25 C 22.449219 -5.691406 22.039062 -5.597656 21.628906 -5.566406 Z M 21.628906 -5.566406 "/></g></g></g><g fill="#121212" fill-opacity="1"><g transform="translate(135.35465, 201.992857)"><g><path d="M 1.960938 -2.8125 C 1.992188 -2.878906 2.023438 -2.910156 2.054688 -2.972656 C 2.75 -3.667969 3.226562 -4.488281 3.605469 -5.40625 C 3.953125 -6.230469 4.140625 -7.082031 4.046875 -8 C 3.890625 -9.421875 2.75 -10.339844 1.328125 -10.148438 C 0.125 -9.992188 -0.855469 -9.421875 -1.582031 -8.472656 C -1.960938 -8 -2.214844 -7.460938 -2.246094 -6.863281 C -2.277344 -5.914062 -2.054688 -5.027344 -1.550781 -4.238281 C -1.359375 -3.953125 -1.359375 -3.761719 -1.519531 -3.476562 C -1.800781 -2.972656 -1.992188 -2.433594 -1.992188 -1.832031 C -1.960938 -0.855469 -1.074219 -0.347656 -0.253906 -0.855469 C -0.15625 -0.886719 -0.09375 -0.949219 0 -1.011719 C 0.410156 -1.328125 0.855469 -1.644531 1.234375 -2.023438 C 1.359375 -2.148438 1.453125 -2.214844 1.644531 -2.183594 C 3.476562 -1.453125 8.222656 -2.71875 12.554688 -5.40625 C 12.457031 -5.4375 12.238281 -5.597656 11.984375 -5.4375 C 9.832031 -4.175781 6.230469 -3.066406 5.628906 -2.941406 C 3.160156 -2.464844 1.929688 -2.65625 1.929688 -2.65625 C 1.960938 -2.78125 1.960938 -2.8125 1.960938 -2.8125 Z M 0.285156 -2.339844 C -0.09375 -1.929688 -0.472656 -1.550781 -1.042969 -1.390625 C -1.105469 -1.453125 -1.105469 -1.519531 -1.074219 -1.613281 C -0.980469 -2.023438 -0.820312 -2.433594 -0.601562 -2.8125 C -0.507812 -2.972656 -0.410156 -3.003906 -0.253906 -2.878906 C -0.09375 -2.78125 0.0625 -2.6875 0.253906 -2.59375 C 0.347656 -2.53125 0.378906 -2.433594 0.285156 -2.339844 Z M 1.105469 -3.257812 C 1.042969 -3.195312 1.011719 -3.097656 0.949219 -3.066406 C 0.855469 -3.035156 0.855469 -3.035156 0.539062 -3.195312 C -0.285156 -3.605469 -0.125 -3.542969 0.125 -3.921875 C 0.472656 -4.363281 0.886719 -4.742188 1.296875 -5.089844 C 1.707031 -5.4375 1.738281 -5.5 1.519531 -5.816406 C 1.234375 -6.230469 0.855469 -6.324219 0.507812 -6.101562 C 0.125 -5.851562 -0.15625 -5.566406 -0.410156 -5.21875 C -0.601562 -4.964844 -0.820312 -4.679688 -1.042969 -4.363281 C -2.277344 -6.007812 -0.820312 -9.136719 1.582031 -8.980469 C 1.582031 -8.980469 3.128906 -8.789062 2.65625 -6.515625 C 2.402344 -5.3125 1.929688 -4.175781 1.105469 -3.257812 Z M 1.105469 -3.257812 "/></g></g></g><g fill="#121212" fill-opacity="1"><g transform="translate(147.242584, 201.992857)"><g><path d="M 14.230469 -5.4375 C 12.773438 -4.710938 11.414062 -3.859375 10.179688 -2.78125 C 8.539062 -1.390625 6.957031 0.125 5.375 1.613281 C 4.140625 2.8125 2.910156 4.015625 1.453125 4.964844 C 0.886719 5.34375 0.253906 5.628906 -0.410156 5.785156 C -1.011719 5.882812 -1.136719 5.816406 -1.390625 5.28125 C -1.613281 4.773438 -1.644531 4.238281 -1.644531 3.699219 C -1.707031 2.183594 -1.265625 0.757812 -0.820312 -0.632812 C -0.03125 -3.035156 0.980469 -5.3125 2.117188 -7.527344 C 2.464844 -8.222656 2.847656 -8.886719 3.195312 -9.582031 L 3.226562 -9.582031 C 11.476562 -18.8125 19.699219 -32.316406 19.890625 -34.59375 C 20.078125 -35.097656 19.414062 -36.203125 18.878906 -35.761719 C 18.625 -35.539062 18.339844 -35.320312 18.117188 -35.066406 C 16.601562 -33.390625 15.113281 -31.683594 13.691406 -29.914062 C 12.015625 -27.855469 10.496094 -25.675781 9.042969 -23.429688 C 7.589844 -21.121094 6.164062 -18.84375 4.804688 -16.472656 C 3.257812 -13.816406 1.800781 -11.128906 0.441406 -8.378906 C -0.472656 -6.609375 -1.328125 -4.804688 -1.992188 -2.910156 C -2.625 -1.074219 -3.066406 0.757812 -3.066406 2.71875 C -3.066406 3.476562 -2.910156 4.175781 -2.625 4.835938 C -2.117188 6.101562 -0.949219 6.671875 0.378906 6.324219 C 0.632812 6.261719 0.886719 6.132812 1.136719 6.039062 C 1.929688 5.660156 2.59375 5.121094 3.257812 4.585938 C 5.25 2.972656 7.050781 1.203125 8.886719 -0.570312 C 9.769531 -1.390625 10.65625 -2.277344 11.574219 -3.097656 C 12.648438 -4.046875 13.847656 -4.804688 15.273438 -5.4375 C 14.828125 -5.722656 14.511719 -5.597656 14.230469 -5.4375 Z M 5.535156 -13.882812 C 7.558594 -17.453125 9.707031 -20.933594 11.984375 -24.378906 C 13.785156 -27.066406 15.839844 -29.597656 17.832031 -32.15625 C 18.214844 -32.632812 18.59375 -33.105469 18.972656 -33.582031 C 18.246094 -32 16.757812 -29.375 14.449219 -25.738281 C 11.320312 -20.804688 7.808594 -16 4.554688 -12.109375 C 4.871094 -12.710938 5.21875 -13.3125 5.535156 -13.882812 Z M 5.535156 -13.882812 "/></g></g></g><g fill="#121212" fill-opacity="1"><g transform="translate(161.280471, 201.992857)"><g><path d="M 14.230469 -5.4375 C 12.773438 -4.710938 11.414062 -3.859375 10.179688 -2.78125 C 8.539062 -1.390625 6.957031 0.125 5.375 1.613281 C 4.140625 2.8125 2.910156 4.015625 1.453125 4.964844 C 0.886719 5.34375 0.253906 5.628906 -0.410156 5.785156 C -1.011719 5.882812 -1.136719 5.816406 -1.390625 5.28125 C -1.613281 4.773438 -1.644531 4.238281 -1.644531 3.699219 C -1.707031 2.183594 -1.265625 0.757812 -0.820312 -0.632812 C -0.03125 -3.035156 0.980469 -5.3125 2.117188 -7.527344 C 2.464844 -8.222656 2.847656 -8.886719 3.195312 -9.582031 L 3.226562 -9.582031 C 11.476562 -18.8125 19.699219 -32.316406 19.890625 -34.59375 C 20.078125 -35.097656 19.414062 -36.203125 18.878906 -35.761719 C 18.625 -35.539062 18.339844 -35.320312 18.117188 -35.066406 C 16.601562 -33.390625 15.113281 -31.683594 13.691406 -29.914062 C 12.015625 -27.855469 10.496094 -25.675781 9.042969 -23.429688 C 7.589844 -21.121094 6.164062 -18.84375 4.804688 -16.472656 C 3.257812 -13.816406 1.800781 -11.128906 0.441406 -8.378906 C -0.472656 -6.609375 -1.328125 -4.804688 -1.992188 -2.910156 C -2.625 -1.074219 -3.066406 0.757812 -3.066406 2.71875 C -3.066406 3.476562 -2.910156 4.175781 -2.625 4.835938 C -2.117188 6.101562 -0.949219 6.671875 0.378906 6.324219 C 0.632812 6.261719 0.886719 6.132812 1.136719 6.039062 C 1.929688 5.660156 2.59375 5.121094 3.257812 4.585938 C 5.25 2.972656 7.050781 1.203125 8.886719 -0.570312 C 9.769531 -1.390625 10.65625 -2.277344 11.574219 -3.097656 C 12.648438 -4.046875 13.847656 -4.804688 15.273438 -5.4375 C 14.828125 -5.722656 14.511719 -5.597656 14.230469 -5.4375 Z M 5.535156 -13.882812 C 7.558594 -17.453125 9.707031 -20.933594 11.984375 -24.378906 C 13.785156 -27.066406 15.839844 -29.597656 17.832031 -32.15625 C 18.214844 -32.632812 18.59375 -33.105469 18.972656 -33.582031 C 18.246094 -32 16.757812 -29.375 14.449219 -25.738281 C 11.320312 -20.804688 7.808594 -16 4.554688 -12.109375 C 4.871094 -12.710938 5.21875 -13.3125 5.535156 -13.882812 Z M 5.535156 -13.882812 "/></g></g></g><g fill="#121212" fill-opacity="1"><g transform="translate(175.318359, 201.992857)"><g/></g></g><g fill="#121212" fill-opacity="1"><g transform="translate(187.965102, 201.992857)"><g><path d="M 42.433594 -21.183594 C 43.289062 -25.390625 43.320312 -29.566406 42.148438 -33.707031 C 40.882812 -38.164062 38.101562 -41.390625 33.800781 -43.128906 C 31.019531 -44.269531 28.171875 -44.046875 25.328125 -43.382812 C 20.648438 -42.246094 16.726562 -39.746094 13.25 -36.550781 C 9.769531 -33.328125 7.144531 -29.46875 4.835938 -25.390625 C 2.847656 -21.816406 1.421875 -18.085938 1.042969 -13.976562 C 0.347656 -6.261719 5.152344 0.410156 12.710938 2.054688 C 12.964844 2.117188 13.121094 2.214844 13.21875 2.464844 C 13.40625 3.035156 13.691406 3.574219 14.007812 4.109375 C 15.683594 7.082031 18.59375 8.378906 21.882812 7.652344 C 23.90625 7.210938 25.613281 6.132812 27.191406 4.871094 C 30.070312 2.5625 32.441406 -0.253906 34.527344 -3.351562 C 34.75 -3.636719 34.972656 -3.792969 35.351562 -3.792969 C 37.183594 -3.921875 38.988281 -3.730469 40.820312 -3.542969 C 41.105469 -3.542969 41.390625 -3.476562 41.644531 -3.351562 C 41.832031 -3.257812 42.117188 -3.195312 42.210938 -3.445312 C 42.277344 -3.667969 41.992188 -3.761719 41.800781 -3.859375 C 41.613281 -3.953125 41.421875 -3.984375 41.199219 -4.046875 C 39.335938 -4.425781 37.46875 -4.742188 35.445312 -4.679688 C 35.636719 -4.996094 35.761719 -5.1875 35.921875 -5.40625 C 39.144531 -10.214844 41.328125 -15.492188 42.433594 -21.183594 Z M 30.859375 -0.820312 C 28.902344 1.519531 26.910156 3.792969 24.316406 5.46875 C 23.210938 6.164062 22.039062 6.734375 20.742188 6.988281 C 19.289062 7.304688 18.023438 6.925781 16.980469 5.851562 C 16.03125 4.933594 15.492188 3.792969 15.019531 2.625 C 14.957031 2.433594 14.925781 2.277344 15.175781 2.308594 C 18.910156 2.464844 22.039062 0.726562 25.199219 -0.820312 C 27.507812 -1.960938 29.816406 -2.972656 32.347656 -3.414062 C 32.472656 -3.445312 32.601562 -3.511719 32.757812 -3.414062 C 32.15625 -2.496094 31.523438 -1.644531 30.859375 -0.820312 Z M 33.707031 -4.835938 C 33.582031 -4.648438 33.515625 -4.488281 33.234375 -4.457031 C 29.816406 -4.109375 26.78125 -2.6875 23.746094 -1.203125 C 21.753906 -0.222656 19.824219 0.820312 17.644531 1.296875 C 16.820312 1.484375 15.96875 1.582031 15.113281 1.550781 C 14.765625 1.550781 14.609375 1.453125 14.511719 1.074219 C 13.660156 -1.832031 13.597656 -4.804688 14.164062 -7.777344 C 15.398438 -14.007812 18.246094 -19.476562 22.195312 -24.441406 C 24.0625 -26.78125 26.023438 -29.058594 28.425781 -30.894531 C 29.375 -31.589844 30.386719 -32.222656 31.523438 -32.601562 C 32.125 -32.789062 32.1875 -32.757812 32.347656 -32.125 C 32.378906 -31.96875 32.410156 -31.808594 32.601562 -31.777344 C 32.820312 -31.746094 32.917969 -31.871094 33.011719 -32.03125 C 33.199219 -32.441406 33.167969 -32.757812 32.757812 -32.980469 C 32.125 -33.359375 31.460938 -33.359375 30.765625 -33.199219 C 29.121094 -32.757812 27.761719 -31.808594 26.464844 -30.765625 C 23.96875 -28.679688 21.914062 -26.148438 19.890625 -23.589844 C 16.539062 -19.320312 14.132812 -14.578125 12.710938 -9.328125 C 11.792969 -5.945312 11.699219 -2.53125 12.679688 0.855469 C 12.804688 1.359375 12.617188 1.296875 12.269531 1.203125 C 10.117188 0.601562 8.378906 -0.695312 6.828125 -2.246094 C 4.523438 -4.585938 3.351562 -7.492188 3.003906 -10.71875 C 2.53125 -15.019531 3.542969 -19.097656 5.375 -22.957031 C 7.746094 -27.890625 10.625 -32.441406 14.578125 -36.269531 C 17.769531 -39.335938 21.46875 -41.707031 25.832031 -42.84375 C 27.984375 -43.382812 30.195312 -43.667969 32.347656 -43.035156 C 35.792969 -41.992188 38.164062 -39.683594 39.746094 -36.550781 C 41.167969 -33.707031 41.613281 -30.640625 41.582031 -27.636719 C 41.613281 -22.988281 40.441406 -18.75 38.859375 -14.578125 C 37.53125 -11.128906 35.792969 -7.875 33.707031 -4.835938 Z M 33.707031 -4.835938 "/></g></g></g><g fill="#121212" fill-opacity="1"><g transform="translate(232.51325, 201.992857)"><g><path d="M 14.230469 -5.4375 C 12.773438 -4.710938 11.414062 -3.859375 10.179688 -2.78125 C 8.539062 -1.390625 6.957031 0.125 5.375 1.613281 C 4.140625 2.8125 2.910156 4.015625 1.453125 4.964844 C 0.886719 5.34375 0.253906 5.628906 -0.410156 5.785156 C -1.011719 5.882812 -1.136719 5.816406 -1.390625 5.28125 C -1.613281 4.773438 -1.644531 4.238281 -1.644531 3.699219 C -1.707031 2.183594 -1.265625 0.757812 -0.820312 -0.632812 C -0.03125 -3.035156 0.980469 -5.3125 2.117188 -7.527344 C 2.464844 -8.222656 2.847656 -8.886719 3.195312 -9.582031 L 3.226562 -9.582031 C 11.476562 -18.8125 19.699219 -32.316406 19.890625 -34.59375 C 20.078125 -35.097656 19.414062 -36.203125 18.878906 -35.761719 C 18.625 -35.539062 18.339844 -35.320312 18.117188 -35.066406 C 16.601562 -33.390625 15.113281 -31.683594 13.691406 -29.914062 C 12.015625 -27.855469 10.496094 -25.675781 9.042969 -23.429688 C 7.589844 -21.121094 6.164062 -18.84375 4.804688 -16.472656 C 3.257812 -13.816406 1.800781 -11.128906 0.441406 -8.378906 C -0.472656 -6.609375 -1.328125 -4.804688 -1.992188 -2.910156 C -2.625 -1.074219 -3.066406 0.757812 -3.066406 2.71875 C -3.066406 3.476562 -2.910156 4.175781 -2.625 4.835938 C -2.117188 6.101562 -0.949219 6.671875 0.378906 6.324219 C 0.632812 6.261719 0.886719 6.132812 1.136719 6.039062 C 1.929688 5.660156 2.59375 5.121094 3.257812 4.585938 C 5.25 2.972656 7.050781 1.203125 8.886719 -0.570312 C 9.769531 -1.390625 10.65625 -2.277344 11.574219 -3.097656 C 12.648438 -4.046875 13.847656 -4.804688 15.273438 -5.4375 C 14.828125 -5.722656 14.511719 -5.597656 14.230469 -5.4375 Z M 5.535156 -13.882812 C 7.558594 -17.453125 9.707031 -20.933594 11.984375 -24.378906 C 13.785156 -27.066406 15.839844 -29.597656 17.832031 -32.15625 C 18.214844 -32.632812 18.59375 -33.105469 18.972656 -33.582031 C 18.246094 -32 16.757812 -29.375 14.449219 -25.738281 C 11.320312 -20.804688 7.808594 -16 4.554688 -12.109375 C 4.871094 -12.710938 5.21875 -13.3125 5.535156 -13.882812 Z M 5.535156 -13.882812 "/></g></g></g><g fill="#121212" fill-opacity="1"><g transform="translate(246.551138, 201.992857)"><g><path d="M 2.53125 -7.621094 C 2.117188 -7.96875 1.769531 -7.96875 1.359375 -7.589844 C 1.203125 -7.429688 1.042969 -7.273438 0.886719 -7.113281 C -1.042969 -4.523438 -2.5625 -1.769531 -2.878906 1.519531 C -3.003906 2.371094 -2.972656 3.226562 -2.78125 4.078125 C -2.625 4.742188 -2.339844 5.40625 -1.898438 5.976562 C -1.011719 7.019531 -0.03125 7.144531 1.105469 6.417969 C 1.296875 6.292969 1.484375 6.101562 1.675781 5.945312 C 3.289062 4.585938 4.710938 3.035156 6.164062 1.519531 C 7.9375 -0.347656 9.867188 -1.929688 12.207031 -3.066406 C 13.535156 -3.699219 14.796875 -4.394531 16.1875 -4.902344 C 16.316406 -4.933594 16.441406 -4.964844 16.410156 -5.121094 C 16.410156 -5.25 16.285156 -5.3125 16.15625 -5.3125 C 15.90625 -5.34375 15.714844 -5.25 15.527344 -5.152344 C 14.796875 -4.835938 14.070312 -4.523438 13.375 -4.175781 C 11.984375 -3.511719 10.53125 -2.910156 9.203125 -2.054688 C 7.273438 -0.886719 5.628906 0.664062 4.078125 2.308594 C 3.195312 3.195312 2.402344 4.175781 1.359375 4.871094 C 0.757812 5.28125 0.191406 5.691406 -0.570312 5.722656 C -1.136719 5.753906 -1.296875 5.628906 -1.421875 5.089844 C -1.582031 4.425781 -1.582031 3.761719 -1.519531 3.097656 C -1.265625 0.632812 -0.316406 -1.613281 0.949219 -3.730469 C 1.519531 -4.679688 2.117188 -5.535156 2.6875 -6.449219 C 2.972656 -6.925781 2.910156 -7.304688 2.53125 -7.621094 Z M 3.984375 -9.167969 C 4.269531 -9.074219 4.457031 -9.265625 4.425781 -9.550781 C 4.425781 -10.023438 3.890625 -10.496094 3.351562 -10.5625 C 3.066406 -10.59375 2.910156 -10.402344 3.003906 -10.117188 C 3.160156 -9.644531 3.542969 -9.328125 3.984375 -9.167969 Z M 3.984375 -9.167969 "/></g></g></g><g fill="#121212" fill-opacity="1"><g transform="translate(262.517651, 201.992857)"><g><path d="M 24.601562 -5.34375 C 24.410156 -5.375 24.222656 -5.28125 24.0625 -5.1875 C 23.429688 -4.902344 22.828125 -4.585938 22.230469 -4.269531 C 20.710938 -3.542969 19.226562 -2.71875 17.613281 -2.183594 C 16.347656 -1.738281 15.050781 -1.328125 13.691406 -1.328125 C 12.207031 -1.328125 11.097656 -1.960938 10.308594 -3.195312 C 10.179688 -3.414062 10.054688 -3.667969 9.929688 -3.890625 C 9.707031 -4.363281 9.453125 -4.773438 9.011719 -5.089844 C 8.378906 -5.597656 8.316406 -5.660156 7.777344 -5.089844 C 6.230469 -3.542969 4.710938 -1.960938 3.289062 -0.253906 C 1.800781 1.550781 0.378906 3.382812 -1.203125 5.089844 C -1.421875 5.3125 -1.613281 5.535156 -1.898438 5.722656 C -2.054688 5.40625 -1.960938 5.121094 -1.929688 4.871094 C -1.707031 3.761719 -1.359375 2.71875 -0.980469 1.644531 C -0.125 -0.789062 1.136719 -3.035156 2.5625 -5.1875 C 2.75 -5.5 2.972656 -5.785156 3.128906 -6.101562 C 3.382812 -6.515625 3.351562 -6.640625 2.972656 -6.925781 C 2.402344 -7.398438 1.769531 -7.367188 1.171875 -6.894531 C 0.726562 -6.515625 0.378906 -6.039062 0.0625 -5.566406 C -1.519531 -3.320312 -2.464844 -0.820312 -3.160156 1.800781 C -3.414062 2.8125 -3.511719 3.890625 -3.476562 4.933594 C -3.476562 5.25 -3.445312 5.566406 -3.351562 5.882812 C -3.066406 6.894531 -1.675781 7.273438 -1.074219 6.515625 C -0.757812 6.039062 -0.316406 5.691406 0.03125 5.25 C 1.898438 3.035156 3.667969 0.757812 5.566406 -1.421875 C 6.386719 -2.339844 7.242188 -3.257812 8.09375 -4.175781 C 8.410156 -4.523438 8.472656 -4.523438 8.695312 -4.046875 C 8.789062 -3.824219 8.917969 -3.574219 9.074219 -3.351562 C 10.53125 -1.296875 12.523438 -0.472656 14.988281 -0.820312 C 16.632812 -1.042969 18.148438 -1.675781 19.636719 -2.371094 C 21.183594 -3.066406 22.671875 -3.859375 24.1875 -4.617188 C 24.378906 -4.710938 24.570312 -4.835938 24.757812 -4.933594 C 24.820312 -4.996094 24.917969 -5.058594 24.886719 -5.1875 C 24.851562 -5.3125 24.726562 -5.34375 24.601562 -5.34375 Z M 24.601562 -5.34375 "/></g></g></g><g fill="#121212" fill-opacity="1"><g transform="translate(286.514847, 201.992857)"><g><path d="M 6.070312 1.296875 C 9.042969 0.191406 15.175781 -4.488281 21.089844 -5.28125 C 20.902344 -5.691406 20.617188 -5.691406 20.363281 -5.691406 C 15.210938 -5.121094 8.441406 -0.664062 6.449219 0.285156 C 5.566406 0.695312 4.648438 0.980469 3.636719 1.074219 C 2.910156 1.136719 2.246094 0.980469 1.738281 0.378906 C 0.539062 -1.171875 0.441406 -2.78125 1.234375 -4.523438 C 1.390625 -4.871094 1.582031 -5.058594 2.023438 -4.933594 C 2.625 -4.773438 3.226562 -4.804688 3.824219 -4.996094 C 5.058594 -5.40625 6.070312 -6.164062 6.988281 -7.050781 C 7.144531 -7.210938 7.242188 -7.367188 7.335938 -7.558594 C 7.589844 -8.0625 7.492188 -8.570312 7.019531 -8.917969 C 6.261719 -9.453125 5.4375 -9.769531 4.523438 -9.484375 C 2.148438 -8.789062 0.347656 -7.398438 -0.539062 -5.027344 C -1.074219 -3.574219 -0.917969 -2.183594 -0.15625 -0.917969 C 1.390625 1.613281 3.226562 2.371094 6.070312 1.296875 Z M 6.007812 -8.285156 C 5.628906 -7.113281 3.574219 -5.816406 2.308594 -5.945312 C 2.8125 -7.050781 4.871094 -8.347656 6.007812 -8.285156 Z M 6.007812 -8.285156 "/></g></g></g><g fill="#121212" fill-opacity="1"><g transform="translate(307.129042, 201.992857)"><g><path d="M -2.308594 10.023438 C -1.550781 10.085938 0 9.421875 0.632812 8.757812 C 0.726562 8.664062 0.949219 8.539062 0.789062 8.378906 C 0.632812 8.191406 0.441406 8.285156 0.316406 8.410156 C -0.191406 8.855469 -0.757812 9.136719 -1.359375 9.390625 C -2.847656 10.054688 -3.699219 9.484375 -3.667969 7.839844 C -3.667969 6.734375 -3.289062 5.691406 -2.8125 4.679688 C -1.867188 2.65625 -0.601562 0.855469 0.601562 -0.980469 C 1.011719 -1.644531 1.390625 -2.308594 1.613281 -3.066406 C 1.738281 -3.476562 1.898438 -4.015625 1.582031 -4.300781 C 0.917969 -4.964844 1.265625 -5.40625 1.800781 -5.882812 C 1.929688 -5.976562 1.992188 -6.164062 2.054688 -6.355469 C 2.117188 -6.546875 2.117188 -6.734375 1.960938 -6.863281 C 1.644531 -7.242188 1.234375 -7.429688 0.726562 -7.335938 C 0.125 -7.210938 -0.316406 -6.863281 -0.472656 -6.230469 C -0.601562 -5.722656 -0.441406 -5.1875 -0.03125 -4.902344 C 0.316406 -4.679688 0.347656 -4.425781 0.285156 -4.109375 C 0.222656 -3.511719 0 -2.972656 -0.316406 -2.464844 C -0.820312 -1.644531 -1.328125 -0.820312 -1.832031 -0.03125 C -2.75 1.390625 -3.605469 2.8125 -4.207031 4.363281 C -4.679688 5.691406 -4.871094 7.019531 -4.425781 8.410156 C -4.140625 9.296875 -3.226562 9.992188 -2.308594 10.023438 Z M -2.308594 10.023438 "/></g></g></g><g fill="#121212" fill-opacity="1"><g transform="translate(133.671501, 251.003667)"><g><path d="M 3.484375 -5.109375 C 3.921875 -5.109375 4.304688 -5.039062 4.640625 -4.90625 C 4.984375 -4.769531 5.269531 -4.582031 5.5 -4.34375 C 5.726562 -4.113281 5.898438 -3.84375 6.015625 -3.53125 C 6.128906 -3.226562 6.1875 -2.898438 6.1875 -2.546875 C 6.1875 -2.085938 6.082031 -1.660156 5.875 -1.265625 C 5.664062 -0.878906 5.363281 -0.570312 4.96875 -0.34375 C 4.570312 -0.113281 4.078125 0 3.484375 0 L 1.109375 0 L 1.109375 -5.109375 Z M 3.4375 -0.765625 C 3.882812 -0.765625 4.25 -0.84375 4.53125 -1 C 4.8125 -1.15625 5.015625 -1.367188 5.140625 -1.640625 C 5.273438 -1.921875 5.34375 -2.222656 5.34375 -2.546875 C 5.34375 -2.867188 5.273438 -3.164062 5.140625 -3.4375 C 5.015625 -3.71875 4.8125 -3.9375 4.53125 -4.09375 C 4.25 -4.257812 3.882812 -4.34375 3.4375 -4.34375 L 1.890625 -4.34375 L 1.890625 -0.765625 Z M 3.4375 -0.765625 "/></g></g></g><g fill="#121212" fill-opacity="1"><g transform="translate(145.796899, 251.003667)"><g><path d="M 1.109375 -5.109375 L 4.96875 -5.109375 L 4.96875 -4.34375 L 1.890625 -4.34375 L 1.890625 -3 L 4.578125 -3 L 4.578125 -2.234375 L 1.890625 -2.234375 L 1.890625 -0.765625 L 4.96875 -0.765625 L 4.96875 0 L 1.109375 0 Z M 1.109375 -5.109375 "/></g></g></g><g fill="#121212" fill-opacity="1"><g transform="translate(156.943493, 251.003667)"><g><path d="M 1.234375 -1.5625 C 1.492188 -1.269531 1.765625 -1.039062 2.046875 -0.875 C 2.328125 -0.71875 2.675781 -0.640625 3.09375 -0.640625 C 3.3125 -0.640625 3.519531 -0.664062 3.71875 -0.71875 C 3.925781 -0.78125 4.09375 -0.867188 4.21875 -0.984375 C 4.351562 -1.097656 4.421875 -1.242188 4.421875 -1.421875 C 4.421875 -1.660156 4.289062 -1.832031 4.03125 -1.9375 C 3.769531 -2.039062 3.398438 -2.125 2.921875 -2.1875 C 2.328125 -2.28125 1.851562 -2.441406 1.5 -2.671875 C 1.15625 -2.898438 0.984375 -3.242188 0.984375 -3.703125 C 0.984375 -4.003906 1.078125 -4.265625 1.265625 -4.484375 C 1.453125 -4.710938 1.703125 -4.882812 2.015625 -5 C 2.335938 -5.125 2.691406 -5.1875 3.078125 -5.1875 C 3.546875 -5.1875 3.953125 -5.109375 4.296875 -4.953125 C 4.648438 -4.796875 4.925781 -4.570312 5.125 -4.28125 L 4.59375 -3.71875 C 4.414062 -3.9375 4.195312 -4.113281 3.9375 -4.25 C 3.6875 -4.394531 3.390625 -4.46875 3.046875 -4.46875 C 2.703125 -4.46875 2.410156 -4.40625 2.171875 -4.28125 C 1.929688 -4.15625 1.8125 -3.984375 1.8125 -3.765625 C 1.8125 -3.585938 1.867188 -3.445312 1.984375 -3.34375 C 2.097656 -3.238281 2.257812 -3.15625 2.46875 -3.09375 C 2.675781 -3.03125 2.921875 -2.984375 3.203125 -2.953125 C 3.460938 -2.910156 3.710938 -2.859375 3.953125 -2.796875 C 4.203125 -2.734375 4.425781 -2.648438 4.625 -2.546875 C 4.820312 -2.441406 4.976562 -2.304688 5.09375 -2.140625 C 5.207031 -1.984375 5.265625 -1.785156 5.265625 -1.546875 C 5.265625 -1.222656 5.171875 -0.9375 4.984375 -0.6875 C 4.804688 -0.445312 4.550781 -0.257812 4.21875 -0.125 C 3.894531 0.0078125 3.507812 0.078125 3.0625 0.078125 C 2.570312 0.078125 2.132812 0 1.75 -0.15625 C 1.363281 -0.3125 1.023438 -0.566406 0.734375 -0.921875 Z M 1.234375 -1.5625 "/></g></g></g><g fill="#121212" fill-opacity="1"><g transform="translate(168.170439, 251.003667)"><g><path d="M 4.171875 0 L 1.078125 0 L 1.078125 -0.765625 L 2.21875 -0.765625 L 2.21875 -4.34375 L 1.078125 -4.34375 L 1.078125 -5.109375 L 4.171875 -5.109375 L 4.171875 -4.34375 L 3.015625 -4.34375 L 3.015625 -0.765625 L 4.171875 -0.765625 Z M 4.171875 0 "/></g></g></g><g fill="#121212" fill-opacity="1"><g transform="translate(178.637724, 251.003667)"><g><path d="M 3.6875 -5.15625 C 4.03125 -5.15625 4.347656 -5.113281 4.640625 -5.03125 C 4.929688 -4.945312 5.1875 -4.835938 5.40625 -4.703125 C 5.625 -4.578125 5.800781 -4.4375 5.9375 -4.28125 L 5.421875 -3.71875 C 5.179688 -3.914062 4.914062 -4.078125 4.625 -4.203125 C 4.332031 -4.328125 4.019531 -4.390625 3.6875 -4.390625 C 3.289062 -4.390625 2.925781 -4.304688 2.59375 -4.140625 C 2.269531 -3.984375 2.015625 -3.765625 1.828125 -3.484375 C 1.640625 -3.210938 1.546875 -2.898438 1.546875 -2.546875 C 1.546875 -2.148438 1.644531 -1.8125 1.84375 -1.53125 C 2.039062 -1.257812 2.300781 -1.050781 2.625 -0.90625 C 2.945312 -0.757812 3.296875 -0.6875 3.671875 -0.6875 C 4.015625 -0.6875 4.328125 -0.734375 4.609375 -0.828125 C 4.890625 -0.929688 5.113281 -1.066406 5.28125 -1.234375 C 5.445312 -1.398438 5.53125 -1.585938 5.53125 -1.796875 L 3.671875 -1.796875 L 3.671875 -2.578125 L 6.359375 -2.578125 C 6.367188 -2.515625 6.375 -2.453125 6.375 -2.390625 C 6.382812 -2.328125 6.390625 -2.265625 6.390625 -2.203125 C 6.390625 -1.929688 6.347656 -1.675781 6.265625 -1.4375 C 6.179688 -1.195312 6.066406 -0.992188 5.921875 -0.828125 C 5.703125 -0.546875 5.394531 -0.320312 5 -0.15625 C 4.601562 0 4.144531 0.078125 3.625 0.078125 C 3.226562 0.078125 2.851562 0.0195312 2.5 -0.09375 C 2.15625 -0.21875 1.847656 -0.394531 1.578125 -0.625 C 1.316406 -0.851562 1.109375 -1.128906 0.953125 -1.453125 C 0.796875 -1.773438 0.71875 -2.140625 0.71875 -2.546875 C 0.71875 -2.921875 0.789062 -3.265625 0.9375 -3.578125 C 1.09375 -3.890625 1.304688 -4.160156 1.578125 -4.390625 C 1.847656 -4.628906 2.160156 -4.816406 2.515625 -4.953125 C 2.878906 -5.085938 3.269531 -5.15625 3.6875 -5.15625 Z M 3.6875 -5.15625 "/></g></g></g><g fill="#121212" fill-opacity="1"><g transform="translate(190.923824, 251.003667)"><g><path d="M 5.421875 -5.109375 L 6.203125 -5.109375 L 6.203125 0 L 5.4375 0 L 1.765625 -3.984375 C 1.796875 -3.671875 1.820312 -3.359375 1.84375 -3.046875 C 1.875 -2.742188 1.890625 -2.4375 1.890625 -2.125 L 1.890625 0 L 1.109375 0 L 1.109375 -5.109375 L 1.859375 -5.109375 L 5.546875 -1.03125 C 5.515625 -1.269531 5.488281 -1.523438 5.46875 -1.796875 C 5.445312 -2.078125 5.429688 -2.359375 5.421875 -2.640625 C 5.421875 -2.921875 5.421875 -3.179688 5.421875 -3.421875 Z M 5.421875 -5.109375 "/></g></g></g><g fill="#121212" fill-opacity="1"><g transform="translate(203.465578, 251.003667)"><g><path d="M 1.109375 -5.109375 L 4.96875 -5.109375 L 4.96875 -4.34375 L 1.890625 -4.34375 L 1.890625 -3 L 4.578125 -3 L 4.578125 -2.234375 L 1.890625 -2.234375 L 1.890625 -0.765625 L 4.96875 -0.765625 L 4.96875 0 L 1.109375 0 Z M 1.109375 -5.109375 "/></g></g></g><g fill="#121212" fill-opacity="1"><g transform="translate(214.612178, 251.003667)"><g><path d="M 5.4375 -3.515625 C 5.4375 -3.171875 5.332031 -2.859375 5.125 -2.578125 C 4.914062 -2.304688 4.644531 -2.113281 4.3125 -2 L 5.703125 0 L 4.734375 0 L 3.421875 -1.890625 L 1.890625 -1.890625 L 1.890625 0 L 1.109375 0 L 1.109375 -5.109375 L 3.796875 -5.109375 C 4.085938 -5.109375 4.351562 -5.039062 4.59375 -4.90625 C 4.84375 -4.769531 5.046875 -4.582031 5.203125 -4.34375 C 5.359375 -4.101562 5.4375 -3.828125 5.4375 -3.515625 Z M 3.609375 -4.34375 L 1.890625 -4.34375 L 1.890625 -2.65625 L 3.6875 -2.65625 C 3.863281 -2.65625 4.019531 -2.691406 4.15625 -2.765625 C 4.300781 -2.847656 4.410156 -2.957031 4.484375 -3.09375 C 4.566406 -3.226562 4.609375 -3.367188 4.609375 -3.515625 C 4.609375 -3.679688 4.5625 -3.828125 4.46875 -3.953125 C 4.382812 -4.078125 4.265625 -4.171875 4.109375 -4.234375 C 3.953125 -4.304688 3.785156 -4.34375 3.609375 -4.34375 Z M 3.609375 -4.34375 "/></g></g></g><g fill="#121212" fill-opacity="1"><g transform="translate(226.379647, 251.003667)"><g/></g></g><g fill="#121212" fill-opacity="1"><g transform="translate(234.597145, 251.003667)"><g><path d="M 2.90625 0.109375 C 2.4375 0.109375 2.039062 0.03125 1.71875 -0.125 C 1.40625 -0.28125 1.164062 -0.484375 1 -0.734375 C 0.84375 -0.984375 0.765625 -1.242188 0.765625 -1.515625 C 0.765625 -1.835938 0.863281 -2.132812 1.0625 -2.40625 C 1.257812 -2.6875 1.566406 -2.914062 1.984375 -3.09375 C 1.878906 -3.226562 1.789062 -3.363281 1.71875 -3.5 C 1.65625 -3.632812 1.625 -3.769531 1.625 -3.90625 C 1.625 -4.113281 1.6875 -4.316406 1.8125 -4.515625 C 1.945312 -4.710938 2.140625 -4.875 2.390625 -5 C 2.640625 -5.132812 2.941406 -5.203125 3.296875 -5.203125 C 3.753906 -5.203125 4.132812 -5.101562 4.4375 -4.90625 C 4.75 -4.707031 4.976562 -4.46875 5.125 -4.1875 L 4.578125 -3.734375 C 4.429688 -4.003906 4.25 -4.195312 4.03125 -4.3125 C 3.8125 -4.425781 3.578125 -4.484375 3.328125 -4.484375 C 3.035156 -4.484375 2.828125 -4.425781 2.703125 -4.3125 C 2.585938 -4.207031 2.53125 -4.09375 2.53125 -3.96875 C 2.53125 -3.84375 2.570312 -3.710938 2.65625 -3.578125 C 2.738281 -3.453125 2.835938 -3.328125 2.953125 -3.203125 C 3.066406 -3.078125 3.175781 -2.96875 3.28125 -2.875 L 4.609375 -1.59375 C 4.671875 -1.707031 4.71875 -1.832031 4.75 -1.96875 C 4.789062 -2.101562 4.8125 -2.25 4.8125 -2.40625 L 5.578125 -2.40625 C 5.566406 -2.132812 5.519531 -1.882812 5.4375 -1.65625 C 5.363281 -1.425781 5.265625 -1.21875 5.140625 -1.03125 C 5.304688 -0.851562 5.472656 -0.664062 5.640625 -0.46875 C 5.804688 -0.28125 5.941406 -0.125 6.046875 0 L 5.015625 0 C 4.953125 -0.0703125 4.882812 -0.148438 4.8125 -0.234375 C 4.738281 -0.316406 4.671875 -0.394531 4.609375 -0.46875 C 4.367188 -0.28125 4.097656 -0.132812 3.796875 -0.03125 C 3.503906 0.0625 3.207031 0.109375 2.90625 0.109375 Z M 1.65625 -1.640625 C 1.65625 -1.472656 1.695312 -1.316406 1.78125 -1.171875 C 1.863281 -1.023438 2.003906 -0.898438 2.203125 -0.796875 C 2.398438 -0.703125 2.660156 -0.65625 2.984375 -0.65625 C 3.179688 -0.65625 3.367188 -0.679688 3.546875 -0.734375 C 3.734375 -0.796875 3.910156 -0.882812 4.078125 -1 L 2.84375 -2.203125 C 2.78125 -2.265625 2.71875 -2.328125 2.65625 -2.390625 C 2.59375 -2.453125 2.53125 -2.515625 2.46875 -2.578125 C 2.15625 -2.484375 1.941406 -2.351562 1.828125 -2.1875 C 1.710938 -2.019531 1.65625 -1.835938 1.65625 -1.640625 Z M 1.65625 -1.640625 "/></g></g></g><g fill="#121212" fill-opacity="1"><g transform="translate(138.293833, 260.742903)"><g><path d="M 3.484375 -5.109375 C 3.921875 -5.109375 4.304688 -5.039062 4.640625 -4.90625 C 4.984375 -4.769531 5.269531 -4.582031 5.5 -4.34375 C 5.726562 -4.113281 5.898438 -3.84375 6.015625 -3.53125 C 6.128906 -3.226562 6.1875 -2.898438 6.1875 -2.546875 C 6.1875 -2.085938 6.082031 -1.660156 5.875 -1.265625 C 5.664062 -0.878906 5.363281 -0.570312 4.96875 -0.34375 C 4.570312 -0.113281 4.078125 0 3.484375 0 L 1.109375 0 L 1.109375 -5.109375 Z M 3.4375 -0.765625 C 3.882812 -0.765625 4.25 -0.84375 4.53125 -1 C 4.8125 -1.15625 5.015625 -1.367188 5.140625 -1.640625 C 5.273438 -1.921875 5.34375 -2.222656 5.34375 -2.546875 C 5.34375 -2.867188 5.273438 -3.164062 5.140625 -3.4375 C 5.015625 -3.71875 4.8125 -3.9375 4.53125 -4.09375 C 4.25 -4.257812 3.882812 -4.34375 3.4375 -4.34375 L 1.890625 -4.34375 L 1.890625 -0.765625 Z M 3.4375 -0.765625 "/></g></g></g><g fill="#121212" fill-opacity="1"><g transform="translate(150.419231, 260.742903)"><g><path d="M 1.109375 -5.109375 L 4.96875 -5.109375 L 4.96875 -4.34375 L 1.890625 -4.34375 L 1.890625 -3 L 4.578125 -3 L 4.578125 -2.234375 L 1.890625 -2.234375 L 1.890625 -0.765625 L 4.96875 -0.765625 L 4.96875 0 L 1.109375 0 Z M 1.109375 -5.109375 "/></g></g></g><g fill="#121212" fill-opacity="1"><g transform="translate(161.565826, 260.742903)"><g><path d="M 5.828125 -5.109375 L 3.625 0 L 2.734375 0 L 0.5 -5.109375 L 1.390625 -5.109375 L 2.703125 -2.046875 C 2.773438 -1.859375 2.859375 -1.660156 2.953125 -1.453125 C 3.046875 -1.242188 3.128906 -1.039062 3.203125 -0.84375 C 3.273438 -1.039062 3.351562 -1.242188 3.4375 -1.453125 C 3.53125 -1.660156 3.613281 -1.851562 3.6875 -2.03125 L 4.90625 -5.109375 Z M 5.828125 -5.109375 "/></g></g></g><g fill="#121212" fill-opacity="1"><g transform="translate(173.114166, 260.742903)"><g><path d="M 1.109375 -5.109375 L 4.96875 -5.109375 L 4.96875 -4.34375 L 1.890625 -4.34375 L 1.890625 -3 L 4.578125 -3 L 4.578125 -2.234375 L 1.890625 -2.234375 L 1.890625 -0.765625 L 4.96875 -0.765625 L 4.96875 0 L 1.109375 0 Z M 1.109375 -5.109375 "/></g></g></g><g fill="#121212" fill-opacity="1"><g transform="translate(184.260761, 260.742903)"><g><path d="M 4.9375 -0.765625 L 4.9375 0 L 1.109375 0 L 1.109375 -5.109375 L 1.890625 -5.109375 L 1.890625 -0.765625 Z M 4.9375 -0.765625 "/></g></g></g><g fill="#121212" fill-opacity="1"><g transform="translate(195.246663, 260.742903)"><g><path d="M 6.484375 -2.546875 C 6.484375 -2.179688 6.410156 -1.835938 6.265625 -1.515625 C 6.128906 -1.203125 5.929688 -0.925781 5.671875 -0.6875 C 5.410156 -0.445312 5.101562 -0.257812 4.75 -0.125 C 4.40625 0.0078125 4.019531 0.078125 3.59375 0.078125 C 3.175781 0.078125 2.789062 0.0078125 2.4375 -0.125 C 2.082031 -0.257812 1.773438 -0.445312 1.515625 -0.6875 C 1.265625 -0.925781 1.066406 -1.203125 0.921875 -1.515625 C 0.785156 -1.835938 0.71875 -2.179688 0.71875 -2.546875 C 0.71875 -2.921875 0.785156 -3.265625 0.921875 -3.578125 C 1.066406 -3.898438 1.265625 -4.179688 1.515625 -4.421875 C 1.773438 -4.660156 2.082031 -4.847656 2.4375 -4.984375 C 2.789062 -5.117188 3.175781 -5.1875 3.59375 -5.1875 C 4.019531 -5.1875 4.40625 -5.117188 4.75 -4.984375 C 5.101562 -4.847656 5.410156 -4.660156 5.671875 -4.421875 C 5.929688 -4.179688 6.128906 -3.898438 6.265625 -3.578125 C 6.410156 -3.265625 6.484375 -2.921875 6.484375 -2.546875 Z M 5.671875 -2.546875 C 5.671875 -2.910156 5.582031 -3.226562 5.40625 -3.5 C 5.226562 -3.78125 4.984375 -4.003906 4.671875 -4.171875 C 4.359375 -4.335938 4 -4.421875 3.59375 -4.421875 C 3.1875 -4.421875 2.828125 -4.335938 2.515625 -4.171875 C 2.203125 -4.003906 1.957031 -3.78125 1.78125 -3.5 C 1.613281 -3.226562 1.53125 -2.910156 1.53125 -2.546875 C 1.53125 -2.191406 1.613281 -1.875 1.78125 -1.59375 C 1.957031 -1.320312 2.203125 -1.101562 2.515625 -0.9375 C 2.828125 -0.769531 3.1875 -0.6875 3.59375 -0.6875 C 4 -0.6875 4.359375 -0.769531 4.671875 -0.9375 C 4.984375 -1.101562 5.226562 -1.328125 5.40625 -1.609375 C 5.582031 -1.890625 5.671875 -2.203125 5.671875 -2.546875 Z M 5.671875 -2.546875 "/></g></g></g><g fill="#121212" fill-opacity="1"><g transform="translate(207.671545, 260.742903)"><g><path d="M 3.765625 -5.109375 C 4.054688 -5.109375 4.320312 -5.035156 4.5625 -4.890625 C 4.800781 -4.753906 4.992188 -4.566406 5.140625 -4.328125 C 5.296875 -4.097656 5.375 -3.832031 5.375 -3.53125 C 5.375 -3.238281 5.296875 -2.96875 5.140625 -2.71875 C 4.984375 -2.46875 4.773438 -2.269531 4.515625 -2.125 C 4.253906 -1.976562 3.972656 -1.90625 3.671875 -1.90625 L 1.890625 -1.90625 L 1.890625 0 L 1.109375 0 L 1.109375 -5.109375 Z M 3.625 -2.671875 C 3.789062 -2.671875 3.941406 -2.707031 4.078125 -2.78125 C 4.222656 -2.863281 4.332031 -2.96875 4.40625 -3.09375 C 4.488281 -3.226562 4.53125 -3.375 4.53125 -3.53125 C 4.53125 -3.6875 4.488281 -3.820312 4.40625 -3.9375 C 4.332031 -4.0625 4.222656 -4.160156 4.078125 -4.234375 C 3.941406 -4.304688 3.789062 -4.34375 3.625 -4.34375 L 1.890625 -4.34375 L 1.890625 -2.671875 Z M 3.625 -2.671875 "/></g></g></g><g fill="#121212" fill-opacity="1"><g transform="translate(219.008066, 260.742903)"><g><path d="M 1.109375 -5.109375 L 4.96875 -5.109375 L 4.96875 -4.34375 L 1.890625 -4.34375 L 1.890625 -3 L 4.578125 -3 L 4.578125 -2.234375 L 1.890625 -2.234375 L 1.890625 -0.765625 L 4.96875 -0.765625 L 4.96875 0 L 1.109375 0 Z M 1.109375 -5.109375 "/></g></g></g><g fill="#121212" fill-opacity="1"><g transform="translate(230.154665, 260.742903)"><g><path d="M 5.4375 -3.515625 C 5.4375 -3.171875 5.332031 -2.859375 5.125 -2.578125 C 4.914062 -2.304688 4.644531 -2.113281 4.3125 -2 L 5.703125 0 L 4.734375 0 L 3.421875 -1.890625 L 1.890625 -1.890625 L 1.890625 0 L 1.109375 0 L 1.109375 -5.109375 L 3.796875 -5.109375 C 4.085938 -5.109375 4.351562 -5.039062 4.59375 -4.90625 C 4.84375 -4.769531 5.046875 -4.582031 5.203125 -4.34375 C 5.359375 -4.101562 5.4375 -3.828125 5.4375 -3.515625 Z M 3.609375 -4.34375 L 1.890625 -4.34375 L 1.890625 -2.65625 L 3.6875 -2.65625 C 3.863281 -2.65625 4.019531 -2.691406 4.15625 -2.765625 C 4.300781 -2.847656 4.410156 -2.957031 4.484375 -3.09375 C 4.566406 -3.226562 4.609375 -3.367188 4.609375 -3.515625 C 4.609375 -3.679688 4.5625 -3.828125 4.46875 -3.953125 C 4.382812 -4.078125 4.265625 -4.171875 4.109375 -4.234375 C 3.953125 -4.304688 3.785156 -4.34375 3.609375 -4.34375 Z M 3.609375 -4.34375 "/></g></g></g><g fill="#121212" fill-opacity="1"><g transform="translate(102.629836, 160.095709)"><g><path d="M -2 -9.296875 L -0.078125 -5.078125 L 2.140625 -3.828125 L 1.671875 -2.984375 L -0.515625 -4.203125 L -5.234375 -3.5 L -4.609375 -4.609375 L -1.046875 -5.09375 L -2.5625 -8.28125 Z M -2 -9.296875 "/></g></g></g><g fill="#121212" fill-opacity="1"><g transform="translate(107.948156, 150.891487)"><g><path d="M 2.140625 -8.28125 C 2.515625 -8.007812 2.804688 -7.6875 3.015625 -7.3125 C 3.234375 -6.945312 3.367188 -6.550781 3.421875 -6.125 C 3.472656 -5.695312 3.4375 -5.257812 3.3125 -4.8125 C 3.195312 -4.363281 2.984375 -3.929688 2.671875 -3.515625 C 2.378906 -3.097656 2.035156 -2.757812 1.640625 -2.5 C 1.242188 -2.25 0.835938 -2.082031 0.421875 -2 C 0.00390625 -1.925781 -0.410156 -1.929688 -0.828125 -2.015625 C -1.242188 -2.109375 -1.640625 -2.289062 -2.015625 -2.5625 C -2.378906 -2.832031 -2.671875 -3.148438 -2.890625 -3.515625 C -3.109375 -3.890625 -3.242188 -4.285156 -3.296875 -4.703125 C -3.347656 -5.128906 -3.3125 -5.566406 -3.1875 -6.015625 C -3.0625 -6.472656 -2.851562 -6.910156 -2.5625 -7.328125 C -2.25 -7.742188 -1.894531 -8.078125 -1.5 -8.328125 C -1.113281 -8.578125 -0.710938 -8.742188 -0.296875 -8.828125 C 0.117188 -8.910156 0.535156 -8.90625 0.953125 -8.8125 C 1.378906 -8.726562 1.773438 -8.550781 2.140625 -8.28125 Z M 1.5625 -7.5 C 1.207031 -7.757812 0.828125 -7.898438 0.421875 -7.921875 C 0.015625 -7.953125 -0.378906 -7.867188 -0.765625 -7.671875 C -1.148438 -7.472656 -1.492188 -7.171875 -1.796875 -6.765625 C -2.085938 -6.359375 -2.265625 -5.941406 -2.328125 -5.515625 C -2.390625 -5.085938 -2.34375 -4.6875 -2.1875 -4.3125 C -2.039062 -3.9375 -1.789062 -3.617188 -1.4375 -3.359375 C -1.082031 -3.109375 -0.703125 -2.96875 -0.296875 -2.9375 C 0.109375 -2.90625 0.503906 -2.984375 0.890625 -3.171875 C 1.273438 -3.367188 1.613281 -3.671875 1.90625 -4.078125 C 2.207031 -4.484375 2.390625 -4.898438 2.453125 -5.328125 C 2.515625 -5.765625 2.46875 -6.171875 2.3125 -6.546875 C 2.164062 -6.929688 1.914062 -7.25 1.5625 -7.5 Z M 1.5625 -7.5 "/></g></g></g><g fill="#121212" fill-opacity="1"><g transform="translate(115.061946, 141.440827)"><g><path d="M 0.265625 -9.484375 L 2.8125 -7.109375 C 3.21875 -6.734375 3.492188 -6.3125 3.640625 -5.84375 C 3.785156 -5.375 3.796875 -4.894531 3.671875 -4.40625 C 3.546875 -3.914062 3.285156 -3.457031 2.890625 -3.03125 C 2.492188 -2.601562 2.054688 -2.3125 1.578125 -2.15625 C 1.097656 -2.007812 0.617188 -1.988281 0.140625 -2.09375 C -0.335938 -2.195312 -0.78125 -2.4375 -1.1875 -2.8125 L -3.734375 -5.1875 L -3.078125 -5.90625 L -0.5625 -3.5625 C -0.28125 -3.300781 0.0234375 -3.132812 0.359375 -3.0625 C 0.703125 -3 1.035156 -3.019531 1.359375 -3.125 C 1.679688 -3.226562 1.960938 -3.410156 2.203125 -3.671875 C 2.460938 -3.953125 2.632812 -4.257812 2.71875 -4.59375 C 2.8125 -4.925781 2.8125 -5.253906 2.71875 -5.578125 C 2.625 -5.910156 2.4375 -6.207031 2.15625 -6.46875 L -0.359375 -8.8125 Z M 0.265625 -9.484375 "/></g></g></g><g fill="#121212" fill-opacity="1"><g transform="translate(123.045207, 133.258073)"><g/></g></g><g fill="#121212" fill-opacity="1"><g transform="translate(128.161437, 128.829181)"><g><path d="M 4.109375 -3.0625 L 1.0625 -0.796875 L 0.5 -1.546875 L 1.625 -2.375 L -1 -5.921875 L -2.125 -5.09375 L -2.6875 -5.84375 L 0.359375 -8.109375 L 0.921875 -7.359375 L -0.21875 -6.5 L 2.40625 -2.953125 L 3.546875 -3.8125 Z M 4.109375 -3.0625 "/></g></g></g><g fill="#121212" fill-opacity="1"><g transform="translate(135.796585, 123.263457)"><g><path d="M -1.140625 -6.59375 L 2.65625 -4.921875 L 3.140625 -9.0625 L 3.9375 -9.515625 L 7.078125 -4.078125 L 6.25 -3.609375 L 4.9375 -5.890625 C 4.75 -6.222656 4.570312 -6.539062 4.40625 -6.84375 C 4.238281 -7.15625 4.085938 -7.46875 3.953125 -7.78125 L 3.5 -4.09375 L 2.984375 -3.796875 L -0.4375 -5.234375 C -0.25 -4.960938 -0.0625 -4.675781 0.125 -4.375 C 0.320312 -4.082031 0.515625 -3.769531 0.703125 -3.4375 L 2.015625 -1.15625 L 1.171875 -0.671875 L -1.96875 -6.109375 Z M -1.140625 -6.59375 "/></g></g></g><g fill="#121212" fill-opacity="1"><g transform="translate(146.750393, 117.213062)"><g><path d="M 5.78125 -2.4375 L 4.59375 -3.5625 L 1.53125 -2.265625 L 1.484375 -0.625 L 0.5625 -0.234375 L 0.734375 -7.125 L 1.734375 -7.546875 L 6.765625 -2.859375 Z M 1.59375 -5.109375 L 1.546875 -3.3125 L 3.828125 -4.265625 L 2.46875 -5.515625 C 2.320312 -5.660156 2.175781 -5.804688 2.03125 -5.953125 C 1.882812 -6.097656 1.734375 -6.242188 1.578125 -6.390625 C 1.597656 -6.160156 1.609375 -5.941406 1.609375 -5.734375 C 1.609375 -5.535156 1.601562 -5.328125 1.59375 -5.109375 Z M 1.59375 -5.109375 "/></g></g></g><g fill="#121212" fill-opacity="1"><g transform="translate(156.888996, 113.096812)"><g><path d="M 2.609375 -7.328125 C 3.015625 -7.453125 3.398438 -7.515625 3.765625 -7.515625 C 4.140625 -7.523438 4.476562 -7.488281 4.78125 -7.40625 C 5.082031 -7.320312 5.34375 -7.210938 5.5625 -7.078125 L 5.125 -6.25 C 4.769531 -6.394531 4.398438 -6.488281 4.015625 -6.53125 C 3.628906 -6.570312 3.242188 -6.535156 2.859375 -6.421875 C 2.378906 -6.285156 1.972656 -6.066406 1.640625 -5.765625 C 1.316406 -5.472656 1.09375 -5.132812 0.96875 -4.75 C 0.84375 -4.363281 0.835938 -3.960938 0.953125 -3.546875 C 1.097656 -3.066406 1.332031 -2.695312 1.65625 -2.4375 C 1.988281 -2.1875 2.367188 -2.03125 2.796875 -1.96875 C 3.222656 -1.914062 3.660156 -1.953125 4.109375 -2.078125 C 4.503906 -2.191406 4.851562 -2.351562 5.15625 -2.5625 C 5.457031 -2.769531 5.675781 -3 5.8125 -3.25 C 5.957031 -3.507812 5.992188 -3.765625 5.921875 -4.015625 L 3.734375 -3.375 L 3.46875 -4.296875 L 6.640625 -5.21875 C 6.660156 -5.132812 6.6875 -5.054688 6.71875 -4.984375 C 6.75 -4.910156 6.773438 -4.835938 6.796875 -4.765625 C 6.890625 -4.453125 6.925781 -4.140625 6.90625 -3.828125 C 6.882812 -3.523438 6.820312 -3.242188 6.71875 -2.984375 C 6.550781 -2.585938 6.257812 -2.222656 5.84375 -1.890625 C 5.425781 -1.566406 4.914062 -1.316406 4.3125 -1.140625 C 3.84375 -1.003906 3.378906 -0.945312 2.921875 -0.96875 C 2.472656 -0.988281 2.050781 -1.085938 1.65625 -1.265625 C 1.257812 -1.453125 0.914062 -1.710938 0.625 -2.046875 C 0.34375 -2.378906 0.128906 -2.785156 -0.015625 -3.265625 C -0.140625 -3.703125 -0.164062 -4.128906 -0.09375 -4.546875 C -0.03125 -4.972656 0.117188 -5.367188 0.359375 -5.734375 C 0.597656 -6.097656 0.910156 -6.421875 1.296875 -6.703125 C 1.679688 -6.984375 2.117188 -7.191406 2.609375 -7.328125 Z M 2.609375 -7.328125 "/></g></g></g><g fill="#121212" fill-opacity="1"><g transform="translate(168.177453, 110.077526)"><g><path d="M 5.046875 -0.859375 L 1.3125 -0.21875 L 1.15625 -1.140625 L 2.53125 -1.390625 L 1.78125 -5.734375 L 0.40625 -5.484375 L 0.25 -6.40625 L 3.984375 -7.046875 L 4.140625 -6.125 L 2.75 -5.890625 L 3.5 -1.546875 L 4.890625 -1.78125 Z M 5.046875 -0.859375 "/></g></g></g><g fill="#121212" fill-opacity="1"><g transform="translate(177.512568, 108.576261)"><g><path d="M 6.28125 -6.640625 L 7.25 -6.703125 L 7.609375 -0.4375 L 6.671875 -0.375 L 1.890625 -5 C 1.941406 -4.625 1.992188 -4.25 2.046875 -3.875 C 2.109375 -3.5 2.148438 -3.117188 2.171875 -2.734375 L 2.328125 -0.125 L 1.359375 -0.078125 L 1 -6.34375 L 1.921875 -6.390625 L 6.71875 -1.65625 C 6.664062 -1.957031 6.617188 -2.269531 6.578125 -2.59375 C 6.535156 -2.925781 6.5 -3.265625 6.46875 -3.609375 C 6.4375 -3.960938 6.414062 -4.289062 6.40625 -4.59375 Z M 6.28125 -6.640625 "/></g></g></g><g fill="#121212" fill-opacity="1"><g transform="translate(189.487437, 108.118999)"><g><path d="M 1.734375 -6.1875 L 6.46875 -5.90625 L 6.421875 -4.96875 L 2.65625 -5.1875 L 2.546875 -3.546875 L 5.828125 -3.34375 L 5.78125 -2.40625 L 2.5 -2.609375 L 2.390625 -0.796875 L 6.15625 -0.578125 L 6.09375 0.359375 L 1.359375 0.078125 Z M 1.734375 -6.1875 "/></g></g></g><g fill="#121212" fill-opacity="1"><g transform="translate(199.797613, 108.957738)"><g><path d="M 2.71875 0.359375 C 2.6875 0.609375 2.582031 0.835938 2.40625 1.046875 C 2.226562 1.253906 2.015625 1.4375 1.765625 1.59375 C 1.515625 1.75 1.257812 1.851562 1 1.90625 L 0.671875 1.390625 C 0.953125 1.273438 1.1875 1.15625 1.375 1.03125 C 1.5625 0.90625 1.664062 0.78125 1.6875 0.65625 C 1.707031 0.539062 1.679688 0.441406 1.609375 0.359375 C 1.546875 0.285156 1.46875 0.207031 1.375 0.125 C 1.28125 0.0507812 1.195312 -0.0351562 1.125 -0.140625 C 1.0625 -0.242188 1.039062 -0.363281 1.0625 -0.5 C 1.09375 -0.675781 1.1875 -0.800781 1.34375 -0.875 C 1.5 -0.957031 1.671875 -0.984375 1.859375 -0.953125 C 2.046875 -0.921875 2.207031 -0.84375 2.34375 -0.71875 C 2.488281 -0.59375 2.597656 -0.4375 2.671875 -0.25 C 2.742188 -0.0703125 2.757812 0.128906 2.71875 0.359375 Z M 2.71875 0.359375 "/></g></g></g><g fill="#121212" fill-opacity="1"><g transform="translate(206.586394, 110.102188)"><g/></g></g><g fill="#121212" fill-opacity="1"><g transform="translate(213.170655, 111.665891)"><g><path d="M 4.890625 1.5625 L 1.265625 0.40625 L 1.546875 -0.484375 L 2.890625 -0.0625 L 4.234375 -4.265625 L 2.890625 -4.6875 L 3.171875 -5.578125 L 6.796875 -4.421875 L 6.515625 -3.53125 L 5.15625 -3.96875 L 3.8125 0.234375 L 5.171875 0.671875 Z M 4.890625 1.5625 "/></g></g></g><g fill="#121212" fill-opacity="1"><g transform="translate(222.186321, 114.737393)"><g/></g></g><g fill="#121212" fill-opacity="1"><g transform="translate(228.39916, 117.353639)"><g><path d="M 6.734375 -3.53125 C 7.210938 -3.28125 7.59375 -2.976562 7.875 -2.625 C 8.164062 -2.28125 8.363281 -1.914062 8.46875 -1.53125 C 8.582031 -1.15625 8.613281 -0.765625 8.5625 -0.359375 C 8.507812 0.0351562 8.382812 0.425781 8.1875 0.8125 C 7.914062 1.3125 7.554688 1.707031 7.109375 2 C 6.660156 2.300781 6.15625 2.460938 5.59375 2.484375 C 5.03125 2.515625 4.425781 2.359375 3.78125 2.015625 L 1.203125 0.640625 L 4.15625 -4.90625 Z M 4.171875 1.171875 C 4.660156 1.421875 5.101562 1.539062 5.5 1.53125 C 5.894531 1.53125 6.238281 1.414062 6.53125 1.1875 C 6.832031 0.96875 7.082031 0.679688 7.28125 0.328125 C 7.457031 -0.0234375 7.554688 -0.382812 7.578125 -0.75 C 7.597656 -1.113281 7.503906 -1.46875 7.296875 -1.8125 C 7.085938 -2.164062 6.738281 -2.46875 6.25 -2.71875 L 4.5625 -3.625 L 2.484375 0.265625 Z M 4.171875 1.171875 "/></g></g></g><g fill="#121212" fill-opacity="1"><g transform="translate(238.429883, 122.938053)"><g><path d="M 4.6875 -4.40625 L 8.59375 -1.703125 L 8.0625 -0.921875 L 4.953125 -3.0625 L 4.015625 -1.703125 L 6.71875 0.171875 L 6.1875 0.9375 L 3.484375 -0.9375 L 2.453125 0.5625 L 5.5625 2.703125 L 5.03125 3.46875 L 1.125 0.765625 Z M 4.6875 -4.40625 "/></g></g></g><g fill="#121212" fill-opacity="1"><g transform="translate(246.8095, 128.919883)"><g><path d="M 2.40625 -0.453125 C 2.414062 0.0234375 2.484375 0.453125 2.609375 0.828125 C 2.742188 1.210938 3.003906 1.566406 3.390625 1.890625 C 3.585938 2.066406 3.804688 2.207031 4.046875 2.3125 C 4.285156 2.425781 4.507812 2.484375 4.71875 2.484375 C 4.9375 2.484375 5.113281 2.40625 5.25 2.25 C 5.445312 2.019531 5.460938 1.75 5.296875 1.4375 C 5.128906 1.132812 4.859375 0.757812 4.484375 0.3125 C 4.003906 -0.238281 3.691406 -0.765625 3.546875 -1.265625 C 3.410156 -1.773438 3.519531 -2.238281 3.875 -2.65625 C 4.125 -2.9375 4.425781 -3.101562 4.78125 -3.15625 C 5.132812 -3.207031 5.503906 -3.164062 5.890625 -3.03125 C 6.285156 -2.894531 6.664062 -2.671875 7.03125 -2.359375 C 7.46875 -1.972656 7.785156 -1.566406 7.984375 -1.140625 C 8.179688 -0.722656 8.257812 -0.296875 8.21875 0.140625 L 7.25 0.234375 C 7.28125 -0.109375 7.226562 -0.445312 7.09375 -0.78125 C 6.96875 -1.125 6.742188 -1.429688 6.421875 -1.703125 C 6.097656 -1.984375 5.773438 -2.160156 5.453125 -2.234375 C 5.140625 -2.304688 4.894531 -2.238281 4.71875 -2.03125 C 4.582031 -1.875 4.523438 -1.703125 4.546875 -1.515625 C 4.566406 -1.328125 4.644531 -1.117188 4.78125 -0.890625 C 4.925781 -0.660156 5.113281 -0.421875 5.34375 -0.171875 C 5.5625 0.078125 5.757812 0.328125 5.9375 0.578125 C 6.113281 0.835938 6.25 1.09375 6.34375 1.34375 C 6.445312 1.601562 6.484375 1.851562 6.453125 2.09375 C 6.429688 2.34375 6.328125 2.578125 6.140625 2.796875 C 5.867188 3.097656 5.550781 3.285156 5.1875 3.359375 C 4.832031 3.441406 4.445312 3.414062 4.03125 3.28125 C 3.613281 3.144531 3.195312 2.898438 2.78125 2.546875 C 2.332031 2.148438 1.988281 1.722656 1.75 1.265625 C 1.519531 0.804688 1.40625 0.296875 1.40625 -0.265625 Z M 2.40625 -0.453125 "/></g></g></g><g fill="#121212" fill-opacity="1"><g transform="translate(254.557189, 135.865931)"><g><path d="M 3.5 3.734375 L 0.90625 0.96875 L 1.59375 0.328125 L 2.5625 1.359375 L 5.78125 -1.65625 L 4.8125 -2.6875 L 5.484375 -3.328125 L 8.078125 -0.5625 L 7.40625 0.078125 L 6.4375 -0.953125 L 3.21875 2.0625 L 4.1875 3.09375 Z M 3.5 3.734375 "/></g></g></g><g fill="#121212" fill-opacity="1"><g transform="translate(260.947096, 142.840731)"><g><path d="M 7.78125 -0.15625 C 8.03125 0.1875 8.222656 0.53125 8.359375 0.875 C 8.492188 1.21875 8.578125 1.546875 8.609375 1.859375 C 8.640625 2.171875 8.632812 2.445312 8.59375 2.6875 L 7.65625 2.59375 C 7.664062 2.21875 7.625 1.84375 7.53125 1.46875 C 7.4375 1.09375 7.269531 0.738281 7.03125 0.40625 C 6.726562 0.0195312 6.378906 -0.273438 5.984375 -0.484375 C 5.585938 -0.691406 5.1875 -0.785156 4.78125 -0.765625 C 4.375 -0.742188 4 -0.601562 3.65625 -0.34375 C 3.257812 -0.0507812 2.992188 0.289062 2.859375 0.6875 C 2.734375 1.082031 2.722656 1.488281 2.828125 1.90625 C 2.929688 2.332031 3.117188 2.734375 3.390625 3.109375 C 3.640625 3.441406 3.910156 3.707031 4.203125 3.90625 C 4.503906 4.113281 4.800781 4.238281 5.09375 4.28125 C 5.382812 4.320312 5.632812 4.265625 5.84375 4.109375 L 4.484375 2.296875 L 5.25 1.71875 L 7.234375 4.359375 C 7.160156 4.410156 7.09375 4.460938 7.03125 4.515625 C 6.976562 4.578125 6.925781 4.628906 6.875 4.671875 C 6.613281 4.867188 6.332031 5.015625 6.03125 5.109375 C 5.726562 5.203125 5.441406 5.238281 5.171875 5.21875 C 4.734375 5.207031 4.285156 5.066406 3.828125 4.796875 C 3.378906 4.523438 2.96875 4.132812 2.59375 3.625 C 2.289062 3.238281 2.070312 2.828125 1.9375 2.390625 C 1.800781 1.960938 1.75 1.53125 1.78125 1.09375 C 1.8125 0.664062 1.929688 0.257812 2.140625 -0.125 C 2.347656 -0.519531 2.648438 -0.863281 3.046875 -1.15625 C 3.410156 -1.4375 3.800781 -1.617188 4.21875 -1.703125 C 4.644531 -1.785156 5.070312 -1.78125 5.5 -1.6875 C 5.925781 -1.59375 6.332031 -1.414062 6.71875 -1.15625 C 7.113281 -0.894531 7.46875 -0.5625 7.78125 -0.15625 Z M 7.78125 -0.15625 "/></g></g></g><g fill="#121212" fill-opacity="1"><g transform="translate(267.781796, 152.27931)"><g><path d="M 8.75 2.671875 L 9.21875 3.515625 L 3.765625 6.625 L 3.3125 5.8125 L 5.328125 -0.53125 C 5.003906 -0.320312 4.6875 -0.109375 4.375 0.109375 C 4.070312 0.328125 3.753906 0.53125 3.421875 0.71875 L 1.15625 2.015625 L 0.671875 1.1875 L 6.125 -1.921875 L 6.578125 -1.125 L 4.46875 5.296875 C 4.71875 5.109375 4.976562 4.921875 5.25 4.734375 C 5.53125 4.554688 5.816406 4.375 6.109375 4.1875 C 6.410156 4.007812 6.695312 3.84375 6.96875 3.6875 Z M 8.75 2.671875 "/></g></g></g></svg>